<svg width="490" height="148" viewBox="0 0 490 148" fill="none" xmlns="http://www.w3.org/2000/svg">
<rect width="490" height="148" rx="10" fill="#011627"/>
<path d="M16.4805 19.8945V19.7715C16.4805 19.4121 16.4473 19.0723 16.3809 18.752C16.3184 18.4316 16.2246 18.1406 16.0996 17.8789C16.0059 17.6914 15.8965 17.5195 15.7715 17.3633C15.6504 17.2031 15.5117 17.0684 15.3555 16.959C15.1719 16.8262 14.9648 16.7246 14.7344 16.6543C14.5078 16.5801 14.2578 16.543 13.9844 16.543C13.7773 16.543 13.584 16.5645 13.4043 16.6074C13.2285 16.6465 13.0664 16.707 12.918 16.7891C12.8047 16.8516 12.6992 16.9238 12.6016 17.0059C12.5039 17.0879 12.4141 17.1797 12.332 17.2812V14H10.9316V23H12.1973L12.2617 22.3086C12.332 22.3945 12.4043 22.4746 12.4785 22.5488C12.5566 22.6191 12.6387 22.6855 12.7246 22.748C12.8926 22.8691 13.082 22.9609 13.293 23.0234C13.5039 23.0859 13.7383 23.1172 13.9961 23.1172C14.25 23.1172 14.4844 23.084 14.6992 23.0176C14.918 22.9551 15.1152 22.8652 15.291 22.748C15.5098 22.6035 15.6973 22.4219 15.8535 22.2031C16.0098 21.9844 16.1348 21.7402 16.2285 21.4707C16.3105 21.2441 16.373 20.998 16.416 20.7324C16.459 20.4668 16.4805 20.1875 16.4805 19.8945ZM15.0801 19.7715V19.8945C15.0801 20.0703 15.0703 20.2402 15.0508 20.4043C15.0312 20.5684 15.002 20.7207 14.9629 20.8613C14.916 21.0488 14.8477 21.2188 14.7578 21.3711C14.6719 21.5195 14.5605 21.6426 14.4238 21.7402C14.3223 21.8105 14.207 21.8672 14.0781 21.9102C13.9492 21.9492 13.8047 21.9688 13.6445 21.9688C13.4688 21.9688 13.3086 21.9473 13.1641 21.9043C13.0234 21.8574 12.8984 21.7949 12.7891 21.7168C12.6914 21.6426 12.6035 21.5586 12.5254 21.4648C12.4512 21.3672 12.3867 21.2598 12.332 21.1426V18.5176C12.3789 18.416 12.4336 18.3223 12.4961 18.2363C12.5625 18.1465 12.6367 18.0684 12.7188 18.002C12.832 17.9043 12.9648 17.8301 13.1172 17.7793C13.2695 17.7246 13.4414 17.6973 13.6328 17.6973C13.7891 17.6973 13.9297 17.7148 14.0547 17.75C14.1797 17.7852 14.291 17.8379 14.3887 17.9082C14.5371 18.0098 14.6543 18.1348 14.7402 18.2832C14.8301 18.4277 14.9023 18.5898 14.957 18.7695C14.9961 18.918 15.0254 19.0781 15.0449 19.25C15.0684 19.418 15.0801 19.5918 15.0801 19.7715ZM17.8574 19.7715V19.8945C17.8574 20.3594 17.9238 20.7871 18.0566 21.1777C18.1895 21.5684 18.3828 21.9082 18.6367 22.1973C18.8867 22.4863 19.1953 22.7129 19.5625 22.877C19.9297 23.041 20.3457 23.123 20.8105 23.123C21.2715 23.123 21.6836 23.041 22.0469 22.877C22.4141 22.7129 22.7227 22.4863 22.9727 22.1973C23.2227 21.9082 23.4141 21.5684 23.5469 21.1777C23.6797 20.7871 23.7461 20.3594 23.7461 19.8945V19.7715C23.7461 19.3105 23.6797 18.8848 23.5469 18.4941C23.4141 18.0996 23.2227 17.7578 22.9727 17.4688C22.7188 17.1797 22.4082 16.9531 22.041 16.7891C21.6777 16.625 21.2637 16.543 20.7988 16.543C20.334 16.543 19.9199 16.625 19.5566 16.7891C19.1934 16.9531 18.8867 17.1797 18.6367 17.4688C18.3828 17.7578 18.1895 18.0996 18.0566 18.4941C17.9238 18.8848 17.8574 19.3105 17.8574 19.7715ZM19.2578 19.8945V19.7715C19.2578 19.4941 19.2871 19.2285 19.3457 18.9746C19.4082 18.7207 19.502 18.498 19.627 18.3066C19.7559 18.1152 19.916 17.9629 20.1074 17.8496C20.3027 17.7363 20.5332 17.6797 20.7988 17.6797C21.0684 17.6797 21.2988 17.7363 21.4902 17.8496C21.6855 17.9629 21.8457 18.1152 21.9707 18.3066C22.0957 18.498 22.1895 18.7207 22.252 18.9746C22.3145 19.2285 22.3457 19.4941 22.3457 19.7715V19.8945C22.3457 20.1797 22.3145 20.4492 22.252 20.7031C22.1934 20.957 22.1016 21.1797 21.9766 21.3711C21.8516 21.5625 21.6914 21.7148 21.4961 21.8281C21.3008 21.9375 21.0723 21.9922 20.8105 21.9922C20.541 21.9922 20.3086 21.9375 20.1133 21.8281C19.918 21.7148 19.7559 21.5625 19.627 21.3711C19.502 21.1797 19.4082 20.957 19.3457 20.7031C19.2871 20.4492 19.2578 20.1797 19.2578 19.8945ZM25.1348 19.7832V19.9062C25.1348 20.3633 25.1934 20.7891 25.3105 21.1836C25.4277 21.5742 25.5938 21.9121 25.8086 22.1973C26.0234 22.4863 26.2852 22.7129 26.5938 22.877C26.9023 23.0371 27.25 23.1172 27.6367 23.1172C28.0039 23.1172 28.3281 23.0508 28.6094 22.918C28.8906 22.7812 29.1328 22.5879 29.3359 22.3379L29.4004 23H30.6719V14H29.2715V17.252C29.0684 17.0254 28.834 16.8516 28.5684 16.7305C28.3066 16.6055 28 16.543 27.6484 16.543C27.2578 16.543 26.9062 16.623 26.5938 16.7832C26.2852 16.9395 26.0234 17.1602 25.8086 17.4453C25.5898 17.7305 25.4219 18.0723 25.3047 18.4707C25.1914 18.8652 25.1348 19.3027 25.1348 19.7832ZM26.5352 19.9062V19.7832C26.5352 19.498 26.5625 19.2305 26.6172 18.9805C26.6719 18.7266 26.7578 18.5039 26.875 18.3125C26.9922 18.1211 27.1426 17.9707 27.3262 17.8613C27.5137 17.752 27.7383 17.6973 28 17.6973C28.3125 17.6973 28.5703 17.7676 28.7734 17.9082C28.9805 18.0449 29.1465 18.2305 29.2715 18.4648V21.1895C29.1465 21.4277 28.9805 21.6172 28.7734 21.7578C28.5664 21.8945 28.3047 21.9629 27.9883 21.9629C27.7305 21.9629 27.5098 21.9102 27.3262 21.8047C27.1426 21.6953 26.9922 21.5469 26.875 21.3594C26.7578 21.1719 26.6719 20.9531 26.6172 20.7031C26.5625 20.4531 26.5352 20.1875 26.5352 19.9062ZM33.3262 25.5605C33.6348 25.5605 33.9043 25.5059 34.1348 25.3965C34.3652 25.291 34.5645 25.1582 34.7324 24.998C34.9004 24.8418 35.0391 24.6699 35.1484 24.4824C35.2617 24.2988 35.3555 24.125 35.4297 23.9609L38.6465 16.6602H37.0938L35.5645 20.5508L35.3008 21.2305L35.084 20.5332L33.5078 16.6602H31.9668L34.668 22.7188L34.2695 23.4746C34.2266 23.5605 34.1797 23.6426 34.1289 23.7207C34.082 23.7988 34.0195 23.8887 33.9414 23.9902C33.8594 24.0918 33.7637 24.1816 33.6543 24.2598C33.5449 24.3418 33.4219 24.3828 33.2852 24.3828C33.2227 24.3828 33.1406 24.3789 33.0391 24.3711C32.9414 24.3672 32.8535 24.3633 32.7754 24.3594L32.582 25.4551C32.6953 25.4824 32.8145 25.5059 32.9395 25.5254C33.0645 25.5488 33.1934 25.5605 33.3262 25.5605ZM12.3086 81.5625V78H10.9082V87H12.3086V82.4121C12.375 82.3105 12.4512 82.2188 12.5371 82.1367C12.627 82.0547 12.7227 81.9844 12.8242 81.9258C12.9453 81.8516 13.0781 81.7949 13.2227 81.7559C13.3711 81.7168 13.5273 81.6973 13.6914 81.6973C13.9023 81.6973 14.0879 81.7266 14.248 81.7852C14.4121 81.8398 14.5508 81.9258 14.6641 82.043C14.7734 82.1523 14.8555 82.2949 14.9102 82.4707C14.9688 82.6465 14.998 82.8516 14.998 83.0859V87H16.3984V83.0977C16.3984 82.6484 16.3438 82.2637 16.2344 81.9434C16.1289 81.6191 15.9785 81.3535 15.7832 81.1465C15.5879 80.9395 15.3516 80.7871 15.0742 80.6895C14.8008 80.5918 14.498 80.543 14.166 80.543C13.9277 80.543 13.7012 80.5781 13.4863 80.6484C13.2754 80.7148 13.082 80.8125 12.9062 80.9414C12.793 81.0195 12.6855 81.1113 12.584 81.2168C12.4824 81.3223 12.3906 81.4375 12.3086 81.5625ZM21.9062 87V78.4688H21.8184L18.3086 79.7695V81.0059L20.4941 80.2031V87H21.9062Z" fill="#F78C6C"/>
<path d="M51.6367 25.127L51.8066 24.3066C51.5879 24.3066 51.4102 24.248 51.2734 24.1309C51.1367 24.0176 51.0273 23.8691 50.9453 23.6855C50.8633 23.502 50.8066 23.2969 50.7754 23.0703C50.748 22.8438 50.7344 22.6191 50.7344 22.3965V21.4238C50.7305 20.959 50.6172 20.5508 50.3945 20.1992C50.1758 19.8438 49.8301 19.5742 49.3574 19.3906C49.8262 19.2031 50.1719 18.9316 50.3945 18.5762C50.6211 18.2168 50.7344 17.8047 50.7344 17.3398V16.3672C50.7344 16.1445 50.7402 15.9199 50.752 15.6934C50.7676 15.4668 50.8105 15.2598 50.8809 15.0723C50.9512 14.8926 51.0586 14.7461 51.2031 14.6328C51.3477 14.5156 51.5488 14.457 51.8066 14.457L51.6367 13.6426C51.25 13.6465 50.918 13.7246 50.6406 13.877C50.3672 14.0254 50.1465 14.2188 49.9785 14.457C49.7832 14.7188 49.6406 15.0215 49.5508 15.3652C49.4609 15.709 49.416 16.043 49.416 16.3672V17.3398C49.416 17.8828 49.2891 18.2734 49.0352 18.5117C48.7852 18.75 48.4004 18.8691 47.8809 18.8691V19.9004C48.4004 19.9043 48.7852 20.0254 49.0352 20.2637C49.2891 20.502 49.416 20.8887 49.416 21.4238V22.3965C49.416 22.7051 49.459 23.0195 49.5449 23.3398C49.6309 23.6602 49.7656 23.9531 49.9492 24.2188C50.1289 24.4844 50.3594 24.6992 50.6406 24.8633C50.9219 25.0312 51.2539 25.1191 51.6367 25.127ZM142.551 38.1562C142.551 38.4258 142.639 38.6543 142.814 38.8418C142.994 39.0254 143.244 39.1172 143.564 39.1172C143.881 39.1172 144.129 39.0254 144.309 38.8418C144.492 38.6582 144.584 38.4297 144.584 38.1562C144.584 37.8828 144.494 37.6523 144.314 37.4648C144.135 37.2734 143.885 37.1777 143.564 37.1777C143.24 37.1777 142.99 37.2734 142.814 37.4648C142.639 37.6562 142.551 37.8867 142.551 38.1562ZM142.551 33.1934C142.551 33.4629 142.639 33.6914 142.814 33.8789C142.994 34.0625 143.244 34.1543 143.564 34.1543C143.881 34.1543 144.129 34.0625 144.309 33.8789C144.492 33.6953 144.584 33.4668 144.584 33.1934C144.584 32.9199 144.494 32.6895 144.314 32.502C144.135 32.3105 143.885 32.2148 143.564 32.2148C143.24 32.2148 142.99 32.3105 142.814 32.502C142.639 32.6934 142.551 32.9238 142.551 33.1934ZM221.939 33.1934C221.939 33.4629 222.027 33.6914 222.203 33.8789C222.383 34.0625 222.633 34.1543 222.953 34.1543C223.27 34.1543 223.518 34.0625 223.697 33.8789C223.881 33.6953 223.973 33.4668 223.973 33.1934C223.973 32.9199 223.883 32.6895 223.703 32.502C223.523 32.3105 223.273 32.2148 222.953 32.2148C222.629 32.2148 222.379 32.3105 222.203 32.502C222.027 32.6934 221.939 32.9238 221.939 33.1934ZM223.586 38.8184V37.6348H222.209V38.8711C222.209 39.2578 222.162 39.6055 222.068 39.9141C221.979 40.2227 221.85 40.5156 221.682 40.793L222.467 41.209C222.803 40.9082 223.072 40.5391 223.275 40.1016C223.482 39.668 223.586 39.2402 223.586 38.8184ZM11.9219 56.3066L12.0918 57.127C12.4746 57.123 12.8066 57.0371 13.0879 56.8691C13.3691 56.7012 13.5996 56.4844 13.7793 56.2188C13.9551 55.9609 14.0879 55.6699 14.1777 55.3457C14.2676 55.0215 14.3125 54.7051 14.3125 54.3965V53.4238C14.3125 53.2051 14.334 53.0117 14.377 52.8438C14.4199 52.6719 14.4844 52.5273 14.5703 52.4102C14.6914 52.2344 14.8574 52.1074 15.0684 52.0293C15.2793 51.9473 15.5391 51.9043 15.8477 51.9004V50.8691C15.543 50.8691 15.2832 50.8301 15.0684 50.752C14.8535 50.6699 14.6875 50.5449 14.5703 50.377C14.4805 50.2559 14.4141 50.1094 14.3711 49.9375C14.332 49.7656 14.3125 49.5664 14.3125 49.3398V48.3672C14.3125 48.0586 14.2715 47.7422 14.1895 47.418C14.1113 47.0898 13.9805 46.7949 13.7969 46.5332C13.6211 46.2676 13.3926 46.0547 13.1113 45.8945C12.834 45.7305 12.4941 45.6465 12.0918 45.6426L11.9277 46.457C12.1816 46.457 12.3809 46.5156 12.5254 46.6328C12.6699 46.7461 12.7773 46.8926 12.8477 47.0723C12.9141 47.2598 12.9551 47.4668 12.9707 47.6934C12.9902 47.9199 13 48.1445 13 48.3672V49.3398C13 49.625 13.0391 49.8926 13.1172 50.1426C13.1992 50.3887 13.3242 50.6094 13.4922 50.8047C13.5977 50.9258 13.7188 51.0371 13.8555 51.1387C13.9961 51.2363 14.1523 51.3203 14.3242 51.3906C14.1289 51.4727 13.9551 51.5723 13.8027 51.6895C13.6543 51.8027 13.5273 51.9316 13.4219 52.0762C13.2773 52.2598 13.1699 52.4668 13.0996 52.6973C13.0332 52.9238 13 53.166 13 53.4238V54.3965C13 54.6191 12.9824 54.8438 12.9473 55.0703C12.916 55.2969 12.8594 55.502 12.7773 55.6855C12.6953 55.8691 12.584 56.0176 12.4434 56.1309C12.3066 56.248 12.1328 56.3066 11.9219 56.3066ZM37.2227 89.127L37.3926 88.3066C37.1738 88.3066 36.9961 88.248 36.8594 88.1309C36.7227 88.0176 36.6133 87.8691 36.5312 87.6855C36.4492 87.502 36.3926 87.2969 36.3613 87.0703C36.334 86.8438 36.3203 86.6191 36.3203 86.3965V85.4238C36.3164 84.959 36.2031 84.5508 35.9805 84.1992C35.7617 83.8438 35.416 83.5742 34.9434 83.3906C35.4121 83.2031 35.7578 82.9316 35.9805 82.5762C36.207 82.2168 36.3203 81.8047 36.3203 81.3398V80.3672C36.3203 80.1445 36.3262 79.9199 36.3379 79.6934C36.3535 79.4668 36.3965 79.2598 36.4668 79.0723C36.5371 78.8926 36.6445 78.7461 36.7891 78.6328C36.9336 78.5156 37.1348 78.457 37.3926 78.457L37.2227 77.6426C36.8359 77.6465 36.5039 77.7246 36.2266 77.877C35.9531 78.0254 35.7324 78.2188 35.5645 78.457C35.3691 78.7188 35.2266 79.0215 35.1367 79.3652C35.0469 79.709 35.002 80.043 35.002 80.3672V81.3398C35.002 81.8828 34.875 82.2734 34.6211 82.5117C34.3711 82.75 33.9863 82.8691 33.4668 82.8691V83.9004C33.9863 83.9043 34.3711 84.0254 34.6211 84.2637C34.875 84.502 35.002 84.8887 35.002 85.4238V86.3965C35.002 86.7051 35.0449 87.0195 35.1309 87.3398C35.2168 87.6602 35.3516 87.9531 35.5352 88.2188C35.7148 88.4844 35.9453 88.6992 36.2266 88.8633C36.5078 89.0312 36.8398 89.1191 37.2227 89.127ZM63.2734 102.156C63.2734 102.426 63.3613 102.654 63.5371 102.842C63.7168 103.025 63.9668 103.117 64.2871 103.117C64.6035 103.117 64.8516 103.025 65.0312 102.842C65.2148 102.658 65.3066 102.43 65.3066 102.156C65.3066 101.883 65.2168 101.652 65.0371 101.465C64.8574 101.273 64.6074 101.178 64.2871 101.178C63.9629 101.178 63.7129 101.273 63.5371 101.465C63.3613 101.656 63.2734 101.887 63.2734 102.156ZM63.2734 97.1934C63.2734 97.4629 63.3613 97.6914 63.5371 97.8789C63.7168 98.0625 63.9668 98.1543 64.2871 98.1543C64.6035 98.1543 64.8516 98.0625 65.0312 97.8789C65.2148 97.6953 65.3066 97.4668 65.3066 97.1934C65.3066 96.9199 65.2168 96.6895 65.0371 96.502C64.8574 96.3105 64.6074 96.2148 64.2871 96.2148C63.9629 96.2148 63.7129 96.3105 63.5371 96.502C63.3613 96.6934 63.2734 96.9238 63.2734 97.1934ZM113.834 97.1934C113.834 97.4629 113.922 97.6914 114.098 97.8789C114.277 98.0625 114.527 98.1543 114.848 98.1543C115.164 98.1543 115.412 98.0625 115.592 97.8789C115.775 97.6953 115.867 97.4668 115.867 97.1934C115.867 96.9199 115.777 96.6895 115.598 96.502C115.418 96.3105 115.168 96.2148 114.848 96.2148C114.523 96.2148 114.273 96.3105 114.098 96.502C113.922 96.6934 113.834 96.9238 113.834 97.1934ZM115.48 102.818V101.635H114.104V102.871C114.104 103.258 114.057 103.605 113.963 103.914C113.873 104.223 113.744 104.516 113.576 104.793L114.361 105.209C114.697 104.908 114.967 104.539 115.17 104.102C115.377 103.668 115.48 103.24 115.48 102.818ZM99.3086 118.156C99.3086 118.426 99.3965 118.654 99.5723 118.842C99.752 119.025 100.002 119.117 100.322 119.117C100.639 119.117 100.887 119.025 101.066 118.842C101.25 118.658 101.342 118.43 101.342 118.156C101.342 117.883 101.252 117.652 101.072 117.465C100.893 117.273 100.643 117.178 100.322 117.178C99.998 117.178 99.748 117.273 99.5723 117.465C99.3965 117.656 99.3086 117.887 99.3086 118.156ZM99.3086 113.193C99.3086 113.463 99.3965 113.691 99.5723 113.879C99.752 114.062 100.002 114.154 100.322 114.154C100.639 114.154 100.887 114.062 101.066 113.879C101.25 113.695 101.342 113.467 101.342 113.193C101.342 112.92 101.252 112.689 101.072 112.502C100.893 112.311 100.643 112.215 100.322 112.215C99.998 112.215 99.748 112.311 99.5723 112.502C99.3965 112.693 99.3086 112.924 99.3086 113.193ZM157.076 113.193C157.076 113.463 157.164 113.691 157.34 113.879C157.52 114.062 157.77 114.154 158.09 114.154C158.406 114.154 158.654 114.062 158.834 113.879C159.018 113.695 159.109 113.467 159.109 113.193C159.109 112.92 159.02 112.689 158.84 112.502C158.66 112.311 158.41 112.215 158.09 112.215C157.766 112.215 157.516 112.311 157.34 112.502C157.164 112.693 157.076 112.924 157.076 113.193ZM158.723 118.818V117.635H157.346V118.871C157.346 119.258 157.299 119.605 157.205 119.914C157.115 120.223 156.986 120.516 156.818 120.793L157.604 121.209C157.939 120.908 158.209 120.539 158.412 120.102C158.619 119.668 158.723 119.24 158.723 118.818ZM11.9219 136.307L12.0918 137.127C12.4746 137.123 12.8066 137.037 13.0879 136.869C13.3691 136.701 13.5996 136.484 13.7793 136.219C13.9551 135.961 14.0879 135.67 14.1777 135.346C14.2676 135.021 14.3125 134.705 14.3125 134.396V133.424C14.3125 133.205 14.334 133.012 14.377 132.844C14.4199 132.672 14.4844 132.527 14.5703 132.41C14.6914 132.234 14.8574 132.107 15.0684 132.029C15.2793 131.947 15.5391 131.904 15.8477 131.9V130.869C15.543 130.869 15.2832 130.83 15.0684 130.752C14.8535 130.67 14.6875 130.545 14.5703 130.377C14.4805 130.256 14.4141 130.109 14.3711 129.938C14.332 129.766 14.3125 129.566 14.3125 129.34V128.367C14.3125 128.059 14.2715 127.742 14.1895 127.418C14.1113 127.09 13.9805 126.795 13.7969 126.533C13.6211 126.268 13.3926 126.055 13.1113 125.895C12.834 125.73 12.4941 125.646 12.0918 125.643L11.9277 126.457C12.1816 126.457 12.3809 126.516 12.5254 126.633C12.6699 126.746 12.7773 126.893 12.8477 127.072C12.9141 127.26 12.9551 127.467 12.9707 127.693C12.9902 127.92 13 128.145 13 128.367V129.34C13 129.625 13.0391 129.893 13.1172 130.143C13.1992 130.389 13.3242 130.609 13.4922 130.805C13.5977 130.926 13.7188 131.037 13.8555 131.139C13.9961 131.236 14.1523 131.32 14.3242 131.391C14.1289 131.473 13.9551 131.572 13.8027 131.689C13.6543 131.803 13.5273 131.932 13.4219 132.076C13.2773 132.26 13.1699 132.467 13.0996 132.697C13.0332 132.924 13 133.166 13 133.424V134.396C13 134.619 12.9824 134.844 12.9473 135.07C12.916 135.297 12.8594 135.502 12.7773 135.686C12.6953 135.869 12.584 136.018 12.4434 136.131C12.3066 136.248 12.1328 136.307 11.9219 136.307Z" fill="white"/>
<path d="M30.8945 35.8945V35.7715C30.8945 35.4121 30.8613 35.0723 30.7949 34.752C30.7324 34.4316 30.6387 34.1406 30.5137 33.8789C30.4199 33.6914 30.3105 33.5195 30.1855 33.3633C30.0645 33.2031 29.9258 33.0684 29.7695 32.959C29.5859 32.8262 29.3789 32.7246 29.1484 32.6543C28.9219 32.5801 28.6719 32.543 28.3984 32.543C28.1914 32.543 27.998 32.5645 27.8184 32.6074C27.6426 32.6465 27.4805 32.707 27.332 32.7891C27.2188 32.8516 27.1133 32.9238 27.0156 33.0059C26.918 33.0879 26.8281 33.1797 26.7461 33.2812V30H25.3457V39H26.6113L26.6758 38.3086C26.7461 38.3945 26.8184 38.4746 26.8926 38.5488C26.9707 38.6191 27.0527 38.6855 27.1387 38.748C27.3066 38.8691 27.4961 38.9609 27.707 39.0234C27.918 39.0859 28.1523 39.1172 28.4102 39.1172C28.6641 39.1172 28.8984 39.084 29.1133 39.0176C29.332 38.9551 29.5293 38.8652 29.7051 38.748C29.9238 38.6035 30.1113 38.4219 30.2676 38.2031C30.4238 37.9844 30.5488 37.7402 30.6426 37.4707C30.7246 37.2441 30.7871 36.998 30.8301 36.7324C30.873 36.4668 30.8945 36.1875 30.8945 35.8945ZM29.4941 35.7715V35.8945C29.4941 36.0703 29.4844 36.2402 29.4648 36.4043C29.4453 36.5684 29.416 36.7207 29.377 36.8613C29.3301 37.0488 29.2617 37.2188 29.1719 37.3711C29.0859 37.5195 28.9746 37.6426 28.8379 37.7402C28.7363 37.8105 28.6211 37.8672 28.4922 37.9102C28.3633 37.9492 28.2188 37.9688 28.0586 37.9688C27.8828 37.9688 27.7227 37.9473 27.5781 37.9043C27.4375 37.8574 27.3125 37.7949 27.2031 37.7168C27.1055 37.6426 27.0176 37.5586 26.9395 37.4648C26.8652 37.3672 26.8008 37.2598 26.7461 37.1426V34.5176C26.793 34.416 26.8477 34.3223 26.9102 34.2363C26.9766 34.1465 27.0508 34.0684 27.1328 34.002C27.2461 33.9043 27.3789 33.8301 27.5312 33.7793C27.6836 33.7246 27.8555 33.6973 28.0469 33.6973C28.2031 33.6973 28.3438 33.7148 28.4688 33.75C28.5938 33.7852 28.7051 33.8379 28.8027 33.9082C28.9512 34.0098 29.0684 34.1348 29.1543 34.2832C29.2441 34.4277 29.3164 34.5898 29.3711 34.7695C29.4102 34.918 29.4395 35.0781 29.459 35.25C29.4824 35.418 29.4941 35.5918 29.4941 35.7715ZM36.5781 39H38.0078V38.9004C37.9297 38.7363 37.8691 38.541 37.8262 38.3145C37.7871 38.084 37.7676 37.8262 37.7676 37.541V34.7227C37.7676 34.3633 37.7012 34.0469 37.5684 33.7734C37.4355 33.4961 37.252 33.2676 37.0176 33.0879C36.7832 32.9082 36.5039 32.7734 36.1797 32.6836C35.8594 32.5898 35.5137 32.543 35.1426 32.543C34.7285 32.543 34.3594 32.5977 34.0352 32.707C33.7148 32.8125 33.4434 32.957 33.2207 33.1406C32.998 33.3203 32.8281 33.5273 32.7109 33.7617C32.5938 33.9961 32.5332 34.2402 32.5293 34.4941H33.9355C33.9355 34.373 33.957 34.2598 34 34.1543C34.0469 34.0449 34.1172 33.9531 34.2109 33.8789C34.3047 33.7969 34.4219 33.7324 34.5625 33.6855C34.707 33.6387 34.875 33.6152 35.0664 33.6152C35.2773 33.6152 35.4629 33.6426 35.623 33.6973C35.7871 33.748 35.9258 33.8223 36.0391 33.9199C36.1445 34.0176 36.2246 34.1328 36.2793 34.2656C36.3379 34.3984 36.3672 34.5469 36.3672 34.7109V35.1387H35.3477C34.8906 35.1387 34.4805 35.1816 34.1172 35.2676C33.7578 35.3535 33.4551 35.4785 33.209 35.6426C32.9434 35.8184 32.7402 36.041 32.5996 36.3105C32.4629 36.5762 32.3945 36.8828 32.3945 37.2305C32.3945 37.5 32.4473 37.752 32.5527 37.9863C32.6621 38.2168 32.8125 38.4141 33.0039 38.5781C33.1992 38.7461 33.4316 38.8789 33.7012 38.9766C33.9746 39.0703 34.2754 39.1172 34.6035 39.1172C34.8066 39.1172 34.9961 39.0977 35.1719 39.0586C35.3477 39.0195 35.5117 38.9648 35.6641 38.8945C35.8164 38.8281 35.9531 38.75 36.0742 38.6602C36.1992 38.5664 36.3105 38.4688 36.4082 38.3672C36.4277 38.4883 36.4492 38.6055 36.4727 38.7188C36.5 38.8281 36.5352 38.9219 36.5781 39ZM34.873 37.9922C34.6934 37.9922 34.5371 37.9707 34.4043 37.9277C34.2715 37.8809 34.1602 37.8184 34.0703 37.7402C33.9805 37.6621 33.9121 37.5684 33.8652 37.459C33.8184 37.3457 33.7949 37.2246 33.7949 37.0957C33.7949 36.9395 33.8223 36.7988 33.877 36.6738C33.9355 36.5488 34.0234 36.4414 34.1406 36.3516C34.2734 36.2461 34.4512 36.166 34.6738 36.1113C34.8965 36.0527 35.1602 36.0234 35.4648 36.0234H36.3672V37.1953C36.3164 37.2969 36.2441 37.3945 36.1504 37.4883C36.0566 37.582 35.9453 37.666 35.8164 37.7402C35.6875 37.8145 35.543 37.875 35.3828 37.9219C35.2266 37.9688 35.0566 37.9922 34.873 37.9922ZM42.4961 37.9922C42.2031 37.9922 41.959 37.9336 41.7637 37.8164C41.5684 37.6992 41.4141 37.5449 41.3008 37.3535C41.1836 37.1621 41.0996 36.9434 41.0488 36.6973C41.002 36.4473 40.9785 36.1934 40.9785 35.9355V35.7305C40.9785 35.4766 41.002 35.2266 41.0488 34.9805C41.0996 34.7344 41.1836 34.5156 41.3008 34.3242C41.418 34.1328 41.5723 33.9785 41.7637 33.8613C41.959 33.7402 42.2031 33.6797 42.4961 33.6797C42.6875 33.6797 42.8652 33.7129 43.0293 33.7793C43.1973 33.8457 43.3418 33.9355 43.4629 34.0488C43.5801 34.1621 43.6699 34.2949 43.7324 34.4473C43.7988 34.5996 43.832 34.7617 43.832 34.9336H45.1504C45.1543 34.582 45.0898 34.2598 44.957 33.9668C44.8281 33.6738 44.6465 33.4219 44.4121 33.2109C44.1777 33 43.8965 32.8359 43.5684 32.7188C43.2441 32.6016 42.8906 32.543 42.5078 32.543C42.0234 32.543 41.5977 32.6289 41.2305 32.8008C40.8672 32.9688 40.5625 33.1973 40.3164 33.4863C40.0703 33.7754 39.8848 34.1133 39.7598 34.5C39.6387 34.8867 39.5781 35.2969 39.5781 35.7305V35.9355C39.5781 36.373 39.6406 36.7852 39.7656 37.1719C39.8906 37.5547 40.0742 37.8906 40.3164 38.1797C40.5625 38.4688 40.8672 38.6992 41.2305 38.8711C41.5977 39.0391 42.0254 39.123 42.5137 39.123C42.8652 39.123 43.1992 39.0664 43.5156 38.9531C43.8359 38.8359 44.1191 38.6777 44.3652 38.4785C44.6074 38.2793 44.7988 38.0449 44.9395 37.7754C45.084 37.502 45.1543 37.2109 45.1504 36.9023H43.832C43.832 37.0625 43.7949 37.209 43.7207 37.3418C43.6504 37.4746 43.5547 37.5898 43.4336 37.6875C43.3086 37.7852 43.1641 37.8613 43 37.916C42.8398 37.9668 42.6719 37.9922 42.4961 37.9922ZM49.123 36.2402L51.1445 39H52.8789L50.0547 35.3027L52.5215 32.6602H50.834L48.9414 34.6523L48.3613 35.2969V30H46.9551V39H48.3613V36.9609L49.123 36.2402ZM53.9688 35.7832V35.9062C53.9688 36.3633 54.0273 36.7891 54.1445 37.1836C54.2656 37.5742 54.4375 37.9121 54.6602 38.1973C54.8789 38.4863 55.1445 38.7129 55.457 38.877C55.7695 39.0371 56.1211 39.1172 56.5117 39.1172C56.7266 39.1172 56.9258 39.0938 57.1094 39.0469C57.293 39.0039 57.4609 38.9395 57.6133 38.8535C57.7148 38.7988 57.8086 38.7344 57.8945 38.6602C57.9844 38.5859 58.0703 38.5059 58.1523 38.4199V38.8594C58.1523 39.0977 58.1172 39.3105 58.0469 39.498C57.9805 39.6855 57.8848 39.8438 57.7598 39.9727C57.623 40.1055 57.457 40.207 57.2617 40.2773C57.0703 40.3477 56.8496 40.3828 56.5996 40.3828C56.4551 40.3828 56.3125 40.3672 56.1719 40.3359C56.0312 40.3086 55.8926 40.2637 55.7559 40.2012C55.6191 40.1387 55.4844 40.0566 55.3516 39.9551C55.2227 39.8574 55.1016 39.7402 54.9883 39.6035L54.3262 40.4531C54.4668 40.6406 54.6348 40.8008 54.8301 40.9336C55.0254 41.0664 55.2305 41.1738 55.4453 41.2559C55.6602 41.3379 55.875 41.3984 56.0898 41.4375C56.3047 41.4766 56.502 41.4961 56.6816 41.4961C57.1074 41.4961 57.4961 41.4355 57.8477 41.3145C58.2031 41.1973 58.5078 41.0254 58.7617 40.7988C59.0117 40.5684 59.2051 40.2871 59.3418 39.9551C59.4824 39.627 59.5527 39.25 59.5527 38.8242V32.6602H58.2812L58.2227 33.2988C58.1445 33.2051 58.0605 33.1191 57.9707 33.041C57.8809 32.959 57.7852 32.8887 57.6836 32.8301C57.5273 32.7363 57.3535 32.666 57.1621 32.6191C56.9707 32.5684 56.7578 32.543 56.5234 32.543C56.1289 32.543 55.7734 32.623 55.457 32.7832C55.1445 32.9395 54.877 33.1602 54.6543 33.4453C54.4355 33.7305 54.2656 34.0723 54.1445 34.4707C54.0273 34.8652 53.9688 35.3027 53.9688 35.7832ZM55.375 35.9062V35.7832C55.375 35.498 55.4043 35.2305 55.4629 34.9805C55.5215 34.7266 55.6133 34.5039 55.7383 34.3125C55.8594 34.1211 56.0137 33.9707 56.2012 33.8613C56.3887 33.752 56.6133 33.6973 56.875 33.6973C57.0234 33.6973 57.1602 33.7148 57.2852 33.75C57.4102 33.7812 57.5234 33.8262 57.625 33.8848C57.7383 33.9473 57.8379 34.0254 57.9238 34.1191C58.0137 34.2129 58.0898 34.3184 58.1523 34.4355V37.2129C58.0898 37.3262 58.0176 37.4297 57.9355 37.5234C57.8535 37.6172 57.7598 37.6973 57.6543 37.7637C57.5488 37.8262 57.4297 37.875 57.2969 37.9102C57.168 37.9453 57.0234 37.9629 56.8633 37.9629C56.6055 37.9629 56.3828 37.9102 56.1953 37.8047C56.0078 37.6953 55.8535 37.5449 55.7324 37.3535C55.6074 37.1699 55.5156 36.9531 55.457 36.7031C55.4023 36.4531 55.375 36.1875 55.375 35.9062ZM65.7402 32.543C65.3027 32.543 64.9023 32.6445 64.5391 32.8477C64.1797 33.0508 63.8711 33.3301 63.6133 33.6855L63.6074 33.5391L63.5488 32.6602H62.2363V39H63.6367V35.0859C63.7109 34.8984 63.8027 34.7324 63.9121 34.5879C64.0215 34.4434 64.1543 34.3242 64.3105 34.2305C64.4551 34.1328 64.6211 34.0605 64.8086 34.0137C64.9961 33.9668 65.207 33.9434 65.4414 33.9434C65.6484 33.9434 65.8555 33.9551 66.0625 33.9785C66.2734 34.002 66.4863 34.0371 66.7012 34.084L66.9004 32.7012C66.7793 32.6582 66.6113 32.6211 66.3965 32.5898C66.1855 32.5586 65.9668 32.543 65.7402 32.543ZM68.3066 35.7715V35.8945C68.3066 36.3594 68.373 36.7871 68.5059 37.1777C68.6387 37.5684 68.832 37.9082 69.0859 38.1973C69.3359 38.4863 69.6445 38.7129 70.0117 38.877C70.3789 39.041 70.7949 39.123 71.2598 39.123C71.7207 39.123 72.1328 39.041 72.4961 38.877C72.8633 38.7129 73.1719 38.4863 73.4219 38.1973C73.6719 37.9082 73.8633 37.5684 73.9961 37.1777C74.1289 36.7871 74.1953 36.3594 74.1953 35.8945V35.7715C74.1953 35.3105 74.1289 34.8848 73.9961 34.4941C73.8633 34.0996 73.6719 33.7578 73.4219 33.4688C73.168 33.1797 72.8574 32.9531 72.4902 32.7891C72.127 32.625 71.7129 32.543 71.248 32.543C70.7832 32.543 70.3691 32.625 70.0059 32.7891C69.6426 32.9531 69.3359 33.1797 69.0859 33.4688C68.832 33.7578 68.6387 34.0996 68.5059 34.4941C68.373 34.8848 68.3066 35.3105 68.3066 35.7715ZM69.707 35.8945V35.7715C69.707 35.4941 69.7363 35.2285 69.7949 34.9746C69.8574 34.7207 69.9512 34.498 70.0762 34.3066C70.2051 34.1152 70.3652 33.9629 70.5566 33.8496C70.752 33.7363 70.9824 33.6797 71.248 33.6797C71.5176 33.6797 71.748 33.7363 71.9395 33.8496C72.1348 33.9629 72.2949 34.1152 72.4199 34.3066C72.5449 34.498 72.6387 34.7207 72.7012 34.9746C72.7637 35.2285 72.7949 35.4941 72.7949 35.7715V35.8945C72.7949 36.1797 72.7637 36.4492 72.7012 36.7031C72.6426 36.957 72.5508 37.1797 72.4258 37.3711C72.3008 37.5625 72.1406 37.7148 71.9453 37.8281C71.75 37.9375 71.5215 37.9922 71.2598 37.9922C70.9902 37.9922 70.7578 37.9375 70.5625 37.8281C70.3672 37.7148 70.2051 37.5625 70.0762 37.3711C69.9512 37.1797 69.8574 36.957 69.7949 36.7031C69.7363 36.4492 69.707 36.1797 69.707 35.8945ZM79.9258 39H81.1973V32.6602H79.791V37.1484C79.7363 37.2656 79.6699 37.373 79.5918 37.4707C79.5137 37.5645 79.4238 37.6465 79.3223 37.7168C79.2012 37.7949 79.0605 37.8574 78.9004 37.9043C78.7402 37.9473 78.5586 37.9688 78.3555 37.9688C78.1602 37.9688 77.9902 37.9434 77.8457 37.8926C77.7012 37.8418 77.582 37.7559 77.4883 37.6348C77.3945 37.5176 77.3262 37.3613 77.2832 37.166C77.2402 36.9668 77.2188 36.7207 77.2188 36.4277V32.6602H75.8184V36.416C75.8184 36.8926 75.8711 37.3027 75.9766 37.6465C76.082 37.9863 76.2305 38.2656 76.4219 38.4844C76.6172 38.7031 76.8496 38.8652 77.1191 38.9707C77.3926 39.0723 77.6953 39.123 78.0273 39.123C78.4062 39.123 78.75 39.0352 79.0586 38.8594C79.3672 38.6797 79.6289 38.4316 79.8438 38.1152L79.9258 39ZM82.9785 39H84.3789V34.4766C84.4414 34.3711 84.5137 34.2734 84.5957 34.1836C84.6777 34.0938 84.7656 34.0176 84.8594 33.9551C84.9805 33.873 85.1152 33.8105 85.2637 33.7676C85.4121 33.7207 85.5723 33.6973 85.7441 33.6973C85.9512 33.6973 86.1348 33.7207 86.2949 33.7676C86.4551 33.8105 86.5918 33.8848 86.7051 33.9902C86.8184 34.0957 86.9043 34.2363 86.9629 34.4121C87.0215 34.5879 87.0508 34.8066 87.0508 35.0684V39H88.4512V35.0449C88.4512 34.5996 88.3984 34.2207 88.293 33.9082C88.1875 33.5918 88.0391 33.332 87.8477 33.1289C87.6562 32.9258 87.4258 32.7773 87.1562 32.6836C86.8867 32.5898 86.5898 32.543 86.2656 32.543C86.0195 32.543 85.7852 32.5781 85.5625 32.6484C85.3398 32.7188 85.1348 32.8184 84.9473 32.9473C84.8301 33.0293 84.7188 33.123 84.6133 33.2285C84.5117 33.3301 84.418 33.4414 84.332 33.5625L84.2441 32.6602H82.9785V39ZM89.998 35.7832V35.9062C89.998 36.3633 90.0566 36.7891 90.1738 37.1836C90.291 37.5742 90.457 37.9121 90.6719 38.1973C90.8867 38.4863 91.1484 38.7129 91.457 38.877C91.7656 39.0371 92.1133 39.1172 92.5 39.1172C92.8672 39.1172 93.1914 39.0508 93.4727 38.918C93.7539 38.7812 93.9961 38.5879 94.1992 38.3379L94.2637 39H95.5352V30H94.1348V33.252C93.9316 33.0254 93.6973 32.8516 93.4316 32.7305C93.1699 32.6055 92.8633 32.543 92.5117 32.543C92.1211 32.543 91.7695 32.623 91.457 32.7832C91.1484 32.9395 90.8867 33.1602 90.6719 33.4453C90.4531 33.7305 90.2852 34.0723 90.168 34.4707C90.0547 34.8652 89.998 35.3027 89.998 35.7832ZM91.3984 35.9062V35.7832C91.3984 35.498 91.4258 35.2305 91.4805 34.9805C91.5352 34.7266 91.6211 34.5039 91.7383 34.3125C91.8555 34.1211 92.0059 33.9707 92.1895 33.8613C92.377 33.752 92.6016 33.6973 92.8633 33.6973C93.1758 33.6973 93.4336 33.7676 93.6367 33.9082C93.8438 34.0449 94.0098 34.2305 94.1348 34.4648V37.1895C94.0098 37.4277 93.8438 37.6172 93.6367 37.7578C93.4297 37.8945 93.168 37.9629 92.8516 37.9629C92.5938 37.9629 92.373 37.9102 92.1895 37.8047C92.0059 37.6953 91.8555 37.5469 91.7383 37.3594C91.6211 37.1719 91.5352 36.9531 91.4805 36.7031C91.4258 36.4531 91.3984 36.1875 91.3984 35.9062ZM102.695 35.8184V34.6816H97.9785V35.8184H102.695ZM107.359 37.9922C107.066 37.9922 106.822 37.9336 106.627 37.8164C106.432 37.6992 106.277 37.5449 106.164 37.3535C106.047 37.1621 105.963 36.9434 105.912 36.6973C105.865 36.4473 105.842 36.1934 105.842 35.9355V35.7305C105.842 35.4766 105.865 35.2266 105.912 34.9805C105.963 34.7344 106.047 34.5156 106.164 34.3242C106.281 34.1328 106.436 33.9785 106.627 33.8613C106.822 33.7402 107.066 33.6797 107.359 33.6797C107.551 33.6797 107.729 33.7129 107.893 33.7793C108.061 33.8457 108.205 33.9355 108.326 34.0488C108.443 34.1621 108.533 34.2949 108.596 34.4473C108.662 34.5996 108.695 34.7617 108.695 34.9336H110.014C110.018 34.582 109.953 34.2598 109.82 33.9668C109.691 33.6738 109.51 33.4219 109.275 33.2109C109.041 33 108.76 32.8359 108.432 32.7188C108.107 32.6016 107.754 32.543 107.371 32.543C106.887 32.543 106.461 32.6289 106.094 32.8008C105.73 32.9688 105.426 33.1973 105.18 33.4863C104.934 33.7754 104.748 34.1133 104.623 34.5C104.502 34.8867 104.441 35.2969 104.441 35.7305V35.9355C104.441 36.373 104.504 36.7852 104.629 37.1719C104.754 37.5547 104.938 37.8906 105.18 38.1797C105.426 38.4688 105.73 38.6992 106.094 38.8711C106.461 39.0391 106.889 39.123 107.377 39.123C107.729 39.123 108.062 39.0664 108.379 38.9531C108.699 38.8359 108.982 38.6777 109.229 38.4785C109.471 38.2793 109.662 38.0449 109.803 37.7754C109.947 37.502 110.018 37.2109 110.014 36.9023H108.695C108.695 37.0625 108.658 37.209 108.584 37.3418C108.514 37.4746 108.418 37.5898 108.297 37.6875C108.172 37.7852 108.027 37.8613 107.863 37.916C107.703 37.9668 107.535 37.9922 107.359 37.9922ZM111.549 35.7715V35.8945C111.549 36.3594 111.615 36.7871 111.748 37.1777C111.881 37.5684 112.074 37.9082 112.328 38.1973C112.578 38.4863 112.887 38.7129 113.254 38.877C113.621 39.041 114.037 39.123 114.502 39.123C114.963 39.123 115.375 39.041 115.738 38.877C116.105 38.7129 116.414 38.4863 116.664 38.1973C116.914 37.9082 117.105 37.5684 117.238 37.1777C117.371 36.7871 117.438 36.3594 117.438 35.8945V35.7715C117.438 35.3105 117.371 34.8848 117.238 34.4941C117.105 34.0996 116.914 33.7578 116.664 33.4688C116.41 33.1797 116.1 32.9531 115.732 32.7891C115.369 32.625 114.955 32.543 114.49 32.543C114.025 32.543 113.611 32.625 113.248 32.7891C112.885 32.9531 112.578 33.1797 112.328 33.4688C112.074 33.7578 111.881 34.0996 111.748 34.4941C111.615 34.8848 111.549 35.3105 111.549 35.7715ZM112.949 35.8945V35.7715C112.949 35.4941 112.979 35.2285 113.037 34.9746C113.1 34.7207 113.193 34.498 113.318 34.3066C113.447 34.1152 113.607 33.9629 113.799 33.8496C113.994 33.7363 114.225 33.6797 114.49 33.6797C114.76 33.6797 114.99 33.7363 115.182 33.8496C115.377 33.9629 115.537 34.1152 115.662 34.3066C115.787 34.498 115.881 34.7207 115.943 34.9746C116.006 35.2285 116.037 35.4941 116.037 35.7715V35.8945C116.037 36.1797 116.006 36.4492 115.943 36.7031C115.885 36.957 115.793 37.1797 115.668 37.3711C115.543 37.5625 115.383 37.7148 115.188 37.8281C114.992 37.9375 114.764 37.9922 114.502 37.9922C114.232 37.9922 114 37.9375 113.805 37.8281C113.609 37.7148 113.447 37.5625 113.318 37.3711C113.193 37.1797 113.1 36.957 113.037 36.7031C112.979 36.4492 112.949 36.1797 112.949 35.8945ZM119.283 30V31.166H121.287V37.8398H119.283V39H124.621V37.8398H122.699V30H119.283ZM125.963 35.7715V35.8945C125.963 36.3594 126.029 36.7871 126.162 37.1777C126.295 37.5684 126.488 37.9082 126.742 38.1973C126.992 38.4863 127.301 38.7129 127.668 38.877C128.035 39.041 128.451 39.123 128.916 39.123C129.377 39.123 129.789 39.041 130.152 38.877C130.52 38.7129 130.828 38.4863 131.078 38.1973C131.328 37.9082 131.52 37.5684 131.652 37.1777C131.785 36.7871 131.852 36.3594 131.852 35.8945V35.7715C131.852 35.3105 131.785 34.8848 131.652 34.4941C131.52 34.0996 131.328 33.7578 131.078 33.4688C130.824 33.1797 130.514 32.9531 130.146 32.7891C129.783 32.625 129.369 32.543 128.904 32.543C128.439 32.543 128.025 32.625 127.662 32.7891C127.299 32.9531 126.992 33.1797 126.742 33.4688C126.488 33.7578 126.295 34.0996 126.162 34.4941C126.029 34.8848 125.963 35.3105 125.963 35.7715ZM127.363 35.8945V35.7715C127.363 35.4941 127.393 35.2285 127.451 34.9746C127.514 34.7207 127.607 34.498 127.732 34.3066C127.861 34.1152 128.021 33.9629 128.213 33.8496C128.408 33.7363 128.639 33.6797 128.904 33.6797C129.174 33.6797 129.404 33.7363 129.596 33.8496C129.791 33.9629 129.951 34.1152 130.076 34.3066C130.201 34.498 130.295 34.7207 130.357 34.9746C130.42 35.2285 130.451 35.4941 130.451 35.7715V35.8945C130.451 36.1797 130.42 36.4492 130.357 36.7031C130.299 36.957 130.207 37.1797 130.082 37.3711C129.957 37.5625 129.797 37.7148 129.602 37.8281C129.406 37.9375 129.178 37.9922 128.916 37.9922C128.646 37.9922 128.414 37.9375 128.219 37.8281C128.023 37.7148 127.861 37.5625 127.732 37.3711C127.607 37.1797 127.514 36.957 127.451 36.7031C127.393 36.4492 127.363 36.1797 127.363 35.8945ZM137.811 32.543C137.373 32.543 136.973 32.6445 136.609 32.8477C136.25 33.0508 135.941 33.3301 135.684 33.6855L135.678 33.5391L135.619 32.6602H134.307V39H135.707V35.0859C135.781 34.8984 135.873 34.7324 135.982 34.5879C136.092 34.4434 136.225 34.3242 136.381 34.2305C136.525 34.1328 136.691 34.0605 136.879 34.0137C137.066 33.9668 137.277 33.9434 137.512 33.9434C137.719 33.9434 137.926 33.9551 138.133 33.9785C138.344 34.002 138.557 34.0371 138.771 34.084L138.971 32.7012C138.85 32.6582 138.682 32.6211 138.467 32.5898C138.256 32.5586 138.037 32.543 137.811 32.543ZM28.082 101.992C27.7891 101.992 27.5449 101.934 27.3496 101.816C27.1543 101.699 27 101.545 26.8867 101.354C26.7695 101.162 26.6855 100.943 26.6348 100.697C26.5879 100.447 26.5645 100.193 26.5645 99.9355V99.7305C26.5645 99.4766 26.5879 99.2266 26.6348 98.9805C26.6855 98.7344 26.7695 98.5156 26.8867 98.3242C27.0039 98.1328 27.1582 97.9785 27.3496 97.8613C27.5449 97.7402 27.7891 97.6797 28.082 97.6797C28.2734 97.6797 28.4512 97.7129 28.6152 97.7793C28.7832 97.8457 28.9277 97.9355 29.0488 98.0488C29.166 98.1621 29.2559 98.2949 29.3184 98.4473C29.3848 98.5996 29.418 98.7617 29.418 98.9336H30.7363C30.7402 98.582 30.6758 98.2598 30.543 97.9668C30.4141 97.6738 30.2324 97.4219 29.998 97.2109C29.7637 97 29.4824 96.8359 29.1543 96.7188C28.8301 96.6016 28.4766 96.543 28.0938 96.543C27.6094 96.543 27.1836 96.6289 26.8164 96.8008C26.4531 96.9688 26.1484 97.1973 25.9023 97.4863C25.6562 97.7754 25.4707 98.1133 25.3457 98.5C25.2246 98.8867 25.1641 99.2969 25.1641 99.7305V99.9355C25.1641 100.373 25.2266 100.785 25.3516 101.172C25.4766 101.555 25.6602 101.891 25.9023 102.18C26.1484 102.469 26.4531 102.699 26.8164 102.871C27.1836 103.039 27.6113 103.123 28.0996 103.123C28.4512 103.123 28.7852 103.066 29.1016 102.953C29.4219 102.836 29.7051 102.678 29.9512 102.479C30.1934 102.279 30.3848 102.045 30.5254 101.775C30.6699 101.502 30.7402 101.211 30.7363 100.902H29.418C29.418 101.062 29.3809 101.209 29.3066 101.342C29.2363 101.475 29.1406 101.59 29.0195 101.688C28.8945 101.785 28.75 101.861 28.5859 101.916C28.4258 101.967 28.2578 101.992 28.082 101.992ZM32.2715 99.7715V99.8945C32.2715 100.359 32.3379 100.787 32.4707 101.178C32.6035 101.568 32.7969 101.908 33.0508 102.197C33.3008 102.486 33.6094 102.713 33.9766 102.877C34.3438 103.041 34.7598 103.123 35.2246 103.123C35.6855 103.123 36.0977 103.041 36.4609 102.877C36.8281 102.713 37.1367 102.486 37.3867 102.197C37.6367 101.908 37.8281 101.568 37.9609 101.178C38.0938 100.787 38.1602 100.359 38.1602 99.8945V99.7715C38.1602 99.3105 38.0938 98.8848 37.9609 98.4941C37.8281 98.0996 37.6367 97.7578 37.3867 97.4688C37.1328 97.1797 36.8223 96.9531 36.4551 96.7891C36.0918 96.625 35.6777 96.543 35.2129 96.543C34.748 96.543 34.334 96.625 33.9707 96.7891C33.6074 96.9531 33.3008 97.1797 33.0508 97.4688C32.7969 97.7578 32.6035 98.0996 32.4707 98.4941C32.3379 98.8848 32.2715 99.3105 32.2715 99.7715ZM33.6719 99.8945V99.7715C33.6719 99.4941 33.7012 99.2285 33.7598 98.9746C33.8223 98.7207 33.916 98.498 34.041 98.3066C34.1699 98.1152 34.3301 97.9629 34.5215 97.8496C34.7168 97.7363 34.9473 97.6797 35.2129 97.6797C35.4824 97.6797 35.7129 97.7363 35.9043 97.8496C36.0996 97.9629 36.2598 98.1152 36.3848 98.3066C36.5098 98.498 36.6035 98.7207 36.666 98.9746C36.7285 99.2285 36.7598 99.4941 36.7598 99.7715V99.8945C36.7598 100.18 36.7285 100.449 36.666 100.703C36.6074 100.957 36.5156 101.18 36.3906 101.371C36.2656 101.562 36.1055 101.715 35.9102 101.828C35.7148 101.938 35.4863 101.992 35.2246 101.992C34.9551 101.992 34.7227 101.938 34.5273 101.828C34.332 101.715 34.1699 101.562 34.041 101.371C33.916 101.18 33.8223 100.957 33.7598 100.703C33.7012 100.449 33.6719 100.18 33.6719 99.8945ZM40.0059 94V95.166H42.0098V101.84H40.0059V103H45.3438V101.84H43.4219V94H40.0059ZM46.6855 99.7715V99.8945C46.6855 100.359 46.752 100.787 46.8848 101.178C47.0176 101.568 47.2109 101.908 47.4648 102.197C47.7148 102.486 48.0234 102.713 48.3906 102.877C48.7578 103.041 49.1738 103.123 49.6387 103.123C50.0996 103.123 50.5117 103.041 50.875 102.877C51.2422 102.713 51.5508 102.486 51.8008 102.197C52.0508 101.908 52.2422 101.568 52.375 101.178C52.5078 100.787 52.5742 100.359 52.5742 99.8945V99.7715C52.5742 99.3105 52.5078 98.8848 52.375 98.4941C52.2422 98.0996 52.0508 97.7578 51.8008 97.4688C51.5469 97.1797 51.2363 96.9531 50.8691 96.7891C50.5059 96.625 50.0918 96.543 49.627 96.543C49.1621 96.543 48.748 96.625 48.3848 96.7891C48.0215 96.9531 47.7148 97.1797 47.4648 97.4688C47.2109 97.7578 47.0176 98.0996 46.8848 98.4941C46.752 98.8848 46.6855 99.3105 46.6855 99.7715ZM48.0859 99.8945V99.7715C48.0859 99.4941 48.1152 99.2285 48.1738 98.9746C48.2363 98.7207 48.3301 98.498 48.4551 98.3066C48.584 98.1152 48.7441 97.9629 48.9355 97.8496C49.1309 97.7363 49.3613 97.6797 49.627 97.6797C49.8965 97.6797 50.127 97.7363 50.3184 97.8496C50.5137 97.9629 50.6738 98.1152 50.7988 98.3066C50.9238 98.498 51.0176 98.7207 51.0801 98.9746C51.1426 99.2285 51.1738 99.4941 51.1738 99.7715V99.8945C51.1738 100.18 51.1426 100.449 51.0801 100.703C51.0215 100.957 50.9297 101.18 50.8047 101.371C50.6797 101.562 50.5195 101.715 50.3242 101.828C50.1289 101.938 49.9004 101.992 49.6387 101.992C49.3691 101.992 49.1367 101.938 48.9414 101.828C48.7461 101.715 48.584 101.562 48.4551 101.371C48.3301 101.18 48.2363 100.957 48.1738 100.703C48.1152 100.449 48.0859 100.18 48.0859 99.8945ZM58.5332 96.543C58.0957 96.543 57.6953 96.6445 57.332 96.8477C56.9727 97.0508 56.6641 97.3301 56.4062 97.6855L56.4004 97.5391L56.3418 96.6602H55.0293V103H56.4297V99.0859C56.5039 98.8984 56.5957 98.7324 56.7051 98.5879C56.8145 98.4434 56.9473 98.3242 57.1035 98.2305C57.248 98.1328 57.4141 98.0605 57.6016 98.0137C57.7891 97.9668 58 97.9434 58.2344 97.9434C58.4414 97.9434 58.6484 97.9551 58.8555 97.9785C59.0664 98.002 59.2793 98.0371 59.4941 98.084L59.6934 96.7012C59.5723 96.6582 59.4043 96.6211 59.1895 96.5898C58.9785 96.5586 58.7598 96.543 58.5332 96.543ZM28.1348 111.113H26.7285V112.66H25.1934V113.709H26.7285V116.826C26.7285 117.232 26.7812 117.58 26.8867 117.869C26.9961 118.158 27.1465 118.396 27.3379 118.584C27.5293 118.768 27.7578 118.904 28.0234 118.994C28.293 119.08 28.5879 119.123 28.9082 119.123C29.084 119.123 29.2598 119.113 29.4355 119.094C29.6152 119.078 29.7871 119.055 29.9512 119.023C30.1152 118.992 30.2676 118.955 30.4082 118.912C30.5527 118.865 30.6758 118.811 30.7773 118.748L30.625 117.781C30.5547 117.797 30.4668 117.816 30.3613 117.84C30.2598 117.859 30.1484 117.877 30.0273 117.893C29.9102 117.912 29.7871 117.928 29.6582 117.939C29.5293 117.951 29.4043 117.957 29.2832 117.957C29.1152 117.957 28.9609 117.938 28.8203 117.898C28.6797 117.859 28.5586 117.793 28.457 117.699C28.3555 117.609 28.2754 117.486 28.2168 117.33C28.1621 117.17 28.1348 116.973 28.1348 116.738V113.709H30.5195V112.66H28.1348V111.113ZM35.4883 119.117C36.1055 119.117 36.6309 118.996 37.0645 118.754C37.502 118.512 37.8262 118.238 38.0371 117.934L37.2871 117.207C37.0918 117.457 36.8438 117.65 36.543 117.787C36.2422 117.92 35.918 117.986 35.5703 117.986C35.3164 117.986 35.082 117.943 34.8672 117.857C34.6562 117.771 34.4727 117.65 34.3164 117.494C34.1602 117.346 34.0371 117.178 33.9473 116.99C33.8574 116.803 33.791 116.57 33.748 116.293V116.264H38.1426V115.66C38.1426 115.207 38.082 114.789 37.9609 114.406C37.8398 114.023 37.6602 113.693 37.4219 113.416C37.1836 113.143 36.8887 112.93 36.5371 112.777C36.1855 112.621 35.7812 112.543 35.3242 112.543C34.9141 112.543 34.5273 112.621 34.1641 112.777C33.8047 112.93 33.4883 113.148 33.2148 113.434C32.9414 113.719 32.7266 114.062 32.5703 114.465C32.4141 114.867 32.3359 115.316 32.3359 115.812V116.053C32.3359 116.486 32.4102 116.891 32.5586 117.266C32.7109 117.637 32.9258 117.959 33.2031 118.232C33.4805 118.51 33.8125 118.727 34.1992 118.883C34.5898 119.039 35.0195 119.117 35.4883 119.117ZM35.3184 113.68C35.5527 113.68 35.7578 113.721 35.9336 113.803C36.1133 113.881 36.2617 113.986 36.3789 114.119C36.5 114.256 36.5938 114.416 36.6602 114.6C36.7266 114.779 36.7598 114.961 36.7598 115.145V115.238H33.7773C33.8203 114.996 33.8867 114.779 33.9766 114.588C34.0664 114.396 34.1777 114.232 34.3105 114.096C34.4434 113.963 34.5938 113.861 34.7617 113.791C34.9336 113.717 35.1191 113.68 35.3184 113.68ZM42.5195 114.793L41.0195 112.66H39.4785L41.6992 115.783L39.4023 119H40.9551L42.5312 116.785L44.1133 119H45.6602L43.3633 115.783L45.5898 112.66H44.0371L42.5195 114.793ZM49.7559 111.113H48.3496V112.66H46.8145V113.709H48.3496V116.826C48.3496 117.232 48.4023 117.58 48.5078 117.869C48.6172 118.158 48.7676 118.396 48.959 118.584C49.1504 118.768 49.3789 118.904 49.6445 118.994C49.9141 119.08 50.209 119.123 50.5293 119.123C50.7051 119.123 50.8809 119.113 51.0566 119.094C51.2363 119.078 51.4082 119.055 51.5723 119.023C51.7363 118.992 51.8887 118.955 52.0293 118.912C52.1738 118.865 52.2969 118.811 52.3984 118.748L52.2461 117.781C52.1758 117.797 52.0879 117.816 51.9824 117.84C51.8809 117.859 51.7695 117.877 51.6484 117.893C51.5312 117.912 51.4082 117.928 51.2793 117.939C51.1504 117.951 51.0254 117.957 50.9043 117.957C50.7363 117.957 50.582 117.938 50.4414 117.898C50.3008 117.859 50.1797 117.793 50.0781 117.699C49.9766 117.609 49.8965 117.486 49.8379 117.33C49.7832 117.17 49.7559 116.973 49.7559 116.738V113.709H52.1406V112.66H49.7559V111.113ZM59.4531 115.818V114.682H54.7363V115.818H59.4531ZM65.4062 119H66.8359V118.9C66.7578 118.736 66.6973 118.541 66.6543 118.314C66.6152 118.084 66.5957 117.826 66.5957 117.541V114.723C66.5957 114.363 66.5293 114.047 66.3965 113.773C66.2637 113.496 66.0801 113.268 65.8457 113.088C65.6113 112.908 65.332 112.773 65.0078 112.684C64.6875 112.59 64.3418 112.543 63.9707 112.543C63.5566 112.543 63.1875 112.598 62.8633 112.707C62.543 112.812 62.2715 112.957 62.0488 113.141C61.8262 113.32 61.6562 113.527 61.5391 113.762C61.4219 113.996 61.3613 114.24 61.3574 114.494H62.7637C62.7637 114.373 62.7852 114.26 62.8281 114.154C62.875 114.045 62.9453 113.953 63.0391 113.879C63.1328 113.797 63.25 113.732 63.3906 113.686C63.5352 113.639 63.7031 113.615 63.8945 113.615C64.1055 113.615 64.291 113.643 64.4512 113.697C64.6152 113.748 64.7539 113.822 64.8672 113.92C64.9727 114.018 65.0527 114.133 65.1074 114.266C65.166 114.398 65.1953 114.547 65.1953 114.711V115.139H64.1758C63.7188 115.139 63.3086 115.182 62.9453 115.268C62.5859 115.354 62.2832 115.479 62.0371 115.643C61.7715 115.818 61.5684 116.041 61.4277 116.311C61.291 116.576 61.2227 116.883 61.2227 117.23C61.2227 117.5 61.2754 117.752 61.3809 117.986C61.4902 118.217 61.6406 118.414 61.832 118.578C62.0273 118.746 62.2598 118.879 62.5293 118.977C62.8027 119.07 63.1035 119.117 63.4316 119.117C63.6348 119.117 63.8242 119.098 64 119.059C64.1758 119.02 64.3398 118.965 64.4922 118.895C64.6445 118.828 64.7812 118.75 64.9023 118.66C65.0273 118.566 65.1387 118.469 65.2363 118.367C65.2559 118.488 65.2773 118.605 65.3008 118.719C65.3281 118.828 65.3633 118.922 65.4062 119ZM63.7012 117.992C63.5215 117.992 63.3652 117.971 63.2324 117.928C63.0996 117.881 62.9883 117.818 62.8984 117.74C62.8086 117.662 62.7402 117.568 62.6934 117.459C62.6465 117.346 62.623 117.225 62.623 117.096C62.623 116.939 62.6504 116.799 62.7051 116.674C62.7637 116.549 62.8516 116.441 62.9688 116.352C63.1016 116.246 63.2793 116.166 63.502 116.111C63.7246 116.053 63.9883 116.023 64.293 116.023H65.1953V117.195C65.1445 117.297 65.0723 117.395 64.9785 117.488C64.8848 117.582 64.7734 117.666 64.6445 117.74C64.5156 117.814 64.3711 117.875 64.2109 117.922C64.0547 117.969 63.8848 117.992 63.7012 117.992ZM68.834 110V111.166H70.8379V117.84H68.834V119H74.1719V117.84H72.25V110H68.834ZM76.0938 112.66V113.826H78.0449V117.84H76.0938V119H81.3203V117.84H79.457V112.66H76.0938ZM77.916 111.02C77.916 111.168 77.9512 111.299 78.0215 111.412C78.0957 111.521 78.2031 111.598 78.3438 111.641C78.4805 111.684 78.6055 111.693 78.7188 111.67C78.832 111.646 78.9297 111.598 79.0117 111.523C79.1758 111.48 79.3008 111.396 79.3867 111.271C79.4727 111.143 79.502 110.992 79.4746 110.82C79.4551 110.652 79.3789 110.516 79.2461 110.41C79.1172 110.301 78.9473 110.246 78.7363 110.246C78.6113 110.246 78.498 110.266 78.3965 110.305C78.2988 110.34 78.2148 110.391 78.1445 110.457C78.0703 110.527 78.0137 110.611 77.9746 110.709C77.9355 110.803 77.916 110.906 77.916 111.02ZM82.7969 115.783V115.906C82.7969 116.363 82.8555 116.789 82.9727 117.184C83.0938 117.574 83.2656 117.912 83.4883 118.197C83.707 118.486 83.9727 118.713 84.2852 118.877C84.5977 119.037 84.9492 119.117 85.3398 119.117C85.5547 119.117 85.7539 119.094 85.9375 119.047C86.1211 119.004 86.2891 118.939 86.4414 118.854C86.543 118.799 86.6367 118.734 86.7227 118.66C86.8125 118.586 86.8984 118.506 86.9805 118.42V118.859C86.9805 119.098 86.9453 119.311 86.875 119.498C86.8086 119.686 86.7129 119.844 86.5879 119.973C86.4512 120.105 86.2852 120.207 86.0898 120.277C85.8984 120.348 85.6777 120.383 85.4277 120.383C85.2832 120.383 85.1406 120.367 85 120.336C84.8594 120.309 84.7207 120.264 84.584 120.201C84.4473 120.139 84.3125 120.057 84.1797 119.955C84.0508 119.857 83.9297 119.74 83.8164 119.604L83.1543 120.453C83.2949 120.641 83.4629 120.801 83.6582 120.934C83.8535 121.066 84.0586 121.174 84.2734 121.256C84.4883 121.338 84.7031 121.398 84.918 121.438C85.1328 121.477 85.3301 121.496 85.5098 121.496C85.9355 121.496 86.3242 121.436 86.6758 121.314C87.0312 121.197 87.3359 121.025 87.5898 120.799C87.8398 120.568 88.0332 120.287 88.1699 119.955C88.3105 119.627 88.3809 119.25 88.3809 118.824V112.66H87.1094L87.0508 113.299C86.9727 113.205 86.8887 113.119 86.7988 113.041C86.709 112.959 86.6133 112.889 86.5117 112.83C86.3555 112.736 86.1816 112.666 85.9902 112.619C85.7988 112.568 85.5859 112.543 85.3516 112.543C84.957 112.543 84.6016 112.623 84.2852 112.783C83.9727 112.939 83.7051 113.16 83.4824 113.445C83.2637 113.73 83.0938 114.072 82.9727 114.471C82.8555 114.865 82.7969 115.303 82.7969 115.783ZM84.2031 115.906V115.783C84.2031 115.498 84.2324 115.23 84.291 114.98C84.3496 114.727 84.4414 114.504 84.5664 114.312C84.6875 114.121 84.8418 113.971 85.0293 113.861C85.2168 113.752 85.4414 113.697 85.7031 113.697C85.8516 113.697 85.9883 113.715 86.1133 113.75C86.2383 113.781 86.3516 113.826 86.4531 113.885C86.5664 113.947 86.666 114.025 86.752 114.119C86.8418 114.213 86.918 114.318 86.9805 114.436V117.213C86.918 117.326 86.8457 117.43 86.7637 117.523C86.6816 117.617 86.5879 117.697 86.4824 117.764C86.377 117.826 86.2578 117.875 86.125 117.91C85.9961 117.945 85.8516 117.963 85.6914 117.963C85.4336 117.963 85.2109 117.91 85.0234 117.805C84.8359 117.695 84.6816 117.545 84.5605 117.354C84.4355 117.17 84.3438 116.953 84.2852 116.703C84.2305 116.453 84.2031 116.188 84.2031 115.906ZM90.1855 119H91.5859V114.477C91.6484 114.371 91.7207 114.273 91.8027 114.184C91.8848 114.094 91.9727 114.018 92.0664 113.955C92.1875 113.873 92.3223 113.811 92.4707 113.768C92.6191 113.721 92.7793 113.697 92.9512 113.697C93.1582 113.697 93.3418 113.721 93.502 113.768C93.6621 113.811 93.7988 113.885 93.9121 113.99C94.0254 114.096 94.1113 114.236 94.1699 114.412C94.2285 114.588 94.2578 114.807 94.2578 115.068V119H95.6582V115.045C95.6582 114.6 95.6055 114.221 95.5 113.908C95.3945 113.592 95.2461 113.332 95.0547 113.129C94.8633 112.926 94.6328 112.777 94.3633 112.684C94.0938 112.59 93.7969 112.543 93.4727 112.543C93.2266 112.543 92.9922 112.578 92.7695 112.648C92.5469 112.719 92.3418 112.818 92.1543 112.947C92.0371 113.029 91.9258 113.123 91.8203 113.229C91.7188 113.33 91.625 113.441 91.5391 113.562L91.4512 112.66H90.1855V119Z" fill="#ADDB67"/>
<path d="M155.318 30V31.166H157.322V37.8398H155.318V39H160.656V37.8398H158.734V30H155.318ZM162.578 32.6602V33.8262H164.529V37.8398H162.578V39H167.805V37.8398H165.941V32.6602H162.578ZM164.4 31.0195C164.4 31.168 164.436 31.2988 164.506 31.4121C164.58 31.5215 164.688 31.5977 164.828 31.6406C164.965 31.6836 165.09 31.6934 165.203 31.6699C165.316 31.6465 165.414 31.5977 165.496 31.5234C165.66 31.4805 165.785 31.3965 165.871 31.2715C165.957 31.1426 165.986 30.9922 165.959 30.8203C165.939 30.6523 165.863 30.5156 165.73 30.4102C165.602 30.3008 165.432 30.2461 165.221 30.2461C165.096 30.2461 164.982 30.2656 164.881 30.3047C164.783 30.3398 164.699 30.3906 164.629 30.457C164.555 30.5273 164.498 30.6113 164.459 30.709C164.42 30.8027 164.4 30.9062 164.4 31.0195ZM169.281 35.7832V35.9062C169.281 36.3633 169.34 36.7891 169.457 37.1836C169.578 37.5742 169.75 37.9121 169.973 38.1973C170.191 38.4863 170.457 38.7129 170.77 38.877C171.082 39.0371 171.434 39.1172 171.824 39.1172C172.039 39.1172 172.238 39.0938 172.422 39.0469C172.605 39.0039 172.773 38.9395 172.926 38.8535C173.027 38.7988 173.121 38.7344 173.207 38.6602C173.297 38.5859 173.383 38.5059 173.465 38.4199V38.8594C173.465 39.0977 173.43 39.3105 173.359 39.498C173.293 39.6855 173.197 39.8438 173.072 39.9727C172.936 40.1055 172.77 40.207 172.574 40.2773C172.383 40.3477 172.162 40.3828 171.912 40.3828C171.768 40.3828 171.625 40.3672 171.484 40.3359C171.344 40.3086 171.205 40.2637 171.068 40.2012C170.932 40.1387 170.797 40.0566 170.664 39.9551C170.535 39.8574 170.414 39.7402 170.301 39.6035L169.639 40.4531C169.779 40.6406 169.947 40.8008 170.143 40.9336C170.338 41.0664 170.543 41.1738 170.758 41.2559C170.973 41.3379 171.188 41.3984 171.402 41.4375C171.617 41.4766 171.814 41.4961 171.994 41.4961C172.42 41.4961 172.809 41.4355 173.16 41.3145C173.516 41.1973 173.82 41.0254 174.074 40.7988C174.324 40.5684 174.518 40.2871 174.654 39.9551C174.795 39.627 174.865 39.25 174.865 38.8242V32.6602H173.594L173.535 33.2988C173.457 33.2051 173.373 33.1191 173.283 33.041C173.193 32.959 173.098 32.8887 172.996 32.8301C172.84 32.7363 172.666 32.666 172.475 32.6191C172.283 32.5684 172.07 32.543 171.836 32.543C171.441 32.543 171.086 32.623 170.77 32.7832C170.457 32.9395 170.189 33.1602 169.967 33.4453C169.748 33.7305 169.578 34.0723 169.457 34.4707C169.34 34.8652 169.281 35.3027 169.281 35.7832ZM170.688 35.9062V35.7832C170.688 35.498 170.717 35.2305 170.775 34.9805C170.834 34.7266 170.926 34.5039 171.051 34.3125C171.172 34.1211 171.326 33.9707 171.514 33.8613C171.701 33.752 171.926 33.6973 172.188 33.6973C172.336 33.6973 172.473 33.7148 172.598 33.75C172.723 33.7812 172.836 33.8262 172.938 33.8848C173.051 33.9473 173.15 34.0254 173.236 34.1191C173.326 34.2129 173.402 34.3184 173.465 34.4355V37.2129C173.402 37.3262 173.33 37.4297 173.248 37.5234C173.166 37.6172 173.072 37.6973 172.967 37.7637C172.861 37.8262 172.742 37.875 172.609 37.9102C172.48 37.9453 172.336 37.9629 172.176 37.9629C171.918 37.9629 171.695 37.9102 171.508 37.8047C171.32 37.6953 171.166 37.5449 171.045 37.3535C170.92 37.1699 170.828 36.9531 170.77 36.7031C170.715 36.4531 170.688 36.1875 170.688 35.9062ZM178.07 33.5625V30H176.67V39H178.07V34.4121C178.137 34.3105 178.213 34.2188 178.299 34.1367C178.389 34.0547 178.484 33.9844 178.586 33.9258C178.707 33.8516 178.84 33.7949 178.984 33.7559C179.133 33.7168 179.289 33.6973 179.453 33.6973C179.664 33.6973 179.85 33.7266 180.01 33.7852C180.174 33.8398 180.312 33.9258 180.426 34.043C180.535 34.1523 180.617 34.2949 180.672 34.4707C180.73 34.6465 180.76 34.8516 180.76 35.0859V39H182.16V35.0977C182.16 34.6484 182.105 34.2637 181.996 33.9434C181.891 33.6191 181.74 33.3535 181.545 33.1465C181.35 32.9395 181.113 32.7871 180.836 32.6895C180.562 32.5918 180.26 32.543 179.928 32.543C179.689 32.543 179.463 32.5781 179.248 32.6484C179.037 32.7148 178.844 32.8125 178.668 32.9414C178.555 33.0195 178.447 33.1113 178.346 33.2168C178.244 33.3223 178.152 33.4375 178.07 33.5625ZM186.689 31.1133H185.283V32.6602H183.748V33.709H185.283V36.8262C185.283 37.2324 185.336 37.5801 185.441 37.8691C185.551 38.1582 185.701 38.3965 185.893 38.584C186.084 38.7676 186.312 38.9043 186.578 38.9941C186.848 39.0801 187.143 39.123 187.463 39.123C187.639 39.123 187.814 39.1133 187.99 39.0938C188.17 39.0781 188.342 39.0547 188.506 39.0234C188.67 38.9922 188.822 38.9551 188.963 38.9121C189.107 38.8652 189.23 38.8105 189.332 38.748L189.18 37.7812C189.109 37.7969 189.021 37.8164 188.916 37.8398C188.814 37.8594 188.703 37.877 188.582 37.8926C188.465 37.9121 188.342 37.9277 188.213 37.9395C188.084 37.9512 187.959 37.957 187.838 37.957C187.67 37.957 187.516 37.9375 187.375 37.8984C187.234 37.8594 187.113 37.793 187.012 37.6992C186.91 37.6094 186.83 37.4863 186.771 37.3301C186.717 37.1699 186.689 36.9727 186.689 36.7383V33.709H189.074V32.6602H186.689V31.1133ZM196.656 35.8945V35.7715C196.656 35.4121 196.623 35.0723 196.557 34.752C196.494 34.4316 196.4 34.1406 196.275 33.8789C196.182 33.6914 196.072 33.5195 195.947 33.3633C195.826 33.2031 195.688 33.0684 195.531 32.959C195.348 32.8262 195.141 32.7246 194.91 32.6543C194.684 32.5801 194.434 32.543 194.16 32.543C193.953 32.543 193.76 32.5645 193.58 32.6074C193.404 32.6465 193.242 32.707 193.094 32.7891C192.98 32.8516 192.875 32.9238 192.777 33.0059C192.68 33.0879 192.59 33.1797 192.508 33.2812V30H191.107V39H192.373L192.438 38.3086C192.508 38.3945 192.58 38.4746 192.654 38.5488C192.732 38.6191 192.814 38.6855 192.9 38.748C193.068 38.8691 193.258 38.9609 193.469 39.0234C193.68 39.0859 193.914 39.1172 194.172 39.1172C194.426 39.1172 194.66 39.084 194.875 39.0176C195.094 38.9551 195.291 38.8652 195.467 38.748C195.686 38.6035 195.873 38.4219 196.029 38.2031C196.186 37.9844 196.311 37.7402 196.404 37.4707C196.486 37.2441 196.549 36.998 196.592 36.7324C196.635 36.4668 196.656 36.1875 196.656 35.8945ZM195.256 35.7715V35.8945C195.256 36.0703 195.246 36.2402 195.227 36.4043C195.207 36.5684 195.178 36.7207 195.139 36.8613C195.092 37.0488 195.023 37.2188 194.934 37.3711C194.848 37.5195 194.736 37.6426 194.6 37.7402C194.498 37.8105 194.383 37.8672 194.254 37.9102C194.125 37.9492 193.98 37.9688 193.82 37.9688C193.645 37.9688 193.484 37.9473 193.34 37.9043C193.199 37.8574 193.074 37.7949 192.965 37.7168C192.867 37.6426 192.779 37.5586 192.701 37.4648C192.627 37.3672 192.562 37.2598 192.508 37.1426V34.5176C192.555 34.416 192.609 34.3223 192.672 34.2363C192.738 34.1465 192.812 34.0684 192.895 34.002C193.008 33.9043 193.141 33.8301 193.293 33.7793C193.445 33.7246 193.617 33.6973 193.809 33.6973C193.965 33.6973 194.105 33.7148 194.23 33.75C194.355 33.7852 194.467 33.8379 194.564 33.9082C194.713 34.0098 194.83 34.1348 194.916 34.2832C195.006 34.4277 195.078 34.5898 195.133 34.7695C195.172 34.918 195.201 35.0781 195.221 35.25C195.244 35.418 195.256 35.5918 195.256 35.7715ZM198.561 30V31.166H200.564V37.8398H198.561V39H203.898V37.8398H201.977V30H198.561ZM209.652 39H210.924V32.6602H209.518V37.1484C209.463 37.2656 209.396 37.373 209.318 37.4707C209.24 37.5645 209.15 37.6465 209.049 37.7168C208.928 37.7949 208.787 37.8574 208.627 37.9043C208.467 37.9473 208.285 37.9688 208.082 37.9688C207.887 37.9688 207.717 37.9434 207.572 37.8926C207.428 37.8418 207.309 37.7559 207.215 37.6348C207.121 37.5176 207.053 37.3613 207.01 37.166C206.967 36.9668 206.945 36.7207 206.945 36.4277V32.6602H205.545V36.416C205.545 36.8926 205.598 37.3027 205.703 37.6465C205.809 37.9863 205.957 38.2656 206.148 38.4844C206.344 38.7031 206.576 38.8652 206.846 38.9707C207.119 39.0723 207.422 39.123 207.754 39.123C208.133 39.123 208.477 39.0352 208.785 38.8594C209.094 38.6797 209.355 38.4316 209.57 38.1152L209.652 39ZM215.664 39.1172C216.281 39.1172 216.807 38.9961 217.24 38.7539C217.678 38.5117 218.002 38.2383 218.213 37.9336L217.463 37.207C217.268 37.457 217.02 37.6504 216.719 37.7871C216.418 37.9199 216.094 37.9863 215.746 37.9863C215.492 37.9863 215.258 37.9434 215.043 37.8574C214.832 37.7715 214.648 37.6504 214.492 37.4941C214.336 37.3457 214.213 37.1777 214.123 36.9902C214.033 36.8027 213.967 36.5703 213.924 36.293V36.2637H218.318V35.6602C218.318 35.207 218.258 34.7891 218.137 34.4062C218.016 34.0234 217.836 33.6934 217.598 33.416C217.359 33.1426 217.064 32.9297 216.713 32.7773C216.361 32.6211 215.957 32.543 215.5 32.543C215.09 32.543 214.703 32.6211 214.34 32.7773C213.98 32.9297 213.664 33.1484 213.391 33.4336C213.117 33.7188 212.902 34.0625 212.746 34.4648C212.59 34.8672 212.512 35.3164 212.512 35.8125V36.0527C212.512 36.4863 212.586 36.8906 212.734 37.2656C212.887 37.6367 213.102 37.959 213.379 38.2324C213.656 38.5098 213.988 38.7266 214.375 38.8828C214.766 39.0391 215.195 39.1172 215.664 39.1172ZM215.494 33.6797C215.729 33.6797 215.934 33.7207 216.109 33.8027C216.289 33.8809 216.438 33.9863 216.555 34.1191C216.676 34.2559 216.77 34.416 216.836 34.5996C216.902 34.7793 216.936 34.9609 216.936 35.1445V35.2383H213.953C213.996 34.9961 214.062 34.7793 214.152 34.5879C214.242 34.3965 214.354 34.2324 214.486 34.0957C214.619 33.9629 214.77 33.8613 214.938 33.791C215.109 33.7168 215.295 33.6797 215.494 33.6797ZM76.2988 103H77.4883L78.291 99.4023L78.4316 98.6172L78.5781 99.4023L79.3984 103H80.5879L81.8125 96.6602H80.541L79.9727 100.527L79.8613 101.301L79.7266 100.533L78.9004 96.6602H77.9805L77.1543 100.545L77.0254 101.277L76.9258 100.545L76.3398 96.6602H75.0742L76.2988 103ZM84.3789 97.5625V94H82.9785V103H84.3789V98.4121C84.4453 98.3105 84.5215 98.2188 84.6074 98.1367C84.6973 98.0547 84.793 97.9844 84.8945 97.9258C85.0156 97.8516 85.1484 97.7949 85.293 97.7559C85.4414 97.7168 85.5977 97.6973 85.7617 97.6973C85.9727 97.6973 86.1582 97.7266 86.3184 97.7852C86.4824 97.8398 86.6211 97.9258 86.7344 98.043C86.8438 98.1523 86.9258 98.2949 86.9805 98.4707C87.0391 98.6465 87.0684 98.8516 87.0684 99.0859V103H88.4688V99.0977C88.4688 98.6484 88.4141 98.2637 88.3047 97.9434C88.1992 97.6191 88.0488 97.3535 87.8535 97.1465C87.6582 96.9395 87.4219 96.7871 87.1445 96.6895C86.8711 96.5918 86.5684 96.543 86.2363 96.543C85.998 96.543 85.7715 96.5781 85.5566 96.6484C85.3457 96.7148 85.1523 96.8125 84.9766 96.9414C84.8633 97.0195 84.7559 97.1113 84.6543 97.2168C84.5527 97.3223 84.4609 97.4375 84.3789 97.5625ZM90.5078 96.6602V97.8262H92.459V101.84H90.5078V103H95.7344V101.84H93.8711V96.6602H90.5078ZM92.3301 95.0195C92.3301 95.168 92.3652 95.2988 92.4355 95.4121C92.5098 95.5215 92.6172 95.5977 92.7578 95.6406C92.8945 95.6836 93.0195 95.6934 93.1328 95.6699C93.2461 95.6465 93.3438 95.5977 93.4258 95.5234C93.5898 95.4805 93.7148 95.3965 93.8008 95.2715C93.8867 95.1426 93.916 94.9922 93.8887 94.8203C93.8691 94.6523 93.793 94.5156 93.6602 94.4102C93.5312 94.3008 93.3613 94.2461 93.1504 94.2461C93.0254 94.2461 92.9121 94.2656 92.8105 94.3047C92.7129 94.3398 92.6289 94.3906 92.5586 94.457C92.4844 94.5273 92.4277 94.6113 92.3887 94.709C92.3496 94.8027 92.3301 94.9062 92.3301 95.0195ZM100.205 95.1133H98.7988V96.6602H97.2637V97.709H98.7988V100.826C98.7988 101.232 98.8516 101.58 98.957 101.869C99.0664 102.158 99.2168 102.396 99.4082 102.584C99.5996 102.768 99.8281 102.904 100.094 102.994C100.363 103.08 100.658 103.123 100.979 103.123C101.154 103.123 101.33 103.113 101.506 103.094C101.686 103.078 101.857 103.055 102.021 103.023C102.186 102.992 102.338 102.955 102.479 102.912C102.623 102.865 102.746 102.811 102.848 102.748L102.695 101.781C102.625 101.797 102.537 101.816 102.432 101.84C102.33 101.859 102.219 101.877 102.098 101.893C101.98 101.912 101.857 101.928 101.729 101.939C101.6 101.951 101.475 101.957 101.354 101.957C101.186 101.957 101.031 101.938 100.891 101.898C100.75 101.859 100.629 101.793 100.527 101.699C100.426 101.609 100.346 101.486 100.287 101.33C100.232 101.17 100.205 100.973 100.205 100.738V97.709H102.59V96.6602H100.205V95.1133ZM107.559 103.117C108.176 103.117 108.701 102.996 109.135 102.754C109.572 102.512 109.896 102.238 110.107 101.934L109.357 101.207C109.162 101.457 108.914 101.65 108.613 101.787C108.312 101.92 107.988 101.986 107.641 101.986C107.387 101.986 107.152 101.943 106.938 101.857C106.727 101.771 106.543 101.65 106.387 101.494C106.23 101.346 106.107 101.178 106.018 100.99C105.928 100.803 105.861 100.57 105.818 100.293V100.264H110.213V99.6602C110.213 99.207 110.152 98.7891 110.031 98.4062C109.91 98.0234 109.73 97.6934 109.492 97.416C109.254 97.1426 108.959 96.9297 108.607 96.7773C108.256 96.6211 107.852 96.543 107.395 96.543C106.984 96.543 106.598 96.6211 106.234 96.7773C105.875 96.9297 105.559 97.1484 105.285 97.4336C105.012 97.7188 104.797 98.0625 104.641 98.4648C104.484 98.8672 104.406 99.3164 104.406 99.8125V100.053C104.406 100.486 104.48 100.891 104.629 101.266C104.781 101.637 104.996 101.959 105.273 102.232C105.551 102.51 105.883 102.727 106.27 102.883C106.66 103.039 107.09 103.117 107.559 103.117ZM107.389 97.6797C107.623 97.6797 107.828 97.7207 108.004 97.8027C108.184 97.8809 108.332 97.9863 108.449 98.1191C108.57 98.2559 108.664 98.416 108.73 98.5996C108.797 98.7793 108.83 98.9609 108.83 99.1445V99.2383H105.848C105.891 98.9961 105.957 98.7793 106.047 98.5879C106.137 98.3965 106.248 98.2324 106.381 98.0957C106.514 97.9629 106.664 97.8613 106.832 97.791C107.004 97.7168 107.189 97.6797 107.389 97.6797Z" fill="#C792EA"/>
<path d="M114.566 117.992C114.273 117.992 114.029 117.934 113.834 117.816C113.639 117.699 113.484 117.545 113.371 117.354C113.254 117.162 113.17 116.943 113.119 116.697C113.072 116.447 113.049 116.193 113.049 115.936V115.73C113.049 115.477 113.072 115.227 113.119 114.98C113.17 114.734 113.254 114.516 113.371 114.324C113.488 114.133 113.643 113.979 113.834 113.861C114.029 113.74 114.273 113.68 114.566 113.68C114.758 113.68 114.936 113.713 115.1 113.779C115.268 113.846 115.412 113.936 115.533 114.049C115.65 114.162 115.74 114.295 115.803 114.447C115.869 114.6 115.902 114.762 115.902 114.934H117.221C117.225 114.582 117.16 114.26 117.027 113.967C116.898 113.674 116.717 113.422 116.482 113.211C116.248 113 115.967 112.836 115.639 112.719C115.314 112.602 114.961 112.543 114.578 112.543C114.094 112.543 113.668 112.629 113.301 112.801C112.938 112.969 112.633 113.197 112.387 113.486C112.141 113.775 111.955 114.113 111.83 114.5C111.709 114.887 111.648 115.297 111.648 115.73V115.936C111.648 116.373 111.711 116.785 111.836 117.172C111.961 117.555 112.145 117.891 112.387 118.18C112.633 118.469 112.938 118.699 113.301 118.871C113.668 119.039 114.096 119.123 114.584 119.123C114.936 119.123 115.27 119.066 115.586 118.953C115.906 118.836 116.189 118.678 116.436 118.479C116.678 118.279 116.869 118.045 117.01 117.775C117.154 117.502 117.225 117.211 117.221 116.902H115.902C115.902 117.062 115.865 117.209 115.791 117.342C115.721 117.475 115.625 117.59 115.504 117.688C115.379 117.785 115.234 117.861 115.07 117.916C114.91 117.967 114.742 117.992 114.566 117.992ZM121.973 119.117C122.59 119.117 123.115 118.996 123.549 118.754C123.986 118.512 124.311 118.238 124.521 117.934L123.771 117.207C123.576 117.457 123.328 117.65 123.027 117.787C122.727 117.92 122.402 117.986 122.055 117.986C121.801 117.986 121.566 117.943 121.352 117.857C121.141 117.771 120.957 117.65 120.801 117.494C120.645 117.346 120.521 117.178 120.432 116.99C120.342 116.803 120.275 116.57 120.232 116.293V116.264H124.627V115.66C124.627 115.207 124.566 114.789 124.445 114.406C124.324 114.023 124.145 113.693 123.906 113.416C123.668 113.143 123.373 112.93 123.021 112.777C122.67 112.621 122.266 112.543 121.809 112.543C121.398 112.543 121.012 112.621 120.648 112.777C120.289 112.93 119.973 113.148 119.699 113.434C119.426 113.719 119.211 114.062 119.055 114.465C118.898 114.867 118.82 115.316 118.82 115.812V116.053C118.82 116.486 118.895 116.891 119.043 117.266C119.195 117.637 119.41 117.959 119.688 118.232C119.965 118.51 120.297 118.727 120.684 118.883C121.074 119.039 121.504 119.117 121.973 119.117ZM121.803 113.68C122.037 113.68 122.242 113.721 122.418 113.803C122.598 113.881 122.746 113.986 122.863 114.119C122.984 114.256 123.078 114.416 123.145 114.6C123.211 114.779 123.244 114.961 123.244 115.145V115.238H120.262C120.305 114.996 120.371 114.779 120.461 114.588C120.551 114.396 120.662 114.232 120.795 114.096C120.928 113.963 121.078 113.861 121.246 113.791C121.418 113.717 121.604 113.68 121.803 113.68ZM126.221 119H127.621V114.477C127.684 114.371 127.756 114.273 127.838 114.184C127.92 114.094 128.008 114.018 128.102 113.955C128.223 113.873 128.357 113.811 128.506 113.768C128.654 113.721 128.814 113.697 128.986 113.697C129.193 113.697 129.377 113.721 129.537 113.768C129.697 113.811 129.834 113.885 129.947 113.99C130.061 114.096 130.146 114.236 130.205 114.412C130.264 114.588 130.293 114.807 130.293 115.068V119H131.693V115.045C131.693 114.6 131.641 114.221 131.535 113.908C131.43 113.592 131.281 113.332 131.09 113.129C130.898 112.926 130.668 112.777 130.398 112.684C130.129 112.59 129.832 112.543 129.508 112.543C129.262 112.543 129.027 112.578 128.805 112.648C128.582 112.719 128.377 112.818 128.189 112.947C128.072 113.029 127.961 113.123 127.855 113.229C127.754 113.33 127.66 113.441 127.574 113.562L127.486 112.66H126.221V119ZM136.24 111.113H134.834V112.66H133.299V113.709H134.834V116.826C134.834 117.232 134.887 117.58 134.992 117.869C135.102 118.158 135.252 118.396 135.443 118.584C135.635 118.768 135.863 118.904 136.129 118.994C136.398 119.08 136.693 119.123 137.014 119.123C137.189 119.123 137.365 119.113 137.541 119.094C137.721 119.078 137.893 119.055 138.057 119.023C138.221 118.992 138.373 118.955 138.514 118.912C138.658 118.865 138.781 118.811 138.883 118.748L138.73 117.781C138.66 117.797 138.572 117.816 138.467 117.84C138.365 117.859 138.254 117.877 138.133 117.893C138.016 117.912 137.893 117.928 137.764 117.939C137.635 117.951 137.51 117.957 137.389 117.957C137.221 117.957 137.066 117.938 136.926 117.898C136.785 117.859 136.664 117.793 136.562 117.699C136.461 117.609 136.381 117.486 136.322 117.33C136.268 117.17 136.24 116.973 136.24 116.738V113.709H138.625V112.66H136.24V111.113ZM143.594 119.117C144.211 119.117 144.736 118.996 145.17 118.754C145.607 118.512 145.932 118.238 146.143 117.934L145.393 117.207C145.197 117.457 144.949 117.65 144.648 117.787C144.348 117.92 144.023 117.986 143.676 117.986C143.422 117.986 143.188 117.943 142.973 117.857C142.762 117.771 142.578 117.65 142.422 117.494C142.266 117.346 142.143 117.178 142.053 116.99C141.963 116.803 141.896 116.57 141.854 116.293V116.264H146.248V115.66C146.248 115.207 146.188 114.789 146.066 114.406C145.945 114.023 145.766 113.693 145.527 113.416C145.289 113.143 144.994 112.93 144.643 112.777C144.291 112.621 143.887 112.543 143.43 112.543C143.02 112.543 142.633 112.621 142.27 112.777C141.91 112.93 141.594 113.148 141.32 113.434C141.047 113.719 140.832 114.062 140.676 114.465C140.52 114.867 140.441 115.316 140.441 115.812V116.053C140.441 116.486 140.516 116.891 140.664 117.266C140.816 117.637 141.031 117.959 141.309 118.232C141.586 118.51 141.918 118.727 142.305 118.883C142.695 119.039 143.125 119.117 143.594 119.117ZM143.424 113.68C143.658 113.68 143.863 113.721 144.039 113.803C144.219 113.881 144.367 113.986 144.484 114.119C144.605 114.256 144.699 114.416 144.766 114.6C144.832 114.779 144.865 114.961 144.865 115.145V115.238H141.883C141.926 114.996 141.992 114.779 142.082 114.588C142.172 114.396 142.283 114.232 142.416 114.096C142.549 113.963 142.699 113.861 142.867 113.791C143.039 113.717 143.225 113.68 143.424 113.68ZM152.225 112.543C151.787 112.543 151.387 112.645 151.023 112.848C150.664 113.051 150.355 113.33 150.098 113.686L150.092 113.539L150.033 112.66H148.721V119H150.121V115.086C150.195 114.898 150.287 114.732 150.396 114.588C150.506 114.443 150.639 114.324 150.795 114.23C150.939 114.133 151.105 114.061 151.293 114.014C151.48 113.967 151.691 113.943 151.926 113.943C152.133 113.943 152.34 113.955 152.547 113.979C152.758 114.002 152.971 114.037 153.186 114.084L153.385 112.701C153.264 112.658 153.096 112.621 152.881 112.59C152.67 112.559 152.451 112.543 152.225 112.543Z" fill="#FFEB95"/>
</svg>
