<svg width="481" height="140" viewBox="0 0 481 140" fill="none" xmlns="http://www.w3.org/2000/svg">
<rect width="481" height="140" rx="10" fill="#011627"/>
<path d="M11.2305 16.6602V17.8262H13.1816V21.8398H11.2305V23H16.457V21.8398H14.5938V16.6602H11.2305ZM13.0527 15.0195C13.0527 15.168 13.0879 15.2988 13.1582 15.4121C13.2324 15.5215 13.3398 15.5977 13.4805 15.6406C13.6172 15.6836 13.7422 15.6934 13.8555 15.6699C13.9688 15.6465 14.0664 15.5977 14.1484 15.5234C14.3125 15.4805 14.4375 15.3965 14.5234 15.2715C14.6094 15.1426 14.6387 14.9922 14.6113 14.8203C14.5918 14.6523 14.5156 14.5156 14.3828 14.4102C14.2539 14.3008 14.084 14.2461 13.873 14.2461C13.748 14.2461 13.6348 14.2656 13.5332 14.3047C13.4355 14.3398 13.3516 14.3906 13.2812 14.457C13.207 14.5273 13.1504 14.6113 13.1113 14.709C13.0723 14.8027 13.0527 14.9062 13.0527 15.0195ZM19.709 23H21.1152V17.709H23.4648V16.6602H21.1152V16.2734C21.1152 16.0508 21.1426 15.8555 21.1973 15.6875C21.2559 15.5195 21.3418 15.3789 21.4551 15.2656C21.5762 15.1445 21.7305 15.0527 21.918 14.9902C22.1094 14.9277 22.3359 14.8965 22.5977 14.8965C22.8477 14.8965 23.0703 14.9121 23.2656 14.9434C23.4648 14.9746 23.6426 15.0117 23.7988 15.0547L23.9102 13.9355C23.793 13.9121 23.6777 13.8906 23.5645 13.8711C23.4512 13.8477 23.3398 13.8281 23.2305 13.8125C23.0977 13.793 22.9609 13.7773 22.8203 13.7656C22.6836 13.75 22.543 13.7422 22.3984 13.7422C21.9883 13.7422 21.6172 13.7969 21.2852 13.9062C20.957 14.0156 20.6758 14.1758 20.4414 14.3867C20.207 14.6016 20.0254 14.8672 19.8965 15.1836C19.7715 15.4961 19.709 15.8594 19.709 16.2734V16.6602H18.0098V17.709H19.709V23Z" fill="#C792EA"/>
<path d="M70.4805 22.1562C70.4805 22.4258 70.5684 22.6543 70.7441 22.8418C70.9238 23.0254 71.1738 23.1172 71.4941 23.1172C71.8105 23.1172 72.0586 23.0254 72.2383 22.8418C72.4219 22.6582 72.5137 22.4297 72.5137 22.1562C72.5137 21.8828 72.4238 21.6523 72.2441 21.4648C72.0645 21.2734 71.8145 21.1777 71.4941 21.1777C71.1699 21.1777 70.9199 21.2734 70.7441 21.4648C70.5684 21.6562 70.4805 21.8867 70.4805 22.1562ZM70.4805 17.1934C70.4805 17.4629 70.5684 17.6914 70.7441 17.8789C70.9238 18.0625 71.1738 18.1543 71.4941 18.1543C71.8105 18.1543 72.0586 18.0625 72.2383 17.8789C72.4219 17.6953 72.5137 17.4668 72.5137 17.1934C72.5137 16.9199 72.4238 16.6895 72.2441 16.502C72.0645 16.3105 71.8145 16.2148 71.4941 16.2148C71.1699 16.2148 70.9199 16.3105 70.7441 16.502C70.5684 16.6934 70.4805 16.9238 70.4805 17.1934ZM62.5 35.5312V35.6309C62.5 36.1895 62.543 36.7129 62.6289 37.2012C62.7148 37.6855 62.8301 38.1348 62.9746 38.5488C63.1191 38.9668 63.2871 39.3457 63.4785 39.6855C63.6738 40.0293 63.8789 40.334 64.0938 40.5996C64.3086 40.8652 64.5273 41.0898 64.75 41.2734C64.9727 41.4609 65.1875 41.6055 65.3945 41.707L65.6758 40.9219C65.5195 40.8008 65.3633 40.6504 65.207 40.4707C65.0508 40.291 64.9004 40.084 64.7559 39.8496C64.6152 39.6191 64.4844 39.3535 64.3633 39.0527C64.2422 38.752 64.1348 38.4258 64.041 38.0742C63.9668 37.7812 63.9023 37.4258 63.8477 37.0078C63.793 36.5859 63.7656 36.1309 63.7656 35.6426V35.5195C63.7656 35.0195 63.793 34.5547 63.8477 34.125C63.9062 33.6953 63.9844 33.3027 64.082 32.9473C64.1875 32.5684 64.3125 32.2188 64.457 31.8984C64.6055 31.5781 64.7637 31.2988 64.9316 31.0605C65.0527 30.8926 65.1758 30.7422 65.3008 30.6094C65.4258 30.4766 65.5508 30.3633 65.6758 30.2695L65.3945 29.4551C65.1875 29.5566 64.9727 29.7012 64.75 29.8887C64.5273 30.0723 64.3105 30.2969 64.0996 30.5625C63.8848 30.8281 63.6797 31.1328 63.4844 31.4766C63.293 31.8203 63.123 32.1973 62.9746 32.6074C62.8301 33.0254 62.7148 33.4805 62.6289 33.9727C62.543 34.4609 62.5 34.9805 62.5 35.5312ZM267.332 35.6309V35.5312C267.332 34.9727 267.287 34.4551 267.197 33.9785C267.107 33.498 266.99 33.0508 266.846 32.6367C266.701 32.2188 266.531 31.8398 266.336 31.5C266.141 31.1562 265.932 30.8477 265.709 30.5742C265.494 30.3086 265.271 30.082 265.041 29.8945C264.814 29.7031 264.596 29.5566 264.385 29.4551L264.109 30.2402C264.23 30.334 264.354 30.4512 264.479 30.5918C264.607 30.7285 264.73 30.8848 264.848 31.0605C265.016 31.3066 265.176 31.5977 265.328 31.9336C265.484 32.2695 265.617 32.6484 265.727 33.0703C265.809 33.3945 265.877 33.7617 265.932 34.1719C265.986 34.582 266.014 35.0312 266.014 35.5195V35.6426C266.014 36.1152 265.988 36.5547 265.938 36.9609C265.891 37.3672 265.824 37.7422 265.738 38.0859C265.648 38.457 265.537 38.7949 265.404 39.0996C265.275 39.4082 265.137 39.6836 264.988 39.9258C264.848 40.1445 264.703 40.3379 264.555 40.5059C264.406 40.6738 264.258 40.8125 264.109 40.9219L264.385 41.707C264.596 41.6055 264.814 41.4609 265.041 41.2734C265.268 41.0859 265.49 40.8555 265.709 40.582C265.928 40.3164 266.135 40.0117 266.33 39.668C266.525 39.3242 266.697 38.9434 266.846 38.5254C266.994 38.1113 267.111 37.6621 267.197 37.1777C267.287 36.6934 267.332 36.1777 267.332 35.6309Z" fill="white"/>
<path d="M32.7402 18.7695L33.8594 19.0449C33.9336 18.9746 34.0098 18.9102 34.0879 18.8516C34.1699 18.7891 34.2598 18.7344 34.3574 18.6875C34.4512 18.6445 34.5586 18.6094 34.6797 18.582C34.8047 18.5547 34.9512 18.541 35.1191 18.541C35.373 18.541 35.5957 18.584 35.7871 18.6699C35.9785 18.752 36.1387 18.8691 36.2676 19.0215C36.3965 19.1738 36.4922 19.3535 36.5547 19.5605C36.6211 19.7637 36.6543 19.9883 36.6543 20.2344C36.6543 20.4883 36.627 20.7246 36.5723 20.9434C36.5176 21.1582 36.4336 21.3418 36.3203 21.4941C36.207 21.6504 36.0645 21.7715 35.8926 21.8574C35.7207 21.9434 35.5176 21.9863 35.2832 21.9863C34.8848 21.9863 34.5566 21.875 34.2988 21.6523C34.0449 21.4297 33.8926 21.1094 33.8418 20.6914H32.4766C32.5 21.0859 32.5918 21.4355 32.752 21.7402C32.916 22.041 33.125 22.293 33.3789 22.4961C33.6328 22.7031 33.9238 22.8594 34.252 22.9648C34.5801 23.0664 34.9238 23.1172 35.2832 23.1172C35.7559 23.1172 36.166 23.043 36.5137 22.8945C36.8613 22.7461 37.1484 22.543 37.375 22.2852C37.6055 22.0273 37.7754 21.7266 37.8848 21.3828C37.998 21.0352 38.0547 20.666 38.0547 20.2754C38.0547 19.834 37.9961 19.4375 37.8789 19.0859C37.7617 18.7305 37.5918 18.4297 37.3691 18.1836C37.1504 17.9336 36.8809 17.7422 36.5605 17.6094C36.2441 17.4766 35.8848 17.4102 35.4824 17.4102C35.1855 17.4102 34.9219 17.4473 34.6914 17.5215C34.4648 17.5957 34.2812 17.6738 34.1406 17.7559L34.3633 15.7109H37.7852V14.4688H33.2031L32.7402 18.7695ZM66.7891 23V21.8691H62.8164L64.7148 19.8418C64.9648 19.5762 65.1953 19.3184 65.4062 19.0684C65.6211 18.8184 65.8066 18.5703 65.9629 18.3242C66.1152 18.0781 66.2344 17.8301 66.3203 17.5801C66.4102 17.3262 66.4551 17.0645 66.4551 16.7949C66.4551 16.4355 66.3965 16.1074 66.2793 15.8105C66.1621 15.5098 65.9922 15.252 65.7695 15.0371C65.543 14.8223 65.2637 14.6543 64.9316 14.5332C64.6035 14.4121 64.2305 14.3516 63.8125 14.3516C63.3672 14.3516 62.9629 14.4238 62.5996 14.5684C62.2402 14.7129 61.9355 14.9082 61.6855 15.1543C61.4316 15.4004 61.2363 15.6895 61.0996 16.0215C60.9629 16.3496 60.8945 16.6992 60.8945 17.0703H62.3008C62.3008 16.8242 62.332 16.6055 62.3945 16.4141C62.457 16.2188 62.5508 16.0547 62.6758 15.9219C62.7969 15.7891 62.9492 15.6875 63.1328 15.6172C63.3164 15.5469 63.5332 15.5117 63.7832 15.5117C63.9785 15.5117 64.1543 15.5449 64.3105 15.6113C64.4707 15.6777 64.6074 15.7695 64.7207 15.8867C64.834 16.0039 64.9199 16.1445 64.9785 16.3086C65.0371 16.4727 65.0664 16.6543 65.0664 16.8535C65.0664 17.002 65.0449 17.1504 65.002 17.2988C64.9629 17.4434 64.8965 17.5996 64.8027 17.7676C64.7051 17.9355 64.5781 18.1211 64.4219 18.3242C64.2656 18.5234 64.0723 18.75 63.8418 19.0039L61.0645 22.0273V23H66.7891Z" fill="#FF628C"/>
<path d="M47.0195 22.0273L52.252 19.8477V18.7168L47.0195 16.543V17.9258L50.5645 19.1621L50.916 19.2734L50.5586 19.3848L47.0195 20.6387V22.0273Z" fill="#72C7BA"/>
<path d="M25.334 41.4375H26.7344V38.4258C26.8086 38.5078 26.8887 38.584 26.9746 38.6543C27.0605 38.7207 27.1504 38.7832 27.2441 38.8418C27.4043 38.9316 27.5781 39 27.7656 39.0469C27.957 39.0938 28.166 39.1172 28.3926 39.1172C28.791 39.1172 29.1445 39.0352 29.4531 38.8711C29.7617 38.707 30.0215 38.4805 30.2324 38.1914C30.4434 37.9062 30.6016 37.5664 30.707 37.1719C30.8164 36.7773 30.8711 36.3516 30.8711 35.8945V35.7715C30.8711 35.2949 30.8164 34.8594 30.707 34.4648C30.6016 34.0664 30.4434 33.7246 30.2324 33.4395C30.0215 33.1543 29.7598 32.9336 29.4473 32.7773C29.1387 32.6211 28.7812 32.543 28.375 32.543C28.168 32.543 27.9727 32.5664 27.7891 32.6133C27.6055 32.6562 27.4375 32.7188 27.2852 32.8008C27.168 32.8633 27.0586 32.9375 26.957 33.0234C26.8555 33.1094 26.7617 33.2051 26.6758 33.3105L26.623 32.6602H25.334V41.4375ZM29.4707 35.7715V35.8945C29.4707 36.1758 29.4434 36.4434 29.3887 36.6973C29.334 36.9473 29.2461 37.1699 29.125 37.3652C29.0078 37.5566 28.8555 37.709 28.668 37.8223C28.4844 37.9316 28.2617 37.9863 28 37.9863C27.8398 37.9863 27.6934 37.9688 27.5605 37.9336C27.4277 37.8945 27.3086 37.8438 27.2031 37.7812C27.1016 37.7148 27.0117 37.6367 26.9336 37.5469C26.8555 37.457 26.7891 37.3574 26.7344 37.248V34.4297C26.7969 34.3125 26.8691 34.207 26.9512 34.1133C27.0371 34.0195 27.1367 33.9414 27.25 33.8789C27.3477 33.8203 27.459 33.7754 27.584 33.7441C27.709 33.7129 27.8438 33.6973 27.9883 33.6973C28.25 33.6973 28.4746 33.752 28.6621 33.8613C28.8496 33.9707 29.0039 34.1191 29.125 34.3066C29.2422 34.4941 29.3281 34.7148 29.3828 34.9688C29.4414 35.2188 29.4707 35.4863 29.4707 35.7715ZM36.9121 32.543C36.4746 32.543 36.0742 32.6445 35.7109 32.8477C35.3516 33.0508 35.043 33.3301 34.7852 33.6855L34.7793 33.5391L34.7207 32.6602H33.4082V39H34.8086V35.0859C34.8828 34.8984 34.9746 34.7324 35.084 34.5879C35.1934 34.4434 35.3262 34.3242 35.4824 34.2305C35.627 34.1328 35.793 34.0605 35.9805 34.0137C36.168 33.9668 36.3789 33.9434 36.6133 33.9434C36.8203 33.9434 37.0273 33.9551 37.2344 33.9785C37.4453 34.002 37.6582 34.0371 37.873 34.084L38.0723 32.7012C37.9512 32.6582 37.7832 32.6211 37.5684 32.5898C37.3574 32.5586 37.1387 32.543 36.9121 32.543ZM40.0586 32.6602V33.8262H42.0098V37.8398H40.0586V39H45.2852V37.8398H43.4219V32.6602H40.0586ZM41.8809 31.0195C41.8809 31.168 41.916 31.2988 41.9863 31.4121C42.0605 31.5215 42.168 31.5977 42.3086 31.6406C42.4453 31.6836 42.5703 31.6934 42.6836 31.6699C42.7969 31.6465 42.8945 31.5977 42.9766 31.5234C43.1406 31.4805 43.2656 31.3965 43.3516 31.2715C43.4375 31.1426 43.4668 30.9922 43.4395 30.8203C43.4199 30.6523 43.3438 30.5156 43.2109 30.4102C43.082 30.3008 42.9121 30.2461 42.7012 30.2461C42.5762 30.2461 42.4629 30.2656 42.3613 30.3047C42.2637 30.3398 42.1797 30.3906 42.1094 30.457C42.0352 30.5273 41.9785 30.6113 41.9395 30.709C41.9004 30.8027 41.8809 30.9062 41.8809 31.0195ZM46.9434 39H48.3438V34.4766C48.4062 34.3711 48.4785 34.2734 48.5605 34.1836C48.6426 34.0938 48.7305 34.0176 48.8242 33.9551C48.9453 33.873 49.0801 33.8105 49.2285 33.7676C49.377 33.7207 49.5371 33.6973 49.709 33.6973C49.916 33.6973 50.0996 33.7207 50.2598 33.7676C50.4199 33.8105 50.5566 33.8848 50.6699 33.9902C50.7832 34.0957 50.8691 34.2363 50.9277 34.4121C50.9863 34.5879 51.0156 34.8066 51.0156 35.0684V39H52.416V35.0449C52.416 34.5996 52.3633 34.2207 52.2578 33.9082C52.1523 33.5918 52.0039 33.332 51.8125 33.1289C51.6211 32.9258 51.3906 32.7773 51.1211 32.6836C50.8516 32.5898 50.5547 32.543 50.2305 32.543C49.9844 32.543 49.75 32.5781 49.5273 32.6484C49.3047 32.7188 49.0996 32.8184 48.9121 32.9473C48.7949 33.0293 48.6836 33.123 48.5781 33.2285C48.4766 33.3301 48.3828 33.4414 48.2969 33.5625L48.209 32.6602H46.9434V39ZM56.9629 31.1133H55.5566V32.6602H54.0215V33.709H55.5566V36.8262C55.5566 37.2324 55.6094 37.5801 55.7148 37.8691C55.8242 38.1582 55.9746 38.3965 56.166 38.584C56.3574 38.7676 56.5859 38.9043 56.8516 38.9941C57.1211 39.0801 57.416 39.123 57.7363 39.123C57.9121 39.123 58.0879 39.1133 58.2637 39.0938C58.4434 39.0781 58.6152 39.0547 58.7793 39.0234C58.9434 38.9922 59.0957 38.9551 59.2363 38.9121C59.3809 38.8652 59.5039 38.8105 59.6055 38.748L59.4531 37.7812C59.3828 37.7969 59.2949 37.8164 59.1895 37.8398C59.0879 37.8594 58.9766 37.877 58.8555 37.8926C58.7383 37.9121 58.6152 37.9277 58.4863 37.9395C58.3574 37.9512 58.2324 37.957 58.1113 37.957C57.9434 37.957 57.7891 37.9375 57.6484 37.8984C57.5078 37.8594 57.3867 37.793 57.2852 37.6992C57.1836 37.6094 57.1035 37.4863 57.0449 37.3301C56.9902 37.1699 56.9629 36.9727 56.9629 36.7383V33.709H59.3477V32.6602H56.9629V31.1133Z" fill="#7DD8C7"/>
<path d="M70.5566 30.6328V30H69.4844V30.6914V32.9707H70.4043L70.5566 30.6328ZM72.8301 30.6328V30H71.7637V30.6797V32.9707H72.6836L72.8301 30.6328ZM80.8691 35.3672V34.207H77.2598V31.6348H81.3848V30.4688H75.8418V39H77.2598V35.3672H80.8691ZM83.3008 32.6602V33.8262H85.252V37.8398H83.3008V39H88.5273V37.8398H86.6641V32.6602H83.3008ZM85.123 31.0195C85.123 31.168 85.1582 31.2988 85.2285 31.4121C85.3027 31.5215 85.4102 31.5977 85.5508 31.6406C85.6875 31.6836 85.8125 31.6934 85.9258 31.6699C86.0391 31.6465 86.1367 31.5977 86.2188 31.5234C86.3828 31.4805 86.5078 31.3965 86.5938 31.2715C86.6797 31.1426 86.709 30.9922 86.6816 30.8203C86.6621 30.6523 86.5859 30.5156 86.4531 30.4102C86.3242 30.3008 86.1543 30.2461 85.9434 30.2461C85.8184 30.2461 85.7051 30.2656 85.6035 30.3047C85.5059 30.3398 85.4219 30.3906 85.3516 30.457C85.2773 30.5273 85.2207 30.6113 85.1816 30.709C85.1426 30.8027 85.123 30.9062 85.123 31.0195ZM92.2598 39H93.4961L95.9805 32.6602H94.5273L92.9746 37.2598L92.8809 37.6816L92.7871 37.2598L91.2168 32.6602H89.7637L92.2598 39ZM100.352 39.1172C100.969 39.1172 101.494 38.9961 101.928 38.7539C102.365 38.5117 102.689 38.2383 102.9 37.9336L102.15 37.207C101.955 37.457 101.707 37.6504 101.406 37.7871C101.105 37.9199 100.781 37.9863 100.434 37.9863C100.18 37.9863 99.9453 37.9434 99.7305 37.8574C99.5195 37.7715 99.3359 37.6504 99.1797 37.4941C99.0234 37.3457 98.9004 37.1777 98.8105 36.9902C98.7207 36.8027 98.6543 36.5703 98.6113 36.293V36.2637H103.006V35.6602C103.006 35.207 102.945 34.7891 102.824 34.4062C102.703 34.0234 102.523 33.6934 102.285 33.416C102.047 33.1426 101.752 32.9297 101.4 32.7773C101.049 32.6211 100.645 32.543 100.188 32.543C99.7773 32.543 99.3906 32.6211 99.0273 32.7773C98.668 32.9297 98.3516 33.1484 98.0781 33.4336C97.8047 33.7188 97.5898 34.0625 97.4336 34.4648C97.2773 34.8672 97.1992 35.3164 97.1992 35.8125V36.0527C97.1992 36.4863 97.2734 36.8906 97.4219 37.2656C97.5742 37.6367 97.7891 37.959 98.0664 38.2324C98.3438 38.5098 98.6758 38.7266 99.0625 38.8828C99.4531 39.0391 99.8828 39.1172 100.352 39.1172ZM100.182 33.6797C100.416 33.6797 100.621 33.7207 100.797 33.8027C100.977 33.8809 101.125 33.9863 101.242 34.1191C101.363 34.2559 101.457 34.416 101.523 34.5996C101.59 34.7793 101.623 34.9609 101.623 35.1445V35.2383H98.6406C98.6836 34.9961 98.75 34.7793 98.8398 34.5879C98.9297 34.3965 99.041 34.2324 99.1738 34.0957C99.3066 33.9629 99.457 33.8613 99.625 33.791C99.7969 33.7168 99.9824 33.6797 100.182 33.6797ZM112.129 32.6602V33.8262H114.08V37.8398H112.129V39H117.355V37.8398H115.492V32.6602H112.129ZM113.951 31.0195C113.951 31.168 113.986 31.2988 114.057 31.4121C114.131 31.5215 114.238 31.5977 114.379 31.6406C114.516 31.6836 114.641 31.6934 114.754 31.6699C114.867 31.6465 114.965 31.5977 115.047 31.5234C115.211 31.4805 115.336 31.3965 115.422 31.2715C115.508 31.1426 115.537 30.9922 115.51 30.8203C115.49 30.6523 115.414 30.5156 115.281 30.4102C115.152 30.3008 114.982 30.2461 114.771 30.2461C114.646 30.2461 114.533 30.2656 114.432 30.3047C114.334 30.3398 114.25 30.3906 114.18 30.457C114.105 30.5273 114.049 30.6113 114.01 30.709C113.971 30.8027 113.951 30.9062 113.951 31.0195ZM123.156 37.2832C123.156 37.3848 123.133 37.4785 123.086 37.5645C123.043 37.6465 122.977 37.7227 122.887 37.793C122.777 37.8789 122.631 37.9473 122.447 37.998C122.268 38.0488 122.057 38.0742 121.814 38.0742C121.635 38.0742 121.457 38.0566 121.281 38.0215C121.105 37.9824 120.949 37.9199 120.812 37.834C120.672 37.752 120.555 37.6445 120.461 37.5117C120.371 37.375 120.32 37.209 120.309 37.0137H118.949C118.949 37.2754 119.012 37.5332 119.137 37.7871C119.262 38.041 119.445 38.2656 119.688 38.4609C119.926 38.6602 120.221 38.8203 120.572 38.9414C120.928 39.0625 121.334 39.123 121.791 39.123C122.201 39.123 122.574 39.0762 122.91 38.9824C123.246 38.8887 123.535 38.7578 123.777 38.5898C124.016 38.4219 124.199 38.2207 124.328 37.9863C124.461 37.752 124.527 37.4941 124.527 37.2129C124.527 36.9238 124.465 36.6738 124.34 36.4629C124.215 36.252 124.039 36.0684 123.812 35.9121C123.586 35.7637 123.312 35.6387 122.992 35.5371C122.672 35.4355 122.318 35.3496 121.932 35.2793C121.654 35.2324 121.424 35.1797 121.24 35.1211C121.061 35.0625 120.92 34.998 120.818 34.9277C120.709 34.8613 120.633 34.7852 120.59 34.6992C120.547 34.6094 120.525 34.5098 120.525 34.4004C120.525 34.2949 120.551 34.1953 120.602 34.1016C120.652 34.0039 120.729 33.9199 120.83 33.8496C120.932 33.7715 121.061 33.7109 121.217 33.668C121.377 33.6211 121.562 33.5977 121.773 33.5977C122.004 33.5977 122.205 33.6289 122.377 33.6914C122.549 33.75 122.689 33.8301 122.799 33.9316C122.893 34.0176 122.963 34.1152 123.01 34.2246C123.061 34.3301 123.086 34.4414 123.086 34.5586H124.486C124.486 34.2734 124.424 34.0078 124.299 33.7617C124.174 33.5156 123.996 33.3027 123.766 33.123C123.531 32.9434 123.246 32.8027 122.91 32.7012C122.574 32.5957 122.195 32.543 121.773 32.543C121.379 32.543 121.02 32.5938 120.695 32.6953C120.375 32.7969 120.102 32.9355 119.875 33.1113C119.645 33.2871 119.467 33.4922 119.342 33.7266C119.221 33.957 119.16 34.2012 119.16 34.459C119.16 34.7285 119.221 34.9648 119.342 35.168C119.463 35.3672 119.631 35.543 119.846 35.6953C120.064 35.8516 120.324 35.9844 120.625 36.0938C120.93 36.2031 121.266 36.2949 121.633 36.3691C121.926 36.4238 122.17 36.4824 122.365 36.5449C122.561 36.6074 122.719 36.6738 122.84 36.7441C122.953 36.8223 123.033 36.9043 123.08 36.9902C123.131 37.0762 123.156 37.1738 123.156 37.2832ZM133.246 35.7832V35.9062C133.246 36.3633 133.305 36.7891 133.422 37.1836C133.543 37.5742 133.715 37.9121 133.938 38.1973C134.156 38.4863 134.422 38.7129 134.734 38.877C135.047 39.0371 135.398 39.1172 135.789 39.1172C136.004 39.1172 136.203 39.0938 136.387 39.0469C136.57 39.0039 136.738 38.9395 136.891 38.8535C136.992 38.7988 137.086 38.7344 137.172 38.6602C137.262 38.5859 137.348 38.5059 137.43 38.4199V38.8594C137.43 39.0977 137.395 39.3105 137.324 39.498C137.258 39.6855 137.162 39.8438 137.037 39.9727C136.9 40.1055 136.734 40.207 136.539 40.2773C136.348 40.3477 136.127 40.3828 135.877 40.3828C135.732 40.3828 135.59 40.3672 135.449 40.3359C135.309 40.3086 135.17 40.2637 135.033 40.2012C134.896 40.1387 134.762 40.0566 134.629 39.9551C134.5 39.8574 134.379 39.7402 134.266 39.6035L133.604 40.4531C133.744 40.6406 133.912 40.8008 134.107 40.9336C134.303 41.0664 134.508 41.1738 134.723 41.2559C134.938 41.3379 135.152 41.3984 135.367 41.4375C135.582 41.4766 135.779 41.4961 135.959 41.4961C136.385 41.4961 136.773 41.4355 137.125 41.3145C137.48 41.1973 137.785 41.0254 138.039 40.7988C138.289 40.5684 138.482 40.2871 138.619 39.9551C138.76 39.627 138.83 39.25 138.83 38.8242V32.6602H137.559L137.5 33.2988C137.422 33.2051 137.338 33.1191 137.248 33.041C137.158 32.959 137.062 32.8887 136.961 32.8301C136.805 32.7363 136.631 32.666 136.439 32.6191C136.248 32.5684 136.035 32.543 135.801 32.543C135.406 32.543 135.051 32.623 134.734 32.7832C134.422 32.9395 134.154 33.1602 133.932 33.4453C133.713 33.7305 133.543 34.0723 133.422 34.4707C133.305 34.8652 133.246 35.3027 133.246 35.7832ZM134.652 35.9062V35.7832C134.652 35.498 134.682 35.2305 134.74 34.9805C134.799 34.7266 134.891 34.5039 135.016 34.3125C135.137 34.1211 135.291 33.9707 135.479 33.8613C135.666 33.752 135.891 33.6973 136.152 33.6973C136.301 33.6973 136.438 33.7148 136.562 33.75C136.688 33.7812 136.801 33.8262 136.902 33.8848C137.016 33.9473 137.115 34.0254 137.201 34.1191C137.291 34.2129 137.367 34.3184 137.43 34.4355V37.2129C137.367 37.3262 137.295 37.4297 137.213 37.5234C137.131 37.6172 137.037 37.6973 136.932 37.7637C136.826 37.8262 136.707 37.875 136.574 37.9102C136.445 37.9453 136.301 37.9629 136.141 37.9629C135.883 37.9629 135.66 37.9102 135.473 37.8047C135.285 37.6953 135.131 37.5449 135.01 37.3535C134.885 37.1699 134.793 36.9531 134.734 36.7031C134.68 36.4531 134.652 36.1875 134.652 35.9062ZM145.018 32.543C144.58 32.543 144.18 32.6445 143.816 32.8477C143.457 33.0508 143.148 33.3301 142.891 33.6855L142.885 33.5391L142.826 32.6602H141.514V39H142.914V35.0859C142.988 34.8984 143.08 34.7324 143.189 34.5879C143.299 34.4434 143.432 34.3242 143.588 34.2305C143.732 34.1328 143.898 34.0605 144.086 34.0137C144.273 33.9668 144.484 33.9434 144.719 33.9434C144.926 33.9434 145.133 33.9551 145.34 33.9785C145.551 34.002 145.764 34.0371 145.979 34.084L146.178 32.7012C146.057 32.6582 145.889 32.6211 145.674 32.5898C145.463 32.5586 145.244 32.543 145.018 32.543ZM150.801 39.1172C151.418 39.1172 151.943 38.9961 152.377 38.7539C152.814 38.5117 153.139 38.2383 153.35 37.9336L152.6 37.207C152.404 37.457 152.156 37.6504 151.855 37.7871C151.555 37.9199 151.23 37.9863 150.883 37.9863C150.629 37.9863 150.395 37.9434 150.18 37.8574C149.969 37.7715 149.785 37.6504 149.629 37.4941C149.473 37.3457 149.35 37.1777 149.26 36.9902C149.17 36.8027 149.104 36.5703 149.061 36.293V36.2637H153.455V35.6602C153.455 35.207 153.395 34.7891 153.273 34.4062C153.152 34.0234 152.973 33.6934 152.734 33.416C152.496 33.1426 152.201 32.9297 151.85 32.7773C151.498 32.6211 151.094 32.543 150.637 32.543C150.227 32.543 149.84 32.6211 149.477 32.7773C149.117 32.9297 148.801 33.1484 148.527 33.4336C148.254 33.7188 148.039 34.0625 147.883 34.4648C147.727 34.8672 147.648 35.3164 147.648 35.8125V36.0527C147.648 36.4863 147.723 36.8906 147.871 37.2656C148.023 37.6367 148.238 37.959 148.516 38.2324C148.793 38.5098 149.125 38.7266 149.512 38.8828C149.902 39.0391 150.332 39.1172 150.801 39.1172ZM150.631 33.6797C150.865 33.6797 151.07 33.7207 151.246 33.8027C151.426 33.8809 151.574 33.9863 151.691 34.1191C151.812 34.2559 151.906 34.416 151.973 34.5996C152.039 34.7793 152.072 34.9609 152.072 35.1445V35.2383H149.09C149.133 34.9961 149.199 34.7793 149.289 34.5879C149.379 34.3965 149.49 34.2324 149.623 34.0957C149.756 33.9629 149.906 33.8613 150.074 33.791C150.246 33.7168 150.432 33.6797 150.631 33.6797ZM159.098 39H160.527V38.9004C160.449 38.7363 160.389 38.541 160.346 38.3145C160.307 38.084 160.287 37.8262 160.287 37.541V34.7227C160.287 34.3633 160.221 34.0469 160.088 33.7734C159.955 33.4961 159.771 33.2676 159.537 33.0879C159.303 32.9082 159.023 32.7734 158.699 32.6836C158.379 32.5898 158.033 32.543 157.662 32.543C157.248 32.543 156.879 32.5977 156.555 32.707C156.234 32.8125 155.963 32.957 155.74 33.1406C155.518 33.3203 155.348 33.5273 155.23 33.7617C155.113 33.9961 155.053 34.2402 155.049 34.4941H156.455C156.455 34.373 156.477 34.2598 156.52 34.1543C156.566 34.0449 156.637 33.9531 156.73 33.8789C156.824 33.7969 156.941 33.7324 157.082 33.6855C157.227 33.6387 157.395 33.6152 157.586 33.6152C157.797 33.6152 157.982 33.6426 158.143 33.6973C158.307 33.748 158.445 33.8223 158.559 33.9199C158.664 34.0176 158.744 34.1328 158.799 34.2656C158.857 34.3984 158.887 34.5469 158.887 34.7109V35.1387H157.867C157.41 35.1387 157 35.1816 156.637 35.2676C156.277 35.3535 155.975 35.4785 155.729 35.6426C155.463 35.8184 155.26 36.041 155.119 36.3105C154.982 36.5762 154.914 36.8828 154.914 37.2305C154.914 37.5 154.967 37.752 155.072 37.9863C155.182 38.2168 155.332 38.4141 155.523 38.5781C155.719 38.7461 155.951 38.8789 156.221 38.9766C156.494 39.0703 156.795 39.1172 157.123 39.1172C157.326 39.1172 157.516 39.0977 157.691 39.0586C157.867 39.0195 158.031 38.9648 158.184 38.8945C158.336 38.8281 158.473 38.75 158.594 38.6602C158.719 38.5664 158.83 38.4688 158.928 38.3672C158.947 38.4883 158.969 38.6055 158.992 38.7188C159.02 38.8281 159.055 38.9219 159.098 39ZM157.393 37.9922C157.213 37.9922 157.057 37.9707 156.924 37.9277C156.791 37.8809 156.68 37.8184 156.59 37.7402C156.5 37.6621 156.432 37.5684 156.385 37.459C156.338 37.3457 156.314 37.2246 156.314 37.0957C156.314 36.9395 156.342 36.7988 156.396 36.6738C156.455 36.5488 156.543 36.4414 156.66 36.3516C156.793 36.2461 156.971 36.166 157.193 36.1113C157.416 36.0527 157.68 36.0234 157.984 36.0234H158.887V37.1953C158.836 37.2969 158.764 37.3945 158.67 37.4883C158.576 37.582 158.465 37.666 158.336 37.7402C158.207 37.8145 158.062 37.875 157.902 37.9219C157.746 37.9688 157.576 37.9922 157.393 37.9922ZM165.068 31.1133H163.662V32.6602H162.127V33.709H163.662V36.8262C163.662 37.2324 163.715 37.5801 163.82 37.8691C163.93 38.1582 164.08 38.3965 164.271 38.584C164.463 38.7676 164.691 38.9043 164.957 38.9941C165.227 39.0801 165.521 39.123 165.842 39.123C166.018 39.123 166.193 39.1133 166.369 39.0938C166.549 39.0781 166.721 39.0547 166.885 39.0234C167.049 38.9922 167.201 38.9551 167.342 38.9121C167.486 38.8652 167.609 38.8105 167.711 38.748L167.559 37.7812C167.488 37.7969 167.4 37.8164 167.295 37.8398C167.193 37.8594 167.082 37.877 166.961 37.8926C166.844 37.9121 166.721 37.9277 166.592 37.9395C166.463 37.9512 166.338 37.957 166.217 37.957C166.049 37.957 165.895 37.9375 165.754 37.8984C165.613 37.8594 165.492 37.793 165.391 37.6992C165.289 37.6094 165.209 37.4863 165.15 37.3301C165.096 37.1699 165.068 36.9727 165.068 36.7383V33.709H167.453V32.6602H165.068V31.1133ZM172.422 39.1172C173.039 39.1172 173.564 38.9961 173.998 38.7539C174.436 38.5117 174.76 38.2383 174.971 37.9336L174.221 37.207C174.025 37.457 173.777 37.6504 173.477 37.7871C173.176 37.9199 172.852 37.9863 172.504 37.9863C172.25 37.9863 172.016 37.9434 171.801 37.8574C171.59 37.7715 171.406 37.6504 171.25 37.4941C171.094 37.3457 170.971 37.1777 170.881 36.9902C170.791 36.8027 170.725 36.5703 170.682 36.293V36.2637H175.076V35.6602C175.076 35.207 175.016 34.7891 174.895 34.4062C174.773 34.0234 174.594 33.6934 174.355 33.416C174.117 33.1426 173.822 32.9297 173.471 32.7773C173.119 32.6211 172.715 32.543 172.258 32.543C171.848 32.543 171.461 32.6211 171.098 32.7773C170.738 32.9297 170.422 33.1484 170.148 33.4336C169.875 33.7188 169.66 34.0625 169.504 34.4648C169.348 34.8672 169.27 35.3164 169.27 35.8125V36.0527C169.27 36.4863 169.344 36.8906 169.492 37.2656C169.645 37.6367 169.859 37.959 170.137 38.2324C170.414 38.5098 170.746 38.7266 171.133 38.8828C171.523 39.0391 171.953 39.1172 172.422 39.1172ZM172.252 33.6797C172.486 33.6797 172.691 33.7207 172.867 33.8027C173.047 33.8809 173.195 33.9863 173.312 34.1191C173.434 34.2559 173.527 34.416 173.594 34.5996C173.66 34.7793 173.693 34.9609 173.693 35.1445V35.2383H170.711C170.754 34.9961 170.82 34.7793 170.91 34.5879C171 34.3965 171.111 34.2324 171.244 34.0957C171.377 33.9629 171.527 33.8613 171.695 33.791C171.867 33.7168 172.053 33.6797 172.252 33.6797ZM181.053 32.543C180.615 32.543 180.215 32.6445 179.852 32.8477C179.492 33.0508 179.184 33.3301 178.926 33.6855L178.92 33.5391L178.861 32.6602H177.549V39H178.949V35.0859C179.023 34.8984 179.115 34.7324 179.225 34.5879C179.334 34.4434 179.467 34.3242 179.623 34.2305C179.768 34.1328 179.934 34.0605 180.121 34.0137C180.309 33.9668 180.52 33.9434 180.754 33.9434C180.961 33.9434 181.168 33.9551 181.375 33.9785C181.586 34.002 181.799 34.0371 182.014 34.084L182.213 32.7012C182.092 32.6582 181.924 32.6211 181.709 32.5898C181.498 32.5586 181.279 32.543 181.053 32.543ZM193.896 31.1133H192.49V32.6602H190.955V33.709H192.49V36.8262C192.49 37.2324 192.543 37.5801 192.648 37.8691C192.758 38.1582 192.908 38.3965 193.1 38.584C193.291 38.7676 193.52 38.9043 193.785 38.9941C194.055 39.0801 194.35 39.123 194.67 39.123C194.846 39.123 195.021 39.1133 195.197 39.0938C195.377 39.0781 195.549 39.0547 195.713 39.0234C195.877 38.9922 196.029 38.9551 196.17 38.9121C196.314 38.8652 196.438 38.8105 196.539 38.748L196.387 37.7812C196.316 37.7969 196.229 37.8164 196.123 37.8398C196.021 37.8594 195.91 37.877 195.789 37.8926C195.672 37.9121 195.549 37.9277 195.42 37.9395C195.291 37.9512 195.166 37.957 195.045 37.957C194.877 37.957 194.723 37.9375 194.582 37.8984C194.441 37.8594 194.32 37.793 194.219 37.6992C194.117 37.6094 194.037 37.4863 193.979 37.3301C193.924 37.1699 193.896 36.9727 193.896 36.7383V33.709H196.281V32.6602H193.896V31.1133ZM199.691 33.5625V30H198.291V39H199.691V34.4121C199.758 34.3105 199.834 34.2188 199.92 34.1367C200.01 34.0547 200.105 33.9844 200.207 33.9258C200.328 33.8516 200.461 33.7949 200.605 33.7559C200.754 33.7168 200.91 33.6973 201.074 33.6973C201.285 33.6973 201.471 33.7266 201.631 33.7852C201.795 33.8398 201.934 33.9258 202.047 34.043C202.156 34.1523 202.238 34.2949 202.293 34.4707C202.352 34.6465 202.381 34.8516 202.381 35.0859V39H203.781V35.0977C203.781 34.6484 203.727 34.2637 203.617 33.9434C203.512 33.6191 203.361 33.3535 203.166 33.1465C202.971 32.9395 202.734 32.7871 202.457 32.6895C202.184 32.5918 201.881 32.543 201.549 32.543C201.311 32.543 201.084 32.5781 200.869 32.6484C200.658 32.7148 200.465 32.8125 200.289 32.9414C200.176 33.0195 200.068 33.1113 199.967 33.2168C199.865 33.3223 199.773 33.4375 199.691 33.5625ZM209.547 39H210.977V38.9004C210.898 38.7363 210.838 38.541 210.795 38.3145C210.756 38.084 210.736 37.8262 210.736 37.541V34.7227C210.736 34.3633 210.67 34.0469 210.537 33.7734C210.404 33.4961 210.221 33.2676 209.986 33.0879C209.752 32.9082 209.473 32.7734 209.148 32.6836C208.828 32.5898 208.482 32.543 208.111 32.543C207.697 32.543 207.328 32.5977 207.004 32.707C206.684 32.8125 206.412 32.957 206.189 33.1406C205.967 33.3203 205.797 33.5273 205.68 33.7617C205.562 33.9961 205.502 34.2402 205.498 34.4941H206.904C206.904 34.373 206.926 34.2598 206.969 34.1543C207.016 34.0449 207.086 33.9531 207.18 33.8789C207.273 33.7969 207.391 33.7324 207.531 33.6855C207.676 33.6387 207.844 33.6152 208.035 33.6152C208.246 33.6152 208.432 33.6426 208.592 33.6973C208.756 33.748 208.895 33.8223 209.008 33.9199C209.113 34.0176 209.193 34.1328 209.248 34.2656C209.307 34.3984 209.336 34.5469 209.336 34.7109V35.1387H208.316C207.859 35.1387 207.449 35.1816 207.086 35.2676C206.727 35.3535 206.424 35.4785 206.178 35.6426C205.912 35.8184 205.709 36.041 205.568 36.3105C205.432 36.5762 205.363 36.8828 205.363 37.2305C205.363 37.5 205.416 37.752 205.521 37.9863C205.631 38.2168 205.781 38.4141 205.973 38.5781C206.168 38.7461 206.4 38.8789 206.67 38.9766C206.943 39.0703 207.244 39.1172 207.572 39.1172C207.775 39.1172 207.965 39.0977 208.141 39.0586C208.316 39.0195 208.48 38.9648 208.633 38.8945C208.785 38.8281 208.922 38.75 209.043 38.6602C209.168 38.5664 209.279 38.4688 209.377 38.3672C209.396 38.4883 209.418 38.6055 209.441 38.7188C209.469 38.8281 209.504 38.9219 209.547 39ZM207.842 37.9922C207.662 37.9922 207.506 37.9707 207.373 37.9277C207.24 37.8809 207.129 37.8184 207.039 37.7402C206.949 37.6621 206.881 37.5684 206.834 37.459C206.787 37.3457 206.764 37.2246 206.764 37.0957C206.764 36.9395 206.791 36.7988 206.846 36.6738C206.904 36.5488 206.992 36.4414 207.109 36.3516C207.242 36.2461 207.42 36.166 207.643 36.1113C207.865 36.0527 208.129 36.0234 208.434 36.0234H209.336V37.1953C209.285 37.2969 209.213 37.3945 209.119 37.4883C209.025 37.582 208.914 37.666 208.785 37.7402C208.656 37.8145 208.512 37.875 208.352 37.9219C208.195 37.9688 208.025 37.9922 207.842 37.9922ZM212.705 39H214.105V34.4766C214.168 34.3711 214.24 34.2734 214.322 34.1836C214.404 34.0938 214.492 34.0176 214.586 33.9551C214.707 33.873 214.842 33.8105 214.99 33.7676C215.139 33.7207 215.299 33.6973 215.471 33.6973C215.678 33.6973 215.861 33.7207 216.021 33.7676C216.182 33.8105 216.318 33.8848 216.432 33.9902C216.545 34.0957 216.631 34.2363 216.689 34.4121C216.748 34.5879 216.777 34.8066 216.777 35.0684V39H218.178V35.0449C218.178 34.5996 218.125 34.2207 218.02 33.9082C217.914 33.5918 217.766 33.332 217.574 33.1289C217.383 32.9258 217.152 32.7773 216.883 32.6836C216.613 32.5898 216.316 32.543 215.992 32.543C215.746 32.543 215.512 32.5781 215.289 32.6484C215.066 32.7188 214.861 32.8184 214.674 32.9473C214.557 33.0293 214.445 33.123 214.34 33.2285C214.238 33.3301 214.145 33.4414 214.059 33.5625L213.971 32.6602H212.705V39ZM229.932 31.1133H228.525V32.6602H226.99V33.709H228.525V36.8262C228.525 37.2324 228.578 37.5801 228.684 37.8691C228.793 38.1582 228.943 38.3965 229.135 38.584C229.326 38.7676 229.555 38.9043 229.82 38.9941C230.09 39.0801 230.385 39.123 230.705 39.123C230.881 39.123 231.057 39.1133 231.232 39.0938C231.412 39.0781 231.584 39.0547 231.748 39.0234C231.912 38.9922 232.064 38.9551 232.205 38.9121C232.35 38.8652 232.473 38.8105 232.574 38.748L232.422 37.7812C232.352 37.7969 232.264 37.8164 232.158 37.8398C232.057 37.8594 231.945 37.877 231.824 37.8926C231.707 37.9121 231.584 37.9277 231.455 37.9395C231.326 37.9512 231.201 37.957 231.08 37.957C230.912 37.957 230.758 37.9375 230.617 37.8984C230.477 37.8594 230.355 37.793 230.254 37.6992C230.152 37.6094 230.072 37.4863 230.014 37.3301C229.959 37.1699 229.932 36.9727 229.932 36.7383V33.709H232.316V32.6602H229.932V31.1133ZM234.854 39H236.043L236.846 35.4023L236.986 34.6172L237.133 35.4023L237.953 39H239.143L240.367 32.6602H239.096L238.527 36.5273L238.416 37.3008L238.281 36.5332L237.455 32.6602H236.535L235.709 36.5449L235.58 37.2773L235.48 36.5449L234.895 32.6602H233.629L234.854 39ZM241.275 35.7715V35.8945C241.275 36.3594 241.342 36.7871 241.475 37.1777C241.607 37.5684 241.801 37.9082 242.055 38.1973C242.305 38.4863 242.613 38.7129 242.98 38.877C243.348 39.041 243.764 39.123 244.229 39.123C244.689 39.123 245.102 39.041 245.465 38.877C245.832 38.7129 246.141 38.4863 246.391 38.1973C246.641 37.9082 246.832 37.5684 246.965 37.1777C247.098 36.7871 247.164 36.3594 247.164 35.8945V35.7715C247.164 35.3105 247.098 34.8848 246.965 34.4941C246.832 34.0996 246.641 33.7578 246.391 33.4688C246.137 33.1797 245.826 32.9531 245.459 32.7891C245.096 32.625 244.682 32.543 244.217 32.543C243.752 32.543 243.338 32.625 242.975 32.7891C242.611 32.9531 242.305 33.1797 242.055 33.4688C241.801 33.7578 241.607 34.0996 241.475 34.4941C241.342 34.8848 241.275 35.3105 241.275 35.7715ZM242.676 35.8945V35.7715C242.676 35.4941 242.705 35.2285 242.764 34.9746C242.826 34.7207 242.92 34.498 243.045 34.3066C243.174 34.1152 243.334 33.9629 243.525 33.8496C243.721 33.7363 243.951 33.6797 244.217 33.6797C244.486 33.6797 244.717 33.7363 244.908 33.8496C245.104 33.9629 245.264 34.1152 245.389 34.3066C245.514 34.498 245.607 34.7207 245.67 34.9746C245.732 35.2285 245.764 35.4941 245.764 35.7715V35.8945C245.764 36.1797 245.732 36.4492 245.67 36.7031C245.611 36.957 245.52 37.1797 245.395 37.3711C245.27 37.5625 245.109 37.7148 244.914 37.8281C244.719 37.9375 244.49 37.9922 244.229 37.9922C243.959 37.9922 243.727 37.9375 243.531 37.8281C243.336 37.7148 243.174 37.5625 243.045 37.3711C242.92 37.1797 242.826 36.957 242.764 36.7031C242.705 36.4492 242.676 36.1797 242.676 35.8945ZM252.051 36.1113L252.104 30.4688H250.674L250.732 36.1113H252.051ZM250.562 38.2969C250.562 38.5195 250.635 38.7051 250.779 38.8535C250.924 39.002 251.129 39.0762 251.395 39.0762C251.656 39.0762 251.861 39.002 252.01 38.8535C252.158 38.7051 252.232 38.5195 252.232 38.2969C252.232 38.0703 252.158 37.8809 252.01 37.7285C251.861 37.5762 251.656 37.5 251.395 37.5C251.129 37.5 250.924 37.5762 250.779 37.7285C250.635 37.8809 250.562 38.0703 250.562 38.2969ZM257.939 30.6328V30H256.867V30.6914V32.9707H257.787L257.939 30.6328ZM260.213 30.6328V30H259.146V30.6797V32.9707H260.066L260.213 30.6328Z" fill="#ECC48D"/>
</svg>
