<svg width="481" height="147" viewBox="0 0 481 147" fill="none" xmlns="http://www.w3.org/2000/svg">
<rect width="481" height="147" rx="10" fill="#011627"/>
<path d="M15.3203 20.8027C15.3203 20.9902 15.2793 21.1562 15.1973 21.3008C15.1191 21.4453 15.0137 21.5664 14.8809 21.6641C14.7441 21.7656 14.582 21.8418 14.3945 21.8926C14.2109 21.9434 14.0117 21.9688 13.7969 21.9688C13.543 21.9688 13.3086 21.9375 13.0938 21.875C12.8828 21.8125 12.6992 21.7168 12.543 21.5879C12.3828 21.4629 12.2559 21.3047 12.1621 21.1133C12.0723 20.918 12.0176 20.6895 11.998 20.4277H10.5918C10.5957 20.8418 10.6777 21.207 10.8379 21.5234C11.002 21.8359 11.2227 22.1094 11.5 22.3438C11.8008 22.5938 12.1543 22.7852 12.5605 22.918C12.9668 23.0469 13.3789 23.1113 13.7969 23.1113C14.1914 23.1113 14.5664 23.0625 14.9219 22.9648C15.2773 22.8633 15.5898 22.7129 15.8594 22.5137C16.125 22.3223 16.3359 22.082 16.4922 21.793C16.6523 21.5039 16.7324 21.1699 16.7324 20.791C16.7324 20.3809 16.6406 20.0195 16.457 19.707C16.2773 19.3906 16.0371 19.1191 15.7363 18.8926C15.4941 18.7129 15.2285 18.5605 14.9395 18.4355C14.6543 18.3066 14.3613 18.1992 14.0605 18.1133C13.8223 18.043 13.5938 17.9668 13.375 17.8848C13.1602 17.8027 12.9688 17.707 12.8008 17.5977C12.6367 17.4883 12.5059 17.3613 12.4082 17.2168C12.3105 17.0684 12.2598 16.8965 12.2559 16.7012C12.2559 16.5176 12.293 16.3516 12.3672 16.2031C12.4414 16.0547 12.5449 15.9277 12.6777 15.8223C12.8105 15.7207 12.9668 15.6426 13.1465 15.5879C13.3301 15.5293 13.5293 15.5 13.7441 15.5C13.9902 15.5 14.207 15.5371 14.3945 15.6113C14.5859 15.6816 14.748 15.7793 14.8809 15.9043C15.0098 16.0332 15.1094 16.1875 15.1797 16.3672C15.2539 16.543 15.3008 16.7383 15.3203 16.9531H16.7148C16.7148 16.5664 16.6367 16.2148 16.4805 15.8984C16.3281 15.5781 16.1191 15.3027 15.8535 15.0723C15.5879 14.8457 15.2754 14.6699 14.916 14.5449C14.5605 14.416 14.1758 14.3516 13.7617 14.3516C13.3711 14.3516 12.998 14.4062 12.6426 14.5156C12.291 14.6211 11.9824 14.7754 11.7168 14.9785C11.4512 15.1855 11.2402 15.4355 11.084 15.7285C10.9277 16.0176 10.8496 16.3438 10.8496 16.707C10.8496 17.043 10.916 17.3457 11.0488 17.6152C11.1855 17.8809 11.373 18.1191 11.6113 18.3301C11.8496 18.5371 12.1367 18.7227 12.4727 18.8867C12.8125 19.0508 13.1836 19.1914 13.5859 19.3086C13.8477 19.3828 14.084 19.4668 14.2949 19.5605C14.5098 19.6504 14.6953 19.752 14.8516 19.8652C15 19.9863 15.1152 20.123 15.1973 20.2754C15.2793 20.4277 15.3203 20.6035 15.3203 20.8027ZM23.0957 19.1738V18.0371H19.5684V15.6348H23.6582V14.4688H18.1562V23H23.6875V21.8398H19.5684V19.1738H23.0957ZM26.8223 21.8398V14.4688H25.4102V23H30.8945V21.8398H26.8223ZM37.5098 19.1738V18.0371H33.9824V15.6348H38.0723V14.4688H32.5703V23H38.1016V21.8398H33.9824V19.1738H37.5098ZM45.4609 20.375H44.0488C44.0254 20.6328 43.9746 20.8613 43.8965 21.0605C43.8184 21.2598 43.7148 21.4258 43.5859 21.5586C43.4531 21.6953 43.293 21.7988 43.1055 21.8691C42.918 21.9395 42.7031 21.9746 42.4609 21.9746C42.2578 21.9746 42.0762 21.9473 41.916 21.8926C41.7598 21.834 41.6211 21.75 41.5 21.6406C41.3828 21.5391 41.2812 21.418 41.1953 21.2773C41.1133 21.1367 41.0449 20.9805 40.9902 20.8086C40.9199 20.6016 40.8672 20.373 40.832 20.123C40.8008 19.873 40.7852 19.6055 40.7852 19.3203V18.1426C40.7852 17.9121 40.7969 17.6875 40.8203 17.4688C40.8477 17.2461 40.8867 17.0371 40.9375 16.8418C41.0039 16.6191 41.0879 16.418 41.1895 16.2383C41.2949 16.0547 41.4238 15.9043 41.5762 15.7871C41.6934 15.6973 41.8242 15.627 41.9688 15.5762C42.1172 15.5254 42.2832 15.5 42.4668 15.5C42.7285 15.5 42.9531 15.5391 43.1406 15.6172C43.3281 15.6914 43.4863 15.8008 43.6152 15.9453C43.7402 16.0898 43.8379 16.2656 43.9082 16.4727C43.9824 16.6758 44.0312 16.9043 44.0547 17.1582H45.4609C45.418 16.7324 45.3223 16.3457 45.1738 15.998C45.0293 15.6504 44.8301 15.3535 44.5762 15.1074C44.3262 14.8652 44.0234 14.6777 43.668 14.5449C43.3164 14.4121 42.916 14.3457 42.4668 14.3457C42.1348 14.3457 41.8281 14.3906 41.5469 14.4805C41.2695 14.5703 41.0156 14.6953 40.7852 14.8555C40.543 15.0312 40.3281 15.2441 40.1406 15.4941C39.957 15.7402 39.8066 16.0156 39.6895 16.3203C39.5801 16.5938 39.498 16.8848 39.4434 17.1934C39.3887 17.502 39.3613 17.8223 39.3613 18.1543V19.3203C39.3613 19.668 39.3906 20.002 39.4492 20.3223C39.5078 20.6426 39.5918 20.9395 39.7012 21.2129C39.8145 21.4902 39.9531 21.7461 40.1172 21.9805C40.2852 22.2109 40.4805 22.4082 40.7031 22.5723C40.9336 22.748 41.1953 22.8848 41.4883 22.9824C41.7852 23.0762 42.1094 23.123 42.4609 23.123C42.8906 23.123 43.2812 23.0586 43.6328 22.9297C43.9883 22.7969 44.2949 22.6094 44.5527 22.3672C44.8066 22.1289 45.0117 21.8418 45.168 21.5059C45.3242 21.166 45.4219 20.7891 45.4609 20.375ZM52.9609 15.6348V14.4688H46.3164V15.6348H48.9297V23H50.3301V15.6348H52.9609ZM80.8691 19.3672V18.207H77.2598V15.6348H81.3848V14.4688H75.8418V23H77.2598V19.3672H80.8691ZM85.8086 19.6895L87.4434 23H88.9492V22.9238L87.127 19.3555C87.3613 19.25 87.5742 19.125 87.7656 18.9805C87.957 18.8359 88.1211 18.668 88.2578 18.4766C88.3945 18.2852 88.5 18.0703 88.5742 17.832C88.6523 17.5938 88.6914 17.3281 88.6914 17.0352C88.6914 16.6094 88.6172 16.2383 88.4688 15.9219C88.3203 15.6016 88.1113 15.334 87.8418 15.1191C87.5762 14.9082 87.2578 14.748 86.8867 14.6387C86.5156 14.5293 86.1094 14.4727 85.668 14.4688H82.9609V23H84.3672V19.6895H85.8086ZM84.3672 18.541V15.6172H85.668C85.9102 15.6172 86.1289 15.6484 86.3242 15.7109C86.5195 15.7734 86.6855 15.8633 86.8223 15.9805C86.9707 16.1055 87.082 16.2617 87.1562 16.4492C87.2344 16.6328 87.2734 16.8477 87.2734 17.0938C87.2734 17.3125 87.2383 17.5078 87.168 17.6797C87.0977 17.8516 87 17.9961 86.875 18.1133C86.7344 18.25 86.5625 18.3555 86.3594 18.4297C86.1602 18.5 85.9355 18.5371 85.6855 18.541H84.3672ZM95.9336 19.3027V18.1777C95.9336 17.8223 95.9023 17.4805 95.8398 17.1523C95.7773 16.8203 95.6836 16.5098 95.5586 16.2207C95.4453 15.9512 95.3047 15.7031 95.1367 15.4766C94.9688 15.25 94.7715 15.0527 94.5449 14.8848C94.3184 14.7168 94.0625 14.5859 93.7773 14.4922C93.4922 14.3984 93.1797 14.3516 92.8398 14.3516C92.5039 14.3516 92.1953 14.3984 91.9141 14.4922C91.6367 14.582 91.3887 14.7109 91.1699 14.8789C90.9434 15.0508 90.7461 15.2539 90.5781 15.4883C90.4141 15.7188 90.2754 15.9727 90.1621 16.25C90.0449 16.5391 89.957 16.8457 89.8984 17.1699C89.8398 17.4941 89.8105 17.8301 89.8105 18.1777V19.3027C89.8105 19.6348 89.8379 19.959 89.8926 20.2754C89.9473 20.5879 90.0273 20.8828 90.1328 21.1602C90.2461 21.4492 90.3887 21.7148 90.5605 21.957C90.7324 22.1992 90.9316 22.4062 91.1582 22.5781C91.3809 22.7461 91.6328 22.8789 91.9141 22.9766C92.1992 23.0703 92.5117 23.1172 92.8516 23.1172C93.1797 23.1172 93.4824 23.0723 93.7598 22.9824C94.0371 22.8926 94.2871 22.7695 94.5098 22.6133C94.7441 22.4414 94.9512 22.2363 95.1309 21.998C95.3105 21.7559 95.4609 21.4922 95.582 21.207C95.6953 20.9219 95.7812 20.6191 95.8398 20.2988C95.9023 19.9785 95.9336 19.6465 95.9336 19.3027ZM94.5156 18.166V19.3027C94.5156 19.5098 94.5039 19.7168 94.4805 19.9238C94.4609 20.1309 94.4258 20.3281 94.375 20.5156C94.3203 20.7305 94.2461 20.9277 94.1523 21.1074C94.0625 21.2832 93.9492 21.4355 93.8125 21.5645C93.6953 21.6777 93.5547 21.7676 93.3906 21.834C93.2305 21.9004 93.0508 21.9336 92.8516 21.9336C92.6445 21.9336 92.4609 21.9004 92.3008 21.834C92.1445 21.7637 92.0059 21.6699 91.8848 21.5527C91.7598 21.4277 91.6523 21.2754 91.5625 21.0957C91.4766 20.9121 91.4082 20.7148 91.3574 20.5039C91.3105 20.3164 91.2773 20.1211 91.2578 19.918C91.2383 19.7109 91.2285 19.5059 91.2285 19.3027V18.166C91.2285 17.9551 91.2383 17.7461 91.2578 17.5391C91.2812 17.3281 91.3164 17.1289 91.3633 16.9414C91.4141 16.7227 91.4863 16.5254 91.5801 16.3496C91.6738 16.1699 91.7891 16.0176 91.9258 15.8926C92.0391 15.7832 92.1719 15.6992 92.3242 15.6406C92.4766 15.5781 92.6484 15.5469 92.8398 15.5469C93.0391 15.5469 93.2168 15.5781 93.373 15.6406C93.5293 15.7031 93.668 15.7891 93.7891 15.8984C93.9258 16.0234 94.041 16.1758 94.1348 16.3555C94.2324 16.5312 94.3105 16.7266 94.3691 16.9414C94.4199 17.1289 94.457 17.3262 94.4805 17.5332C94.5039 17.7402 94.5156 17.9512 94.5156 18.166ZM99.0273 14.4688H97.2812V23H98.5996V20.1055L98.5234 16.4375L99.7129 20.3691H100.445L101.758 16.2969L101.676 20.1055V23H103V14.4688H101.248L100.082 18.1191L99.0273 14.4688ZM117.531 20.375H116.119C116.096 20.6328 116.045 20.8613 115.967 21.0605C115.889 21.2598 115.785 21.4258 115.656 21.5586C115.523 21.6953 115.363 21.7988 115.176 21.8691C114.988 21.9395 114.773 21.9746 114.531 21.9746C114.328 21.9746 114.146 21.9473 113.986 21.8926C113.83 21.834 113.691 21.75 113.57 21.6406C113.453 21.5391 113.352 21.418 113.266 21.2773C113.184 21.1367 113.115 20.9805 113.061 20.8086C112.99 20.6016 112.938 20.373 112.902 20.123C112.871 19.873 112.855 19.6055 112.855 19.3203V18.1426C112.855 17.9121 112.867 17.6875 112.891 17.4688C112.918 17.2461 112.957 17.0371 113.008 16.8418C113.074 16.6191 113.158 16.418 113.26 16.2383C113.365 16.0547 113.494 15.9043 113.646 15.7871C113.764 15.6973 113.895 15.627 114.039 15.5762C114.188 15.5254 114.354 15.5 114.537 15.5C114.799 15.5 115.023 15.5391 115.211 15.6172C115.398 15.6914 115.557 15.8008 115.686 15.9453C115.811 16.0898 115.908 16.2656 115.979 16.4727C116.053 16.6758 116.102 16.9043 116.125 17.1582H117.531C117.488 16.7324 117.393 16.3457 117.244 15.998C117.1 15.6504 116.9 15.3535 116.646 15.1074C116.396 14.8652 116.094 14.6777 115.738 14.5449C115.387 14.4121 114.986 14.3457 114.537 14.3457C114.205 14.3457 113.898 14.3906 113.617 14.4805C113.34 14.5703 113.086 14.6953 112.855 14.8555C112.613 15.0312 112.398 15.2441 112.211 15.4941C112.027 15.7402 111.877 16.0156 111.76 16.3203C111.65 16.5938 111.568 16.8848 111.514 17.1934C111.459 17.502 111.432 17.8223 111.432 18.1543V19.3203C111.432 19.668 111.461 20.002 111.52 20.3223C111.578 20.6426 111.662 20.9395 111.771 21.2129C111.885 21.4902 112.023 21.7461 112.188 21.9805C112.355 22.2109 112.551 22.4082 112.773 22.5723C113.004 22.748 113.266 22.8848 113.559 22.9824C113.855 23.0762 114.18 23.123 114.531 23.123C114.961 23.123 115.352 23.0586 115.703 22.9297C116.059 22.7969 116.365 22.6094 116.623 22.3672C116.877 22.1289 117.082 21.8418 117.238 21.5059C117.395 21.166 117.492 20.7891 117.531 20.375ZM123.168 23H124.439V16.6602H123.033V21.1484C122.979 21.2656 122.912 21.373 122.834 21.4707C122.756 21.5645 122.666 21.6465 122.564 21.7168C122.443 21.7949 122.303 21.8574 122.143 21.9043C121.982 21.9473 121.801 21.9688 121.598 21.9688C121.402 21.9688 121.232 21.9434 121.088 21.8926C120.943 21.8418 120.824 21.7559 120.73 21.6348C120.637 21.5176 120.568 21.3613 120.525 21.166C120.482 20.9668 120.461 20.7207 120.461 20.4277V16.6602H119.061V20.416C119.061 20.8926 119.113 21.3027 119.219 21.6465C119.324 21.9863 119.473 22.2656 119.664 22.4844C119.859 22.7031 120.092 22.8652 120.361 22.9707C120.635 23.0723 120.938 23.123 121.27 23.123C121.648 23.123 121.992 23.0352 122.301 22.8594C122.609 22.6797 122.871 22.4316 123.086 22.1152L123.168 23ZM130.363 21.2832C130.363 21.3848 130.34 21.4785 130.293 21.5645C130.25 21.6465 130.184 21.7227 130.094 21.793C129.984 21.8789 129.838 21.9473 129.654 21.998C129.475 22.0488 129.264 22.0742 129.021 22.0742C128.842 22.0742 128.664 22.0566 128.488 22.0215C128.312 21.9824 128.156 21.9199 128.02 21.834C127.879 21.752 127.762 21.6445 127.668 21.5117C127.578 21.375 127.527 21.209 127.516 21.0137H126.156C126.156 21.2754 126.219 21.5332 126.344 21.7871C126.469 22.041 126.652 22.2656 126.895 22.4609C127.133 22.6602 127.428 22.8203 127.779 22.9414C128.135 23.0625 128.541 23.123 128.998 23.123C129.408 23.123 129.781 23.0762 130.117 22.9824C130.453 22.8887 130.742 22.7578 130.984 22.5898C131.223 22.4219 131.406 22.2207 131.535 21.9863C131.668 21.752 131.734 21.4941 131.734 21.2129C131.734 20.9238 131.672 20.6738 131.547 20.4629C131.422 20.252 131.246 20.0684 131.02 19.9121C130.793 19.7637 130.52 19.6387 130.199 19.5371C129.879 19.4355 129.525 19.3496 129.139 19.2793C128.861 19.2324 128.631 19.1797 128.447 19.1211C128.268 19.0625 128.127 18.998 128.025 18.9277C127.916 18.8613 127.84 18.7852 127.797 18.6992C127.754 18.6094 127.732 18.5098 127.732 18.4004C127.732 18.2949 127.758 18.1953 127.809 18.1016C127.859 18.0039 127.936 17.9199 128.037 17.8496C128.139 17.7715 128.268 17.7109 128.424 17.668C128.584 17.6211 128.77 17.5977 128.98 17.5977C129.211 17.5977 129.412 17.6289 129.584 17.6914C129.756 17.75 129.896 17.8301 130.006 17.9316C130.1 18.0176 130.17 18.1152 130.217 18.2246C130.268 18.3301 130.293 18.4414 130.293 18.5586H131.693C131.693 18.2734 131.631 18.0078 131.506 17.7617C131.381 17.5156 131.203 17.3027 130.973 17.123C130.738 16.9434 130.453 16.8027 130.117 16.7012C129.781 16.5957 129.402 16.543 128.98 16.543C128.586 16.543 128.227 16.5938 127.902 16.6953C127.582 16.7969 127.309 16.9355 127.082 17.1113C126.852 17.2871 126.674 17.4922 126.549 17.7266C126.428 17.957 126.367 18.2012 126.367 18.459C126.367 18.7285 126.428 18.9648 126.549 19.168C126.67 19.3672 126.838 19.543 127.053 19.6953C127.271 19.8516 127.531 19.9844 127.832 20.0938C128.137 20.2031 128.473 20.2949 128.84 20.3691C129.133 20.4238 129.377 20.4824 129.572 20.5449C129.768 20.6074 129.926 20.6738 130.047 20.7441C130.16 20.8223 130.24 20.9043 130.287 20.9902C130.338 21.0762 130.363 21.1738 130.363 21.2832ZM136.24 15.1133H134.834V16.6602H133.299V17.709H134.834V20.8262C134.834 21.2324 134.887 21.5801 134.992 21.8691C135.102 22.1582 135.252 22.3965 135.443 22.584C135.635 22.7676 135.863 22.9043 136.129 22.9941C136.398 23.0801 136.693 23.123 137.014 23.123C137.189 23.123 137.365 23.1133 137.541 23.0938C137.721 23.0781 137.893 23.0547 138.057 23.0234C138.221 22.9922 138.373 22.9551 138.514 22.9121C138.658 22.8652 138.781 22.8105 138.883 22.748L138.73 21.7812C138.66 21.7969 138.572 21.8164 138.467 21.8398C138.365 21.8594 138.254 21.877 138.133 21.8926C138.016 21.9121 137.893 21.9277 137.764 21.9395C137.635 21.9512 137.51 21.957 137.389 21.957C137.221 21.957 137.066 21.9375 136.926 21.8984C136.785 21.8594 136.664 21.793 136.562 21.6992C136.461 21.6094 136.381 21.4863 136.322 21.3301C136.268 21.1699 136.24 20.9727 136.24 20.7383V17.709H138.625V16.6602H136.24V15.1133ZM140.377 19.7715V19.8945C140.377 20.3594 140.443 20.7871 140.576 21.1777C140.709 21.5684 140.902 21.9082 141.156 22.1973C141.406 22.4863 141.715 22.7129 142.082 22.877C142.449 23.041 142.865 23.123 143.33 23.123C143.791 23.123 144.203 23.041 144.566 22.877C144.934 22.7129 145.242 22.4863 145.492 22.1973C145.742 21.9082 145.934 21.5684 146.066 21.1777C146.199 20.7871 146.266 20.3594 146.266 19.8945V19.7715C146.266 19.3105 146.199 18.8848 146.066 18.4941C145.934 18.0996 145.742 17.7578 145.492 17.4688C145.238 17.1797 144.928 16.9531 144.561 16.7891C144.197 16.625 143.783 16.543 143.318 16.543C142.854 16.543 142.439 16.625 142.076 16.7891C141.713 16.9531 141.406 17.1797 141.156 17.4688C140.902 17.7578 140.709 18.0996 140.576 18.4941C140.443 18.8848 140.377 19.3105 140.377 19.7715ZM141.777 19.8945V19.7715C141.777 19.4941 141.807 19.2285 141.865 18.9746C141.928 18.7207 142.021 18.498 142.146 18.3066C142.275 18.1152 142.436 17.9629 142.627 17.8496C142.822 17.7363 143.053 17.6797 143.318 17.6797C143.588 17.6797 143.818 17.7363 144.01 17.8496C144.205 17.9629 144.365 18.1152 144.49 18.3066C144.615 18.498 144.709 18.7207 144.771 18.9746C144.834 19.2285 144.865 19.4941 144.865 19.7715V19.8945C144.865 20.1797 144.834 20.4492 144.771 20.7031C144.713 20.957 144.621 21.1797 144.496 21.3711C144.371 21.5625 144.211 21.7148 144.016 21.8281C143.82 21.9375 143.592 21.9922 143.33 21.9922C143.061 21.9922 142.828 21.9375 142.633 21.8281C142.438 21.7148 142.275 21.5625 142.146 21.3711C142.021 21.1797 141.928 20.957 141.865 20.7031C141.807 20.4492 141.777 20.1797 141.777 19.8945ZM148.639 16.6602H147.42V23H148.709V18.1309C148.732 18.0723 148.758 18.0195 148.785 17.9727C148.816 17.9258 148.852 17.8848 148.891 17.8496C148.941 17.7988 149.002 17.7617 149.072 17.7383C149.146 17.7109 149.23 17.6973 149.324 17.6973C149.41 17.6973 149.486 17.709 149.553 17.7324C149.623 17.7559 149.684 17.793 149.734 17.8438C149.785 17.8945 149.822 17.9648 149.846 18.0547C149.873 18.1406 149.887 18.2461 149.887 18.3711V23H151.152V18.2949C151.152 18.2559 151.152 18.2266 151.152 18.207C151.152 18.1836 151.152 18.1641 151.152 18.1484C151.168 18.082 151.191 18.0234 151.223 17.9727C151.254 17.918 151.293 17.8711 151.34 17.832C151.391 17.7891 151.449 17.7559 151.516 17.7324C151.582 17.709 151.662 17.6973 151.756 17.6973C151.838 17.6973 151.914 17.709 151.984 17.7324C152.059 17.7559 152.121 17.793 152.172 17.8438C152.223 17.8984 152.262 17.9707 152.289 18.0605C152.316 18.1465 152.33 18.252 152.33 18.377V23H153.619V18.3887C153.619 18.0566 153.584 17.7734 153.514 17.5391C153.447 17.3008 153.352 17.1074 153.227 16.959C153.102 16.8184 152.953 16.7148 152.781 16.6484C152.613 16.5781 152.428 16.543 152.225 16.543C152.068 16.543 151.924 16.5625 151.791 16.6016C151.662 16.6406 151.545 16.6953 151.439 16.7656C151.357 16.8203 151.281 16.8867 151.211 16.9648C151.141 17.043 151.078 17.127 151.023 17.2168C150.984 17.1191 150.938 17.0332 150.883 16.959C150.828 16.8809 150.766 16.8145 150.695 16.7598C150.605 16.6855 150.498 16.6309 150.373 16.5957C150.248 16.5605 150.107 16.543 149.951 16.543C149.65 16.543 149.393 16.6152 149.178 16.7598C148.967 16.9043 148.801 17.1035 148.68 17.3574L148.639 16.6602ZM158.008 23.1172C158.625 23.1172 159.15 22.9961 159.584 22.7539C160.021 22.5117 160.346 22.2383 160.557 21.9336L159.807 21.207C159.611 21.457 159.363 21.6504 159.062 21.7871C158.762 21.9199 158.438 21.9863 158.09 21.9863C157.836 21.9863 157.602 21.9434 157.387 21.8574C157.176 21.7715 156.992 21.6504 156.836 21.4941C156.68 21.3457 156.557 21.1777 156.467 20.9902C156.377 20.8027 156.311 20.5703 156.268 20.293V20.2637H160.662V19.6602C160.662 19.207 160.602 18.7891 160.48 18.4062C160.359 18.0234 160.18 17.6934 159.941 17.416C159.703 17.1426 159.408 16.9297 159.057 16.7773C158.705 16.6211 158.301 16.543 157.844 16.543C157.434 16.543 157.047 16.6211 156.684 16.7773C156.324 16.9297 156.008 17.1484 155.734 17.4336C155.461 17.7188 155.246 18.0625 155.09 18.4648C154.934 18.8672 154.855 19.3164 154.855 19.8125V20.0527C154.855 20.4863 154.93 20.8906 155.078 21.2656C155.23 21.6367 155.445 21.959 155.723 22.2324C156 22.5098 156.332 22.7266 156.719 22.8828C157.109 23.0391 157.539 23.1172 158.008 23.1172ZM157.838 17.6797C158.072 17.6797 158.277 17.7207 158.453 17.8027C158.633 17.8809 158.781 17.9863 158.898 18.1191C159.02 18.2559 159.113 18.416 159.18 18.5996C159.246 18.7793 159.279 18.9609 159.279 19.1445V19.2383H156.297C156.34 18.9961 156.406 18.7793 156.496 18.5879C156.586 18.3965 156.697 18.2324 156.83 18.0957C156.963 17.9629 157.113 17.8613 157.281 17.791C157.453 17.7168 157.639 17.6797 157.838 17.6797ZM166.639 16.543C166.201 16.543 165.801 16.6445 165.438 16.8477C165.078 17.0508 164.77 17.3301 164.512 17.6855L164.506 17.5391L164.447 16.6602H163.135V23H164.535V19.0859C164.609 18.8984 164.701 18.7324 164.811 18.5879C164.92 18.4434 165.053 18.3242 165.209 18.2305C165.354 18.1328 165.52 18.0605 165.707 18.0137C165.895 17.9668 166.105 17.9434 166.34 17.9434C166.547 17.9434 166.754 17.9551 166.961 17.9785C167.172 18.002 167.385 18.0371 167.6 18.084L167.799 16.7012C167.678 16.6582 167.51 16.6211 167.295 16.5898C167.084 16.5586 166.865 16.543 166.639 16.543ZM173.605 21.2832C173.605 21.3848 173.582 21.4785 173.535 21.5645C173.492 21.6465 173.426 21.7227 173.336 21.793C173.227 21.8789 173.08 21.9473 172.896 21.998C172.717 22.0488 172.506 22.0742 172.264 22.0742C172.084 22.0742 171.906 22.0566 171.73 22.0215C171.555 21.9824 171.398 21.9199 171.262 21.834C171.121 21.752 171.004 21.6445 170.91 21.5117C170.82 21.375 170.77 21.209 170.758 21.0137H169.398C169.398 21.2754 169.461 21.5332 169.586 21.7871C169.711 22.041 169.895 22.2656 170.137 22.4609C170.375 22.6602 170.67 22.8203 171.021 22.9414C171.377 23.0625 171.783 23.123 172.24 23.123C172.65 23.123 173.023 23.0762 173.359 22.9824C173.695 22.8887 173.984 22.7578 174.227 22.5898C174.465 22.4219 174.648 22.2207 174.777 21.9863C174.91 21.752 174.977 21.4941 174.977 21.2129C174.977 20.9238 174.914 20.6738 174.789 20.4629C174.664 20.252 174.488 20.0684 174.262 19.9121C174.035 19.7637 173.762 19.6387 173.441 19.5371C173.121 19.4355 172.768 19.3496 172.381 19.2793C172.104 19.2324 171.873 19.1797 171.689 19.1211C171.51 19.0625 171.369 18.998 171.268 18.9277C171.158 18.8613 171.082 18.7852 171.039 18.6992C170.996 18.6094 170.975 18.5098 170.975 18.4004C170.975 18.2949 171 18.1953 171.051 18.1016C171.102 18.0039 171.178 17.9199 171.279 17.8496C171.381 17.7715 171.51 17.7109 171.666 17.668C171.826 17.6211 172.012 17.5977 172.223 17.5977C172.453 17.5977 172.654 17.6289 172.826 17.6914C172.998 17.75 173.139 17.8301 173.248 17.9316C173.342 18.0176 173.412 18.1152 173.459 18.2246C173.51 18.3301 173.535 18.4414 173.535 18.5586H174.936C174.936 18.2734 174.873 18.0078 174.748 17.7617C174.623 17.5156 174.445 17.3027 174.215 17.123C173.98 16.9434 173.695 16.8027 173.359 16.7012C173.023 16.5957 172.645 16.543 172.223 16.543C171.828 16.543 171.469 16.5938 171.145 16.6953C170.824 16.7969 170.551 16.9355 170.324 17.1113C170.094 17.2871 169.916 17.4922 169.791 17.7266C169.67 17.957 169.609 18.2012 169.609 18.459C169.609 18.7285 169.67 18.9648 169.791 19.168C169.912 19.3672 170.08 19.543 170.295 19.6953C170.514 19.8516 170.773 19.9844 171.074 20.0938C171.379 20.2031 171.715 20.2949 172.082 20.3691C172.375 20.4238 172.619 20.4824 172.814 20.5449C173.01 20.6074 173.168 20.6738 173.289 20.7441C173.402 20.8223 173.482 20.9043 173.529 20.9902C173.58 21.0762 173.605 21.1738 173.605 21.2832ZM11.3828 39H12.7129L13.5684 33.7793L13.6328 33.375L13.6914 33.7793L14.5586 39H15.8887L17.0137 30.4688H15.7012L15.1094 35.707L15.0684 36.0645L15.0098 35.7129L14.1602 30.4688H13.082L12.2617 35.6895L12.2031 36.041L12.1621 35.707L11.5762 30.4688H10.2695L11.3828 39ZM23.5938 39V30.4688H22.2168V34.0371H19.3457V30.4688H17.9746V39H19.3457V35.1973H22.2168V39H23.5938ZM30.3027 35.1738V34.0371H26.7754V31.6348H30.8652V30.4688H25.3633V39H30.8945V37.8398H26.7754V35.1738H30.3027ZM35.3594 35.6895L36.9941 39H38.5V38.9238L36.6777 35.3555C36.9121 35.25 37.125 35.125 37.3164 34.9805C37.5078 34.8359 37.6719 34.668 37.8086 34.4766C37.9453 34.2852 38.0508 34.0703 38.125 33.832C38.2031 33.5938 38.2422 33.3281 38.2422 33.0352C38.2422 32.6094 38.168 32.2383 38.0195 31.9219C37.8711 31.6016 37.6621 31.334 37.3926 31.1191C37.127 30.9082 36.8086 30.748 36.4375 30.6387C36.0664 30.5293 35.6602 30.4727 35.2188 30.4688H32.5117V39H33.918V35.6895H35.3594ZM33.918 34.541V31.6172H35.2188C35.4609 31.6172 35.6797 31.6484 35.875 31.7109C36.0703 31.7734 36.2363 31.8633 36.373 31.9805C36.5215 32.1055 36.6328 32.2617 36.707 32.4492C36.7852 32.6328 36.8242 32.8477 36.8242 33.0938C36.8242 33.3125 36.7891 33.5078 36.7188 33.6797C36.6484 33.8516 36.5508 33.9961 36.4258 34.1133C36.2852 34.25 36.1133 34.3555 35.9102 34.4297C35.7109 34.5 35.4863 34.5371 35.2363 34.541H33.918ZM44.7168 35.1738V34.0371H41.1895V31.6348H45.2793V30.4688H39.7773V39H45.3086V37.8398H41.1895V35.1738H44.7168ZM59.875 36.375H58.4629C58.4395 36.6328 58.3887 36.8613 58.3105 37.0605C58.2324 37.2598 58.1289 37.4258 58 37.5586C57.8672 37.6953 57.707 37.7988 57.5195 37.8691C57.332 37.9395 57.1172 37.9746 56.875 37.9746C56.6719 37.9746 56.4902 37.9473 56.3301 37.8926C56.1738 37.834 56.0352 37.75 55.9141 37.6406C55.7969 37.5391 55.6953 37.418 55.6094 37.2773C55.5273 37.1367 55.459 36.9805 55.4043 36.8086C55.334 36.6016 55.2812 36.373 55.2461 36.123C55.2148 35.873 55.1992 35.6055 55.1992 35.3203V34.1426C55.1992 33.9121 55.2109 33.6875 55.2344 33.4688C55.2617 33.2461 55.3008 33.0371 55.3516 32.8418C55.418 32.6191 55.502 32.418 55.6035 32.2383C55.709 32.0547 55.8379 31.9043 55.9902 31.7871C56.1074 31.6973 56.2383 31.627 56.3828 31.5762C56.5312 31.5254 56.6973 31.5 56.8809 31.5C57.1426 31.5 57.3672 31.5391 57.5547 31.6172C57.7422 31.6914 57.9004 31.8008 58.0293 31.9453C58.1543 32.0898 58.252 32.2656 58.3223 32.4727C58.3965 32.6758 58.4453 32.9043 58.4688 33.1582H59.875C59.832 32.7324 59.7363 32.3457 59.5879 31.998C59.4434 31.6504 59.2441 31.3535 58.9902 31.1074C58.7402 30.8652 58.4375 30.6777 58.082 30.5449C57.7305 30.4121 57.3301 30.3457 56.8809 30.3457C56.5488 30.3457 56.2422 30.3906 55.9609 30.4805C55.6836 30.5703 55.4297 30.6953 55.1992 30.8555C54.957 31.0312 54.7422 31.2441 54.5547 31.4941C54.3711 31.7402 54.2207 32.0156 54.1035 32.3203C53.9941 32.5938 53.9121 32.8848 53.8574 33.1934C53.8027 33.502 53.7754 33.8223 53.7754 34.1543V35.3203C53.7754 35.668 53.8047 36.002 53.8633 36.3223C53.9219 36.6426 54.0059 36.9395 54.1152 37.2129C54.2285 37.4902 54.3672 37.7461 54.5312 37.9805C54.6992 38.2109 54.8945 38.4082 55.1172 38.5723C55.3477 38.748 55.6094 38.8848 55.9023 38.9824C56.1992 39.0762 56.5234 39.123 56.875 39.123C57.3047 39.123 57.6953 39.0586 58.0469 38.9297C58.4023 38.7969 58.709 38.6094 58.9668 38.3672C59.2207 38.1289 59.4258 37.8418 59.582 37.5059C59.7383 37.166 59.8359 36.7891 59.875 36.375ZM61.0996 35.7715V35.8945C61.0996 36.3594 61.166 36.7871 61.2988 37.1777C61.4316 37.5684 61.625 37.9082 61.8789 38.1973C62.1289 38.4863 62.4375 38.7129 62.8047 38.877C63.1719 39.041 63.5879 39.123 64.0527 39.123C64.5137 39.123 64.9258 39.041 65.2891 38.877C65.6562 38.7129 65.9648 38.4863 66.2148 38.1973C66.4648 37.9082 66.6562 37.5684 66.7891 37.1777C66.9219 36.7871 66.9883 36.3594 66.9883 35.8945V35.7715C66.9883 35.3105 66.9219 34.8848 66.7891 34.4941C66.6562 34.0996 66.4648 33.7578 66.2148 33.4688C65.9609 33.1797 65.6504 32.9531 65.2832 32.7891C64.9199 32.625 64.5059 32.543 64.041 32.543C63.5762 32.543 63.1621 32.625 62.7988 32.7891C62.4355 32.9531 62.1289 33.1797 61.8789 33.4688C61.625 33.7578 61.4316 34.0996 61.2988 34.4941C61.166 34.8848 61.0996 35.3105 61.0996 35.7715ZM62.5 35.8945V35.7715C62.5 35.4941 62.5293 35.2285 62.5879 34.9746C62.6504 34.7207 62.7441 34.498 62.8691 34.3066C62.998 34.1152 63.1582 33.9629 63.3496 33.8496C63.5449 33.7363 63.7754 33.6797 64.041 33.6797C64.3105 33.6797 64.541 33.7363 64.7324 33.8496C64.9277 33.9629 65.0879 34.1152 65.2129 34.3066C65.3379 34.498 65.4316 34.7207 65.4941 34.9746C65.5566 35.2285 65.5879 35.4941 65.5879 35.7715V35.8945C65.5879 36.1797 65.5566 36.4492 65.4941 36.7031C65.4355 36.957 65.3438 37.1797 65.2188 37.3711C65.0938 37.5625 64.9336 37.7148 64.7383 37.8281C64.543 37.9375 64.3145 37.9922 64.0527 37.9922C63.7832 37.9922 63.5508 37.9375 63.3555 37.8281C63.1602 37.7148 62.998 37.5625 62.8691 37.3711C62.7441 37.1797 62.6504 36.957 62.5879 36.7031C62.5293 36.4492 62.5 36.1797 62.5 35.8945ZM72.7188 39H73.9902V32.6602H72.584V37.1484C72.5293 37.2656 72.4629 37.373 72.3848 37.4707C72.3066 37.5645 72.2168 37.6465 72.1152 37.7168C71.9941 37.7949 71.8535 37.8574 71.6934 37.9043C71.5332 37.9473 71.3516 37.9688 71.1484 37.9688C70.9531 37.9688 70.7832 37.9434 70.6387 37.8926C70.4941 37.8418 70.375 37.7559 70.2812 37.6348C70.1875 37.5176 70.1191 37.3613 70.0762 37.166C70.0332 36.9668 70.0117 36.7207 70.0117 36.4277V32.6602H68.6113V36.416C68.6113 36.8926 68.6641 37.3027 68.7695 37.6465C68.875 37.9863 69.0234 38.2656 69.2148 38.4844C69.4102 38.7031 69.6426 38.8652 69.9121 38.9707C70.1855 39.0723 70.4883 39.123 70.8203 39.123C71.1992 39.123 71.543 39.0352 71.8516 38.8594C72.1602 38.6797 72.4219 38.4316 72.6367 38.1152L72.7188 39ZM75.7715 39H77.1719V34.4766C77.2344 34.3711 77.3066 34.2734 77.3887 34.1836C77.4707 34.0938 77.5586 34.0176 77.6523 33.9551C77.7734 33.873 77.9082 33.8105 78.0566 33.7676C78.2051 33.7207 78.3652 33.6973 78.5371 33.6973C78.7441 33.6973 78.9277 33.7207 79.0879 33.7676C79.248 33.8105 79.3848 33.8848 79.498 33.9902C79.6113 34.0957 79.6973 34.2363 79.7559 34.4121C79.8145 34.5879 79.8438 34.8066 79.8438 35.0684V39H81.2441V35.0449C81.2441 34.5996 81.1914 34.2207 81.0859 33.9082C80.9805 33.5918 80.832 33.332 80.6406 33.1289C80.4492 32.9258 80.2188 32.7773 79.9492 32.6836C79.6797 32.5898 79.3828 32.543 79.0586 32.543C78.8125 32.543 78.5781 32.5781 78.3555 32.6484C78.1328 32.7188 77.9277 32.8184 77.7402 32.9473C77.623 33.0293 77.5117 33.123 77.4062 33.2285C77.3047 33.3301 77.2109 33.4414 77.125 33.5625L77.0371 32.6602H75.7715V39ZM85.791 31.1133H84.3848V32.6602H82.8496V33.709H84.3848V36.8262C84.3848 37.2324 84.4375 37.5801 84.543 37.8691C84.6523 38.1582 84.8027 38.3965 84.9941 38.584C85.1855 38.7676 85.4141 38.9043 85.6797 38.9941C85.9492 39.0801 86.2441 39.123 86.5645 39.123C86.7402 39.123 86.916 39.1133 87.0918 39.0938C87.2715 39.0781 87.4434 39.0547 87.6074 39.0234C87.7715 38.9922 87.9238 38.9551 88.0645 38.9121C88.209 38.8652 88.332 38.8105 88.4336 38.748L88.2812 37.7812C88.2109 37.7969 88.123 37.8164 88.0176 37.8398C87.916 37.8594 87.8047 37.877 87.6836 37.8926C87.5664 37.9121 87.4434 37.9277 87.3145 37.9395C87.1855 37.9512 87.0605 37.957 86.9395 37.957C86.7715 37.957 86.6172 37.9375 86.4766 37.8984C86.3359 37.8594 86.2148 37.793 86.1133 37.6992C86.0117 37.6094 85.9316 37.4863 85.873 37.3301C85.8184 37.1699 85.791 36.9727 85.791 36.7383V33.709H88.1758V32.6602H85.791V31.1133ZM94.5684 32.543C94.1309 32.543 93.7305 32.6445 93.3672 32.8477C93.0078 33.0508 92.6992 33.3301 92.4414 33.6855L92.4355 33.5391L92.377 32.6602H91.0645V39H92.4648V35.0859C92.5391 34.8984 92.6309 34.7324 92.7402 34.5879C92.8496 34.4434 92.9824 34.3242 93.1387 34.2305C93.2832 34.1328 93.4492 34.0605 93.6367 34.0137C93.8242 33.9668 94.0352 33.9434 94.2695 33.9434C94.4766 33.9434 94.6836 33.9551 94.8906 33.9785C95.1016 34.002 95.3145 34.0371 95.5293 34.084L95.7285 32.7012C95.6074 32.6582 95.4395 32.6211 95.2246 32.5898C95.0137 32.5586 94.7949 32.543 94.5684 32.543ZM98.1895 41.5605C98.498 41.5605 98.7676 41.5059 98.998 41.3965C99.2285 41.291 99.4277 41.1582 99.5957 40.998C99.7637 40.8418 99.9023 40.6699 100.012 40.4824C100.125 40.2988 100.219 40.125 100.293 39.9609L103.51 32.6602H101.957L100.428 36.5508L100.164 37.2305L99.9473 36.5332L98.3711 32.6602H96.8301L99.5312 38.7188L99.1328 39.4746C99.0898 39.5605 99.043 39.6426 98.9922 39.7207C98.9453 39.7988 98.8828 39.8887 98.8047 39.9902C98.7227 40.0918 98.627 40.1816 98.5176 40.2598C98.4082 40.3418 98.2852 40.3828 98.1484 40.3828C98.0859 40.3828 98.0039 40.3789 97.9023 40.3711C97.8047 40.3672 97.7168 40.3633 97.6387 40.3594L97.4453 41.4551C97.5586 41.4824 97.6777 41.5059 97.8027 41.5254C97.9277 41.5488 98.0566 41.5605 98.1895 41.5605Z" fill="#7DD8C7"/>
<path d="M171.49 33.1934C171.49 33.4629 171.578 33.6914 171.754 33.8789C171.934 34.0625 172.184 34.1543 172.504 34.1543C172.82 34.1543 173.068 34.0625 173.248 33.8789C173.432 33.6953 173.523 33.4668 173.523 33.1934C173.523 32.9199 173.434 32.6895 173.254 32.502C173.074 32.3105 172.824 32.2148 172.504 32.2148C172.18 32.2148 171.93 32.3105 171.754 32.502C171.578 32.6934 171.49 32.9238 171.49 33.1934ZM173.137 38.8184V37.6348H171.76V38.8711C171.76 39.2578 171.713 39.6055 171.619 39.9141C171.529 40.2227 171.4 40.5156 171.232 40.793L172.018 41.209C172.354 40.9082 172.623 40.5391 172.826 40.1016C173.033 39.668 173.137 39.2402 173.137 38.8184Z" fill="white"/>
<path d="M63.625 17.7207L62.0371 19.6367L63.0098 20.3164L64.2461 18.2188L65.4883 20.3809L66.4551 19.666L64.9141 17.7734L67.2051 17.2344L66.8477 16.0859L64.6914 17.0059L64.8965 14.4688H63.7129L63.8945 16.9707L61.7207 16.0332L61.3691 17.1582L63.625 17.7207ZM110.066 34.6465V33.4746H104.652V34.6465H110.066ZM110.066 37.1309V35.9648H104.652V37.1309H110.066Z" fill="#72C7BA"/>
<path d="M114.783 30.7559V30H113.67V30.791V33.0234H114.637L114.783 30.7559ZM120.648 30.4688H118.902V39H120.221V36.1055L120.145 32.4375L121.334 36.3691H122.066L123.379 32.2969L123.297 36.1055V39H124.621V30.4688H122.869L121.703 34.1191L120.648 30.4688ZM129.18 39.1172C129.797 39.1172 130.322 38.9961 130.756 38.7539C131.193 38.5117 131.518 38.2383 131.729 37.9336L130.979 37.207C130.783 37.457 130.535 37.6504 130.234 37.7871C129.934 37.9199 129.609 37.9863 129.262 37.9863C129.008 37.9863 128.773 37.9434 128.559 37.8574C128.348 37.7715 128.164 37.6504 128.008 37.4941C127.852 37.3457 127.729 37.1777 127.639 36.9902C127.549 36.8027 127.482 36.5703 127.439 36.293V36.2637H131.834V35.6602C131.834 35.207 131.773 34.7891 131.652 34.4062C131.531 34.0234 131.352 33.6934 131.113 33.416C130.875 33.1426 130.58 32.9297 130.229 32.7773C129.877 32.6211 129.473 32.543 129.016 32.543C128.605 32.543 128.219 32.6211 127.855 32.7773C127.496 32.9297 127.18 33.1484 126.906 33.4336C126.633 33.7188 126.418 34.0625 126.262 34.4648C126.105 34.8672 126.027 35.3164 126.027 35.8125V36.0527C126.027 36.4863 126.102 36.8906 126.25 37.2656C126.402 37.6367 126.617 37.959 126.895 38.2324C127.172 38.5098 127.504 38.7266 127.891 38.8828C128.281 39.0391 128.711 39.1172 129.18 39.1172ZM129.01 33.6797C129.244 33.6797 129.449 33.7207 129.625 33.8027C129.805 33.8809 129.953 33.9863 130.07 34.1191C130.191 34.2559 130.285 34.416 130.352 34.5996C130.418 34.7793 130.451 34.9609 130.451 35.1445V35.2383H127.469C127.512 34.9961 127.578 34.7793 127.668 34.5879C127.758 34.3965 127.869 34.2324 128.002 34.0957C128.135 33.9629 128.285 33.8613 128.453 33.791C128.625 33.7168 128.811 33.6797 129.01 33.6797ZM136.211 34.793L134.711 32.6602H133.17L135.391 35.7832L133.094 39H134.646L136.223 36.7852L137.805 39H139.352L137.055 35.7832L139.281 32.6602H137.729L136.211 34.793ZM140.957 32.6602V33.8262H142.908V37.8398H140.957V39H146.184V37.8398H144.32V32.6602H140.957ZM142.779 31.0195C142.779 31.168 142.814 31.2988 142.885 31.4121C142.959 31.5215 143.066 31.5977 143.207 31.6406C143.344 31.6836 143.469 31.6934 143.582 31.6699C143.695 31.6465 143.793 31.5977 143.875 31.5234C144.039 31.4805 144.164 31.3965 144.25 31.2715C144.336 31.1426 144.365 30.9922 144.338 30.8203C144.318 30.6523 144.242 30.5156 144.109 30.4102C143.98 30.3008 143.811 30.2461 143.6 30.2461C143.475 30.2461 143.361 30.2656 143.26 30.3047C143.162 30.3398 143.078 30.3906 143.008 30.457C142.934 30.5273 142.877 30.6113 142.838 30.709C142.799 30.8027 142.779 30.9062 142.779 31.0195ZM150.602 37.9922C150.309 37.9922 150.064 37.9336 149.869 37.8164C149.674 37.6992 149.52 37.5449 149.406 37.3535C149.289 37.1621 149.205 36.9434 149.154 36.6973C149.107 36.4473 149.084 36.1934 149.084 35.9355V35.7305C149.084 35.4766 149.107 35.2266 149.154 34.9805C149.205 34.7344 149.289 34.5156 149.406 34.3242C149.523 34.1328 149.678 33.9785 149.869 33.8613C150.064 33.7402 150.309 33.6797 150.602 33.6797C150.793 33.6797 150.971 33.7129 151.135 33.7793C151.303 33.8457 151.447 33.9355 151.568 34.0488C151.686 34.1621 151.775 34.2949 151.838 34.4473C151.904 34.5996 151.938 34.7617 151.938 34.9336H153.256C153.26 34.582 153.195 34.2598 153.062 33.9668C152.934 33.6738 152.752 33.4219 152.518 33.2109C152.283 33 152.002 32.8359 151.674 32.7188C151.35 32.6016 150.996 32.543 150.613 32.543C150.129 32.543 149.703 32.6289 149.336 32.8008C148.973 32.9688 148.668 33.1973 148.422 33.4863C148.176 33.7754 147.99 34.1133 147.865 34.5C147.744 34.8867 147.684 35.2969 147.684 35.7305V35.9355C147.684 36.373 147.746 36.7852 147.871 37.1719C147.996 37.5547 148.18 37.8906 148.422 38.1797C148.668 38.4688 148.973 38.6992 149.336 38.8711C149.703 39.0391 150.131 39.123 150.619 39.123C150.971 39.123 151.305 39.0664 151.621 38.9531C151.941 38.8359 152.225 38.6777 152.471 38.4785C152.713 38.2793 152.904 38.0449 153.045 37.7754C153.189 37.502 153.26 37.2109 153.256 36.9023H151.938C151.938 37.0625 151.9 37.209 151.826 37.3418C151.756 37.4746 151.66 37.5898 151.539 37.6875C151.414 37.7852 151.27 37.8613 151.105 37.916C150.945 37.9668 150.777 37.9922 150.602 37.9922ZM154.791 35.7715V35.8945C154.791 36.3594 154.857 36.7871 154.99 37.1777C155.123 37.5684 155.316 37.9082 155.57 38.1973C155.82 38.4863 156.129 38.7129 156.496 38.877C156.863 39.041 157.279 39.123 157.744 39.123C158.205 39.123 158.617 39.041 158.98 38.877C159.348 38.7129 159.656 38.4863 159.906 38.1973C160.156 37.9082 160.348 37.5684 160.48 37.1777C160.613 36.7871 160.68 36.3594 160.68 35.8945V35.7715C160.68 35.3105 160.613 34.8848 160.48 34.4941C160.348 34.0996 160.156 33.7578 159.906 33.4688C159.652 33.1797 159.342 32.9531 158.975 32.7891C158.611 32.625 158.197 32.543 157.732 32.543C157.268 32.543 156.854 32.625 156.49 32.7891C156.127 32.9531 155.82 33.1797 155.57 33.4688C155.316 33.7578 155.123 34.0996 154.99 34.4941C154.857 34.8848 154.791 35.3105 154.791 35.7715ZM156.191 35.8945V35.7715C156.191 35.4941 156.221 35.2285 156.279 34.9746C156.342 34.7207 156.436 34.498 156.561 34.3066C156.689 34.1152 156.85 33.9629 157.041 33.8496C157.236 33.7363 157.467 33.6797 157.732 33.6797C158.002 33.6797 158.232 33.7363 158.424 33.8496C158.619 33.9629 158.779 34.1152 158.904 34.3066C159.029 34.498 159.123 34.7207 159.186 34.9746C159.248 35.2285 159.279 35.4941 159.279 35.7715V35.8945C159.279 36.1797 159.248 36.4492 159.186 36.7031C159.127 36.957 159.035 37.1797 158.91 37.3711C158.785 37.5625 158.625 37.7148 158.43 37.8281C158.234 37.9375 158.006 37.9922 157.744 37.9922C157.475 37.9922 157.242 37.9375 157.047 37.8281C156.852 37.7148 156.689 37.5625 156.561 37.3711C156.436 37.1797 156.342 36.957 156.279 36.7031C156.221 36.4492 156.191 36.1797 156.191 35.8945ZM165.232 30.7559V30H164.119V30.791V33.0234H165.086L165.232 30.7559Z" fill="#ECC48D"/>
</svg>
