<svg width="490" height="180" viewBox="0 0 490 180" fill="none" xmlns="http://www.w3.org/2000/svg">
<rect width="490" height="180" rx="10" fill="#011627"/>
<path d="M16.041 22.0273V20.627L12.6719 19.4199L12.3145 19.2969L12.6719 19.168L16.041 17.9492V16.5488L10.9492 18.7227V19.8477L16.041 22.0273ZM21.4258 20.1113L21.4785 14.4688H20.0488L20.1074 20.1113H21.4258ZM19.9375 22.2969C19.9375 22.5195 20.0098 22.7051 20.1543 22.8535C20.2988 23.002 20.5039 23.0762 20.7695 23.0762C21.0312 23.0762 21.2363 23.002 21.3848 22.8535C21.5332 22.7051 21.6074 22.5195 21.6074 22.2969C21.6074 22.0703 21.5332 21.8809 21.3848 21.7285C21.2363 21.5762 21.0312 21.5 20.7695 21.5C20.5039 21.5 20.2988 21.5762 20.1543 21.7285C20.0098 21.8809 19.9375 22.0703 19.9375 22.2969ZM25.2227 23H27.3789C27.7695 23 28.1348 22.9531 28.4746 22.8594C28.8184 22.7656 29.1309 22.6309 29.4121 22.4551C29.6621 22.2949 29.8887 22.1016 30.0918 21.875C30.2988 21.6484 30.4746 21.3965 30.6191 21.1191C30.7676 20.834 30.8809 20.5195 30.959 20.1758C31.041 19.8281 31.082 19.4609 31.082 19.0742V18.4062C31.082 18.0039 31.0391 17.625 30.9531 17.2695C30.8672 16.9141 30.7461 16.5879 30.5898 16.291C30.4375 16.0059 30.248 15.748 30.0215 15.5176C29.7988 15.2871 29.543 15.0957 29.2539 14.9434C28.9883 14.7949 28.6934 14.6797 28.3691 14.5977C28.0449 14.5117 27.6992 14.4688 27.332 14.4688H25.2227V23ZM26.6465 15.6172H27.332C27.5586 15.6172 27.7695 15.6426 27.9648 15.6934C28.1602 15.7441 28.3359 15.8145 28.4922 15.9043C28.707 16.0254 28.8926 16.1816 29.0488 16.373C29.2051 16.5645 29.3301 16.7812 29.4238 17.0234C29.498 17.2188 29.5547 17.4316 29.5938 17.6621C29.6328 17.8926 29.6523 18.1367 29.6523 18.3945V19.0742C29.6523 19.3359 29.6328 19.582 29.5938 19.8125C29.5547 20.043 29.498 20.2559 29.4238 20.4512C29.3379 20.6777 29.2285 20.8809 29.0957 21.0605C28.9629 21.2402 28.8086 21.3887 28.6328 21.5059C28.4648 21.6191 28.2754 21.707 28.0645 21.7695C27.8574 21.8281 27.6289 21.8574 27.3789 21.8574H26.6465V15.6172ZM38.2773 19.3027V18.1777C38.2773 17.8223 38.2461 17.4805 38.1836 17.1523C38.1211 16.8203 38.0273 16.5098 37.9023 16.2207C37.7891 15.9512 37.6484 15.7031 37.4805 15.4766C37.3125 15.25 37.1152 15.0527 36.8887 14.8848C36.6621 14.7168 36.4062 14.5859 36.1211 14.4922C35.8359 14.3984 35.5234 14.3516 35.1836 14.3516C34.8477 14.3516 34.5391 14.3984 34.2578 14.4922C33.9805 14.582 33.7324 14.7109 33.5137 14.8789C33.2871 15.0508 33.0898 15.2539 32.9219 15.4883C32.7578 15.7188 32.6191 15.9727 32.5059 16.25C32.3887 16.5391 32.3008 16.8457 32.2422 17.1699C32.1836 17.4941 32.1543 17.8301 32.1543 18.1777V19.3027C32.1543 19.6348 32.1816 19.959 32.2363 20.2754C32.291 20.5879 32.3711 20.8828 32.4766 21.1602C32.5898 21.4492 32.7324 21.7148 32.9043 21.957C33.0762 22.1992 33.2754 22.4062 33.502 22.5781C33.7246 22.7461 33.9766 22.8789 34.2578 22.9766C34.543 23.0703 34.8555 23.1172 35.1953 23.1172C35.5234 23.1172 35.8262 23.0723 36.1035 22.9824C36.3809 22.8926 36.6309 22.7695 36.8535 22.6133C37.0879 22.4414 37.2949 22.2363 37.4746 21.998C37.6543 21.7559 37.8047 21.4922 37.9258 21.207C38.0391 20.9219 38.125 20.6191 38.1836 20.2988C38.2461 19.9785 38.2773 19.6465 38.2773 19.3027ZM36.8594 18.166V19.3027C36.8594 19.5098 36.8477 19.7168 36.8242 19.9238C36.8047 20.1309 36.7695 20.3281 36.7188 20.5156C36.6641 20.7305 36.5898 20.9277 36.4961 21.1074C36.4062 21.2832 36.293 21.4355 36.1562 21.5645C36.0391 21.6777 35.8984 21.7676 35.7344 21.834C35.5742 21.9004 35.3945 21.9336 35.1953 21.9336C34.9883 21.9336 34.8047 21.9004 34.6445 21.834C34.4883 21.7637 34.3496 21.6699 34.2285 21.5527C34.1035 21.4277 33.9961 21.2754 33.9062 21.0957C33.8203 20.9121 33.752 20.7148 33.7012 20.5039C33.6543 20.3164 33.6211 20.1211 33.6016 19.918C33.582 19.7109 33.5723 19.5059 33.5723 19.3027V18.166C33.5723 17.9551 33.582 17.7461 33.6016 17.5391C33.625 17.3281 33.6602 17.1289 33.707 16.9414C33.7578 16.7227 33.8301 16.5254 33.9238 16.3496C34.0176 16.1699 34.1328 16.0176 34.2695 15.8926C34.3828 15.7832 34.5156 15.6992 34.668 15.6406C34.8203 15.5781 34.9922 15.5469 35.1836 15.5469C35.3828 15.5469 35.5605 15.5781 35.7168 15.6406C35.873 15.7031 36.0117 15.7891 36.1328 15.8984C36.2695 16.0234 36.3848 16.1758 36.4785 16.3555C36.5762 16.5312 36.6543 16.7266 36.7129 16.9414C36.7637 17.1289 36.8008 17.3262 36.8242 17.5332C36.8477 17.7402 36.8594 17.9512 36.8594 18.166ZM45.4609 20.375H44.0488C44.0254 20.6328 43.9746 20.8613 43.8965 21.0605C43.8184 21.2598 43.7148 21.4258 43.5859 21.5586C43.4531 21.6953 43.293 21.7988 43.1055 21.8691C42.918 21.9395 42.7031 21.9746 42.4609 21.9746C42.2578 21.9746 42.0762 21.9473 41.916 21.8926C41.7598 21.834 41.6211 21.75 41.5 21.6406C41.3828 21.5391 41.2812 21.418 41.1953 21.2773C41.1133 21.1367 41.0449 20.9805 40.9902 20.8086C40.9199 20.6016 40.8672 20.373 40.832 20.123C40.8008 19.873 40.7852 19.6055 40.7852 19.3203V18.1426C40.7852 17.9121 40.7969 17.6875 40.8203 17.4688C40.8477 17.2461 40.8867 17.0371 40.9375 16.8418C41.0039 16.6191 41.0879 16.418 41.1895 16.2383C41.2949 16.0547 41.4238 15.9043 41.5762 15.7871C41.6934 15.6973 41.8242 15.627 41.9688 15.5762C42.1172 15.5254 42.2832 15.5 42.4668 15.5C42.7285 15.5 42.9531 15.5391 43.1406 15.6172C43.3281 15.6914 43.4863 15.8008 43.6152 15.9453C43.7402 16.0898 43.8379 16.2656 43.9082 16.4727C43.9824 16.6758 44.0312 16.9043 44.0547 17.1582H45.4609C45.418 16.7324 45.3223 16.3457 45.1738 15.998C45.0293 15.6504 44.8301 15.3535 44.5762 15.1074C44.3262 14.8652 44.0234 14.6777 43.668 14.5449C43.3164 14.4121 42.916 14.3457 42.4668 14.3457C42.1348 14.3457 41.8281 14.3906 41.5469 14.4805C41.2695 14.5703 41.0156 14.6953 40.7852 14.8555C40.543 15.0312 40.3281 15.2441 40.1406 15.4941C39.957 15.7402 39.8066 16.0156 39.6895 16.3203C39.5801 16.5938 39.498 16.8848 39.4434 17.1934C39.3887 17.502 39.3613 17.8223 39.3613 18.1543V19.3203C39.3613 19.668 39.3906 20.002 39.4492 20.3223C39.5078 20.6426 39.5918 20.9395 39.7012 21.2129C39.8145 21.4902 39.9531 21.7461 40.1172 21.9805C40.2852 22.2109 40.4805 22.4082 40.7031 22.5723C40.9336 22.748 41.1953 22.8848 41.4883 22.9824C41.7852 23.0762 42.1094 23.123 42.4609 23.123C42.8906 23.123 43.2812 23.0586 43.6328 22.9297C43.9883 22.7969 44.2949 22.6094 44.5527 22.3672C44.8066 22.1289 45.0117 21.8418 45.168 21.5059C45.3242 21.166 45.4219 20.7891 45.4609 20.375ZM52.9609 15.6348V14.4688H46.3164V15.6348H48.9297V23H50.3301V15.6348H52.9609ZM56.8633 18.5469L55.0703 14.4688H53.5059L56.1543 19.9121L56.1602 23H57.5371L57.5488 19.9531L60.2207 14.4688H58.6504L56.8633 18.5469ZM62.834 19.748H64.2812C64.7109 19.748 65.1055 19.6855 65.4648 19.5605C65.8281 19.4355 66.1406 19.2598 66.4023 19.0332C66.6641 18.8027 66.8672 18.5273 67.0117 18.207C67.1562 17.8867 67.2285 17.5312 67.2285 17.1406C67.2285 16.7305 67.1562 16.3613 67.0117 16.0332C66.8672 15.7051 66.6641 15.4258 66.4023 15.1953C66.1406 14.9648 65.8281 14.7871 65.4648 14.6621C65.1055 14.5371 64.7109 14.4727 64.2812 14.4688H61.4277V23H62.834V19.748ZM62.834 18.5996V15.6172H64.2812C64.5195 15.6172 64.7324 15.6562 64.9199 15.7344C65.1113 15.8086 65.2734 15.9141 65.4062 16.0508C65.5391 16.1875 65.6387 16.3496 65.7051 16.5371C65.7754 16.7207 65.8105 16.9258 65.8105 17.1523C65.8105 17.3594 65.7754 17.5508 65.7051 17.7266C65.6387 17.9023 65.5391 18.0547 65.4062 18.1836C65.2734 18.3125 65.1113 18.4141 64.9199 18.4883C64.7324 18.5586 64.5195 18.5957 64.2812 18.5996H62.834ZM73.5449 19.1738V18.0371H70.0176V15.6348H74.1074V14.4688H68.6055V23H74.1367V21.8398H70.0176V19.1738H73.5449ZM84.3789 17.5625V14H82.9785V23H84.3789V18.4121C84.4453 18.3105 84.5215 18.2188 84.6074 18.1367C84.6973 18.0547 84.793 17.9844 84.8945 17.9258C85.0156 17.8516 85.1484 17.7949 85.293 17.7559C85.4414 17.7168 85.5977 17.6973 85.7617 17.6973C85.9727 17.6973 86.1582 17.7266 86.3184 17.7852C86.4824 17.8398 86.6211 17.9258 86.7344 18.043C86.8438 18.1523 86.9258 18.2949 86.9805 18.4707C87.0391 18.6465 87.0684 18.8516 87.0684 19.0859V23H88.4688V19.0977C88.4688 18.6484 88.4141 18.2637 88.3047 17.9434C88.1992 17.6191 88.0488 17.3535 87.8535 17.1465C87.6582 16.9395 87.4219 16.7871 87.1445 16.6895C86.8711 16.5918 86.5684 16.543 86.2363 16.543C85.998 16.543 85.7715 16.5781 85.5566 16.6484C85.3457 16.7148 85.1523 16.8125 84.9766 16.9414C84.8633 17.0195 84.7559 17.1113 84.6543 17.2168C84.5527 17.3223 84.4609 17.4375 84.3789 17.5625ZM92.998 15.1133H91.5918V16.6602H90.0566V17.709H91.5918V20.8262C91.5918 21.2324 91.6445 21.5801 91.75 21.8691C91.8594 22.1582 92.0098 22.3965 92.2012 22.584C92.3926 22.7676 92.6211 22.9043 92.8867 22.9941C93.1562 23.0801 93.4512 23.123 93.7715 23.123C93.9473 23.123 94.123 23.1133 94.2988 23.0938C94.4785 23.0781 94.6504 23.0547 94.8145 23.0234C94.9785 22.9922 95.1309 22.9551 95.2715 22.9121C95.416 22.8652 95.5391 22.8105 95.6406 22.748L95.4883 21.7812C95.418 21.7969 95.3301 21.8164 95.2246 21.8398C95.123 21.8594 95.0117 21.877 94.8906 21.8926C94.7734 21.9121 94.6504 21.9277 94.5215 21.9395C94.3926 21.9512 94.2676 21.957 94.1465 21.957C93.9785 21.957 93.8242 21.9375 93.6836 21.8984C93.543 21.8594 93.4219 21.793 93.3203 21.6992C93.2188 21.6094 93.1387 21.4863 93.0801 21.3301C93.0254 21.1699 92.998 20.9727 92.998 20.7383V17.709H95.3828V16.6602H92.998V15.1133ZM98.1895 16.6602H96.9707V23H98.2598V18.1309C98.2832 18.0723 98.3086 18.0195 98.3359 17.9727C98.3672 17.9258 98.4023 17.8848 98.4414 17.8496C98.4922 17.7988 98.5527 17.7617 98.623 17.7383C98.6973 17.7109 98.7812 17.6973 98.875 17.6973C98.9609 17.6973 99.0371 17.709 99.1035 17.7324C99.1738 17.7559 99.2344 17.793 99.2852 17.8438C99.3359 17.8945 99.373 17.9648 99.3965 18.0547C99.4238 18.1406 99.4375 18.2461 99.4375 18.3711V23H100.703V18.2949C100.703 18.2559 100.703 18.2266 100.703 18.207C100.703 18.1836 100.703 18.1641 100.703 18.1484C100.719 18.082 100.742 18.0234 100.773 17.9727C100.805 17.918 100.844 17.8711 100.891 17.832C100.941 17.7891 101 17.7559 101.066 17.7324C101.133 17.709 101.213 17.6973 101.307 17.6973C101.389 17.6973 101.465 17.709 101.535 17.7324C101.609 17.7559 101.672 17.793 101.723 17.8438C101.773 17.8984 101.812 17.9707 101.84 18.0605C101.867 18.1465 101.881 18.252 101.881 18.377V23H103.17V18.3887C103.17 18.0566 103.135 17.7734 103.064 17.5391C102.998 17.3008 102.902 17.1074 102.777 16.959C102.652 16.8184 102.504 16.7148 102.332 16.6484C102.164 16.5781 101.979 16.543 101.775 16.543C101.619 16.543 101.475 16.5625 101.342 16.6016C101.213 16.6406 101.096 16.6953 100.99 16.7656C100.908 16.8203 100.832 16.8867 100.762 16.9648C100.691 17.043 100.629 17.127 100.574 17.2168C100.535 17.1191 100.488 17.0332 100.434 16.959C100.379 16.8809 100.316 16.8145 100.246 16.7598C100.156 16.6855 100.049 16.6309 99.9238 16.5957C99.7988 16.5605 99.6582 16.543 99.502 16.543C99.2012 16.543 98.9434 16.6152 98.7285 16.7598C98.5176 16.9043 98.3516 17.1035 98.2305 17.3574L98.1895 16.6602ZM104.869 14V15.166H106.873V21.8398H104.869V23H110.207V21.8398H108.285V14H104.869ZM111.883 22.0273L117.115 19.8477V18.7168L111.883 16.543V17.9258L115.428 19.1621L115.779 19.2734L115.422 19.3848L111.883 20.6387V22.0273Z" fill="#B084EB"/>
<path d="M16.041 38.0273V36.627L12.6719 35.4199L12.3145 35.2969L12.6719 35.168L16.041 33.9492V32.5488L10.9492 34.7227V35.8477L16.041 38.0273ZM47.0195 38.0273L52.252 35.8477V34.7168L47.0195 32.543V33.9258L50.5645 35.1621L50.916 35.2734L50.5586 35.3848L47.0195 36.6387V38.0273ZM16.041 54.0273V52.627L12.6719 51.4199L12.3145 51.2969L12.6719 51.168L16.041 49.9492V48.5488L10.9492 50.7227V51.8477L16.041 54.0273ZM54.2266 54.0273L59.459 51.8477V50.7168L54.2266 48.543V49.9258L57.7715 51.1621L58.123 51.2734L57.7656 51.3848L54.2266 52.6387V54.0273ZM160.182 54.0273V52.627L156.812 51.4199L156.455 51.2969L156.812 51.168L160.182 49.9492V48.5488L155.09 50.7227V51.8477L160.182 54.0273ZM164.002 55.7324L167.348 46.4688H166.064L162.713 55.7324H164.002ZM205.574 54.0273L210.807 51.8477V50.7168L205.574 48.543V49.9258L209.119 51.1621L209.471 51.2734L209.113 51.3848L205.574 52.6387V54.0273ZM16.041 70.0273V68.627L12.6719 67.4199L12.3145 67.2969L12.6719 67.168L16.041 65.9492V64.5488L10.9492 66.7227V67.8477L16.041 70.0273ZM47.0195 70.0273L52.252 67.8477V66.7168L47.0195 64.543V65.9258L50.5645 67.1621L50.916 67.2734L50.5586 67.3848L47.0195 68.6387V70.0273ZM16.041 102.027V100.627L12.6719 99.4199L12.3145 99.2969L12.6719 99.168L16.041 97.9492V96.5488L10.9492 98.7227V99.8477L16.041 102.027ZM32.6055 102.027L37.8379 99.8477V98.7168L32.6055 96.543V97.9258L36.1504 99.1621L36.502 99.2734L36.1445 99.3848L32.6055 100.639V102.027ZM167.389 102.027V100.627L164.02 99.4199L163.662 99.2969L164.02 99.168L167.389 97.9492V96.5488L162.297 98.7227V99.8477L167.389 102.027ZM171.209 103.732L174.555 94.4688H173.271L169.92 103.732H171.209ZM191.16 102.027L196.393 99.8477V98.7168L191.16 96.543V97.9258L194.705 99.1621L195.057 99.2734L194.699 99.3848L191.16 100.639V102.027ZM16.041 118.027V116.627L12.6719 115.42L12.3145 115.297L12.6719 115.168L16.041 113.949V112.549L10.9492 114.723V115.848L16.041 118.027ZM25.3984 118.027L30.6309 115.848V114.717L25.3984 112.543V113.926L28.9434 115.162L29.2949 115.273L28.9375 115.385L25.3984 116.639V118.027ZM181.803 118.027V116.627L178.434 115.42L178.076 115.297L178.434 115.168L181.803 113.949V112.549L176.711 114.723V115.848L181.803 118.027ZM185.623 119.732L188.969 110.469H187.686L184.334 119.732H185.623ZM198.367 118.027L203.6 115.848V114.717L198.367 112.543V113.926L201.912 115.162L202.264 115.273L201.906 115.385L198.367 116.639V118.027ZM16.041 150.027V148.627L12.6719 147.42L12.3145 147.297L12.6719 147.168L16.041 145.949V144.549L10.9492 146.723V147.848L16.041 150.027ZM19.8613 151.732L23.207 142.469H21.9238L18.5723 151.732H19.8613ZM54.2266 150.027L59.459 147.848V146.717L54.2266 144.543V145.926L57.7715 147.162L58.123 147.273L57.7656 147.385L54.2266 148.639V150.027ZM16.041 166.027V164.627L12.6719 163.42L12.3145 163.297L12.6719 163.168L16.041 161.949V160.549L10.9492 162.723V163.848L16.041 166.027ZM19.8613 167.732L23.207 158.469H21.9238L18.5723 167.732H19.8613ZM54.2266 166.027L59.459 163.848V162.717L54.2266 160.543V161.926L57.7715 163.162L58.123 163.273L57.7656 163.385L54.2266 164.639V166.027Z" fill="#7FDBCA"/>
<path d="M19.5156 33.5625V30H18.1152V39H19.5156V34.4121C19.582 34.3105 19.6582 34.2188 19.7441 34.1367C19.834 34.0547 19.9297 33.9844 20.0312 33.9258C20.1523 33.8516 20.2852 33.7949 20.4297 33.7559C20.5781 33.7168 20.7344 33.6973 20.8984 33.6973C21.1094 33.6973 21.2949 33.7266 21.4551 33.7852C21.6191 33.8398 21.7578 33.9258 21.8711 34.043C21.9805 34.1523 22.0625 34.2949 22.1172 34.4707C22.1758 34.6465 22.2051 34.8516 22.2051 35.0859V39H23.6055V35.0977C23.6055 34.6484 23.5508 34.2637 23.4414 33.9434C23.3359 33.6191 23.1855 33.3535 22.9902 33.1465C22.7949 32.9395 22.5586 32.7871 22.2812 32.6895C22.0078 32.5918 21.7051 32.543 21.373 32.543C21.1348 32.543 20.9082 32.5781 20.6934 32.6484C20.4824 32.7148 20.2891 32.8125 20.1133 32.9414C20 33.0195 19.8926 33.1113 19.791 33.2168C19.6895 33.3223 19.5977 33.4375 19.5156 33.5625ZM28.1348 31.1133H26.7285V32.6602H25.1934V33.709H26.7285V36.8262C26.7285 37.2324 26.7812 37.5801 26.8867 37.8691C26.9961 38.1582 27.1465 38.3965 27.3379 38.584C27.5293 38.7676 27.7578 38.9043 28.0234 38.9941C28.293 39.0801 28.5879 39.123 28.9082 39.123C29.084 39.123 29.2598 39.1133 29.4355 39.0938C29.6152 39.0781 29.7871 39.0547 29.9512 39.0234C30.1152 38.9922 30.2676 38.9551 30.4082 38.9121C30.5527 38.8652 30.6758 38.8105 30.7773 38.748L30.625 37.7812C30.5547 37.7969 30.4668 37.8164 30.3613 37.8398C30.2598 37.8594 30.1484 37.877 30.0273 37.8926C29.9102 37.9121 29.7871 37.9277 29.6582 37.9395C29.5293 37.9512 29.4043 37.957 29.2832 37.957C29.1152 37.957 28.9609 37.9375 28.8203 37.8984C28.6797 37.8594 28.5586 37.793 28.457 37.6992C28.3555 37.6094 28.2754 37.4863 28.2168 37.3301C28.1621 37.1699 28.1348 36.9727 28.1348 36.7383V33.709H30.5195V32.6602H28.1348V31.1133ZM33.3262 32.6602H32.1074V39H33.3965V34.1309C33.4199 34.0723 33.4453 34.0195 33.4727 33.9727C33.5039 33.9258 33.5391 33.8848 33.5781 33.8496C33.6289 33.7988 33.6895 33.7617 33.7598 33.7383C33.834 33.7109 33.918 33.6973 34.0117 33.6973C34.0977 33.6973 34.1738 33.709 34.2402 33.7324C34.3105 33.7559 34.3711 33.793 34.4219 33.8438C34.4727 33.8945 34.5098 33.9648 34.5332 34.0547C34.5605 34.1406 34.5742 34.2461 34.5742 34.3711V39H35.8398V34.2949C35.8398 34.2559 35.8398 34.2266 35.8398 34.207C35.8398 34.1836 35.8398 34.1641 35.8398 34.1484C35.8555 34.082 35.8789 34.0234 35.9102 33.9727C35.9414 33.918 35.9805 33.8711 36.0273 33.832C36.0781 33.7891 36.1367 33.7559 36.2031 33.7324C36.2695 33.709 36.3496 33.6973 36.4434 33.6973C36.5254 33.6973 36.6016 33.709 36.6719 33.7324C36.7461 33.7559 36.8086 33.793 36.8594 33.8438C36.9102 33.8984 36.9492 33.9707 36.9766 34.0605C37.0039 34.1465 37.0176 34.252 37.0176 34.377V39H38.3066V34.3887C38.3066 34.0566 38.2715 33.7734 38.2012 33.5391C38.1348 33.3008 38.0391 33.1074 37.9141 32.959C37.7891 32.8184 37.6406 32.7148 37.4688 32.6484C37.3008 32.5781 37.1152 32.543 36.9121 32.543C36.7559 32.543 36.6113 32.5625 36.4785 32.6016C36.3496 32.6406 36.2324 32.6953 36.127 32.7656C36.0449 32.8203 35.9688 32.8867 35.8984 32.9648C35.8281 33.043 35.7656 33.127 35.7109 33.2168C35.6719 33.1191 35.625 33.0332 35.5703 32.959C35.5156 32.8809 35.4531 32.8145 35.3828 32.7598C35.293 32.6855 35.1855 32.6309 35.0605 32.5957C34.9355 32.5605 34.7949 32.543 34.6387 32.543C34.3379 32.543 34.0801 32.6152 33.8652 32.7598C33.6543 32.9043 33.4883 33.1035 33.3672 33.3574L33.3262 32.6602ZM40.0059 30V31.166H42.0098V37.8398H40.0059V39H45.3438V37.8398H43.4219V30H40.0059ZM20.9277 47.1133H19.5215V48.6602H17.9863V49.709H19.5215V52.8262C19.5215 53.2324 19.5742 53.5801 19.6797 53.8691C19.7891 54.1582 19.9395 54.3965 20.1309 54.584C20.3223 54.7676 20.5508 54.9043 20.8164 54.9941C21.0859 55.0801 21.3809 55.123 21.7012 55.123C21.877 55.123 22.0527 55.1133 22.2285 55.0938C22.4082 55.0781 22.5801 55.0547 22.7441 55.0234C22.9082 54.9922 23.0605 54.9551 23.2012 54.9121C23.3457 54.8652 23.4688 54.8105 23.5703 54.748L23.418 53.7812C23.3477 53.7969 23.2598 53.8164 23.1543 53.8398C23.0527 53.8594 22.9414 53.877 22.8203 53.8926C22.7031 53.9121 22.5801 53.9277 22.4512 53.9395C22.3223 53.9512 22.1973 53.957 22.0762 53.957C21.9082 53.957 21.7539 53.9375 21.6133 53.8984C21.4727 53.8594 21.3516 53.793 21.25 53.6992C21.1484 53.6094 21.0684 53.4863 21.0098 53.3301C20.9551 53.1699 20.9277 52.9727 20.9277 52.7383V49.709H23.3125V48.6602H20.9277V47.1133ZM25.6445 48.6602V49.8262H27.5957V53.8398H25.6445V55H30.8711V53.8398H29.0078V48.6602H25.6445ZM27.4668 47.0195C27.4668 47.168 27.502 47.2988 27.5723 47.4121C27.6465 47.5215 27.7539 47.5977 27.8945 47.6406C28.0312 47.6836 28.1562 47.6934 28.2695 47.6699C28.3828 47.6465 28.4805 47.5977 28.5625 47.5234C28.7266 47.4805 28.8516 47.3965 28.9375 47.2715C29.0234 47.1426 29.0527 46.9922 29.0254 46.8203C29.0059 46.6523 28.9297 46.5156 28.7969 46.4102C28.668 46.3008 28.498 46.2461 28.2871 46.2461C28.1621 46.2461 28.0488 46.2656 27.9473 46.3047C27.8496 46.3398 27.7656 46.3906 27.6953 46.457C27.6211 46.5273 27.5645 46.6113 27.5254 46.709C27.4863 46.8027 27.4668 46.9062 27.4668 47.0195ZM35.3418 47.1133H33.9355V48.6602H32.4004V49.709H33.9355V52.8262C33.9355 53.2324 33.9883 53.5801 34.0938 53.8691C34.2031 54.1582 34.3535 54.3965 34.5449 54.584C34.7363 54.7676 34.9648 54.9043 35.2305 54.9941C35.5 55.0801 35.7949 55.123 36.1152 55.123C36.291 55.123 36.4668 55.1133 36.6426 55.0938C36.8223 55.0781 36.9941 55.0547 37.1582 55.0234C37.3223 54.9922 37.4746 54.9551 37.6152 54.9121C37.7598 54.8652 37.8828 54.8105 37.9844 54.748L37.832 53.7812C37.7617 53.7969 37.6738 53.8164 37.5684 53.8398C37.4668 53.8594 37.3555 53.877 37.2344 53.8926C37.1172 53.9121 36.9941 53.9277 36.8652 53.9395C36.7363 53.9512 36.6113 53.957 36.4902 53.957C36.3223 53.957 36.168 53.9375 36.0273 53.8984C35.8867 53.8594 35.7656 53.793 35.6641 53.6992C35.5625 53.6094 35.4824 53.4863 35.4238 53.3301C35.3691 53.1699 35.3418 52.9727 35.3418 52.7383V49.709H37.7266V48.6602H35.3418V47.1133ZM40.0059 46V47.166H42.0098V53.8398H40.0059V55H45.3438V53.8398H43.4219V46H40.0059ZM49.9023 55.1172C50.5195 55.1172 51.0449 54.9961 51.4785 54.7539C51.916 54.5117 52.2402 54.2383 52.4512 53.9336L51.7012 53.207C51.5059 53.457 51.2578 53.6504 50.957 53.7871C50.6562 53.9199 50.332 53.9863 49.9844 53.9863C49.7305 53.9863 49.4961 53.9434 49.2812 53.8574C49.0703 53.7715 48.8867 53.6504 48.7305 53.4941C48.5742 53.3457 48.4512 53.1777 48.3613 52.9902C48.2715 52.8027 48.2051 52.5703 48.1621 52.293V52.2637H52.5566V51.6602C52.5566 51.207 52.4961 50.7891 52.375 50.4062C52.2539 50.0234 52.0742 49.6934 51.8359 49.416C51.5977 49.1426 51.3027 48.9297 50.9512 48.7773C50.5996 48.6211 50.1953 48.543 49.7383 48.543C49.3281 48.543 48.9414 48.6211 48.5781 48.7773C48.2188 48.9297 47.9023 49.1484 47.6289 49.4336C47.3555 49.7188 47.1406 50.0625 46.9844 50.4648C46.8281 50.8672 46.75 51.3164 46.75 51.8125V52.0527C46.75 52.4863 46.8242 52.8906 46.9727 53.2656C47.125 53.6367 47.3398 53.959 47.6172 54.2324C47.8945 54.5098 48.2266 54.7266 48.6133 54.8828C49.0039 55.0391 49.4336 55.1172 49.9023 55.1172ZM49.7324 49.6797C49.9668 49.6797 50.1719 49.7207 50.3477 49.8027C50.5273 49.8809 50.6758 49.9863 50.793 50.1191C50.9141 50.2559 51.0078 50.416 51.0742 50.5996C51.1406 50.7793 51.1738 50.9609 51.1738 51.1445V51.2383H48.1914C48.2344 50.9961 48.3008 50.7793 48.3906 50.5879C48.4805 50.3965 48.5918 50.2324 48.7246 50.0957C48.8574 49.9629 49.0078 49.8613 49.1758 49.791C49.3477 49.7168 49.5332 49.6797 49.7324 49.6797ZM172.275 47.1133H170.869V48.6602H169.334V49.709H170.869V52.8262C170.869 53.2324 170.922 53.5801 171.027 53.8691C171.137 54.1582 171.287 54.3965 171.479 54.584C171.67 54.7676 171.898 54.9043 172.164 54.9941C172.434 55.0801 172.729 55.123 173.049 55.123C173.225 55.123 173.4 55.1133 173.576 55.0938C173.756 55.0781 173.928 55.0547 174.092 55.0234C174.256 54.9922 174.408 54.9551 174.549 54.9121C174.693 54.8652 174.816 54.8105 174.918 54.748L174.766 53.7812C174.695 53.7969 174.607 53.8164 174.502 53.8398C174.4 53.8594 174.289 53.877 174.168 53.8926C174.051 53.9121 173.928 53.9277 173.799 53.9395C173.67 53.9512 173.545 53.957 173.424 53.957C173.256 53.957 173.102 53.9375 172.961 53.8984C172.82 53.8594 172.699 53.793 172.598 53.6992C172.496 53.6094 172.416 53.4863 172.357 53.3301C172.303 53.1699 172.275 52.9727 172.275 52.7383V49.709H174.66V48.6602H172.275V47.1133ZM176.992 48.6602V49.8262H178.943V53.8398H176.992V55H182.219V53.8398H180.355V48.6602H176.992ZM178.814 47.0195C178.814 47.168 178.85 47.2988 178.92 47.4121C178.994 47.5215 179.102 47.5977 179.242 47.6406C179.379 47.6836 179.504 47.6934 179.617 47.6699C179.73 47.6465 179.828 47.5977 179.91 47.5234C180.074 47.4805 180.199 47.3965 180.285 47.2715C180.371 47.1426 180.4 46.9922 180.373 46.8203C180.354 46.6523 180.277 46.5156 180.145 46.4102C180.016 46.3008 179.846 46.2461 179.635 46.2461C179.51 46.2461 179.396 46.2656 179.295 46.3047C179.197 46.3398 179.113 46.3906 179.043 46.457C178.969 46.5273 178.912 46.6113 178.873 46.709C178.834 46.8027 178.814 46.9062 178.814 47.0195ZM186.689 47.1133H185.283V48.6602H183.748V49.709H185.283V52.8262C185.283 53.2324 185.336 53.5801 185.441 53.8691C185.551 54.1582 185.701 54.3965 185.893 54.584C186.084 54.7676 186.312 54.9043 186.578 54.9941C186.848 55.0801 187.143 55.123 187.463 55.123C187.639 55.123 187.814 55.1133 187.99 55.0938C188.17 55.0781 188.342 55.0547 188.506 55.0234C188.67 54.9922 188.822 54.9551 188.963 54.9121C189.107 54.8652 189.23 54.8105 189.332 54.748L189.18 53.7812C189.109 53.7969 189.021 53.8164 188.916 53.8398C188.814 53.8594 188.703 53.877 188.582 53.8926C188.465 53.9121 188.342 53.9277 188.213 53.9395C188.084 53.9512 187.959 53.957 187.838 53.957C187.67 53.957 187.516 53.9375 187.375 53.8984C187.234 53.8594 187.113 53.793 187.012 53.6992C186.91 53.6094 186.83 53.4863 186.771 53.3301C186.717 53.1699 186.689 52.9727 186.689 52.7383V49.709H189.074V48.6602H186.689V47.1133ZM191.354 46V47.166H193.357V53.8398H191.354V55H196.691V53.8398H194.77V46H191.354ZM201.25 55.1172C201.867 55.1172 202.393 54.9961 202.826 54.7539C203.264 54.5117 203.588 54.2383 203.799 53.9336L203.049 53.207C202.854 53.457 202.605 53.6504 202.305 53.7871C202.004 53.9199 201.68 53.9863 201.332 53.9863C201.078 53.9863 200.844 53.9434 200.629 53.8574C200.418 53.7715 200.234 53.6504 200.078 53.4941C199.922 53.3457 199.799 53.1777 199.709 52.9902C199.619 52.8027 199.553 52.5703 199.51 52.293V52.2637H203.904V51.6602C203.904 51.207 203.844 50.7891 203.723 50.4062C203.602 50.0234 203.422 49.6934 203.184 49.416C202.945 49.1426 202.65 48.9297 202.299 48.7773C201.947 48.6211 201.543 48.543 201.086 48.543C200.676 48.543 200.289 48.6211 199.926 48.7773C199.566 48.9297 199.25 49.1484 198.977 49.4336C198.703 49.7188 198.488 50.0625 198.332 50.4648C198.176 50.8672 198.098 51.3164 198.098 51.8125V52.0527C198.098 52.4863 198.172 52.8906 198.32 53.2656C198.473 53.6367 198.688 53.959 198.965 54.2324C199.242 54.5098 199.574 54.7266 199.961 54.8828C200.352 55.0391 200.781 55.1172 201.25 55.1172ZM201.08 49.6797C201.314 49.6797 201.52 49.7207 201.695 49.8027C201.875 49.8809 202.023 49.9863 202.141 50.1191C202.262 50.2559 202.355 50.416 202.422 50.5996C202.488 50.7793 202.521 50.9609 202.521 51.1445V51.2383H199.539C199.582 50.9961 199.648 50.7793 199.738 50.5879C199.828 50.3965 199.939 50.2324 200.072 50.0957C200.205 49.9629 200.355 49.8613 200.523 49.791C200.695 49.7168 200.881 49.6797 201.08 49.6797ZM23.6875 67.8945V67.7715C23.6875 67.4121 23.6543 67.0723 23.5879 66.752C23.5254 66.4316 23.4316 66.1406 23.3066 65.8789C23.2129 65.6914 23.1035 65.5195 22.9785 65.3633C22.8574 65.2031 22.7188 65.0684 22.5625 64.959C22.3789 64.8262 22.1719 64.7246 21.9414 64.6543C21.7148 64.5801 21.4648 64.543 21.1914 64.543C20.9844 64.543 20.791 64.5645 20.6113 64.6074C20.4355 64.6465 20.2734 64.707 20.125 64.7891C20.0117 64.8516 19.9062 64.9238 19.8086 65.0059C19.7109 65.0879 19.6211 65.1797 19.5391 65.2812V62H18.1387V71H19.4043L19.4688 70.3086C19.5391 70.3945 19.6113 70.4746 19.6855 70.5488C19.7637 70.6191 19.8457 70.6855 19.9316 70.748C20.0996 70.8691 20.2891 70.9609 20.5 71.0234C20.7109 71.0859 20.9453 71.1172 21.2031 71.1172C21.457 71.1172 21.6914 71.084 21.9062 71.0176C22.125 70.9551 22.3223 70.8652 22.498 70.748C22.7168 70.6035 22.9043 70.4219 23.0605 70.2031C23.2168 69.9844 23.3418 69.7402 23.4355 69.4707C23.5176 69.2441 23.5801 68.998 23.623 68.7324C23.666 68.4668 23.6875 68.1875 23.6875 67.8945ZM22.2871 67.7715V67.8945C22.2871 68.0703 22.2773 68.2402 22.2578 68.4043C22.2383 68.5684 22.209 68.7207 22.1699 68.8613C22.123 69.0488 22.0547 69.2188 21.9648 69.3711C21.8789 69.5195 21.7676 69.6426 21.6309 69.7402C21.5293 69.8105 21.4141 69.8672 21.2852 69.9102C21.1562 69.9492 21.0117 69.9688 20.8516 69.9688C20.6758 69.9688 20.5156 69.9473 20.3711 69.9043C20.2305 69.8574 20.1055 69.7949 19.9961 69.7168C19.8984 69.6426 19.8105 69.5586 19.7324 69.4648C19.6582 69.3672 19.5938 69.2598 19.5391 69.1426V66.5176C19.5859 66.416 19.6406 66.3223 19.7031 66.2363C19.7695 66.1465 19.8438 66.0684 19.9258 66.002C20.0391 65.9043 20.1719 65.8301 20.3242 65.7793C20.4766 65.7246 20.6484 65.6973 20.8398 65.6973C20.9961 65.6973 21.1367 65.7148 21.2617 65.75C21.3867 65.7852 21.498 65.8379 21.5957 65.9082C21.7441 66.0098 21.8613 66.1348 21.9473 66.2832C22.0371 66.4277 22.1094 66.5898 22.1641 66.7695C22.2031 66.918 22.2324 67.0781 22.252 67.25C22.2754 67.418 22.2871 67.5918 22.2871 67.7715ZM25.0645 67.7715V67.8945C25.0645 68.3594 25.1309 68.7871 25.2637 69.1777C25.3965 69.5684 25.5898 69.9082 25.8438 70.1973C26.0938 70.4863 26.4023 70.7129 26.7695 70.877C27.1367 71.041 27.5527 71.123 28.0176 71.123C28.4785 71.123 28.8906 71.041 29.2539 70.877C29.6211 70.7129 29.9297 70.4863 30.1797 70.1973C30.4297 69.9082 30.6211 69.5684 30.7539 69.1777C30.8867 68.7871 30.9531 68.3594 30.9531 67.8945V67.7715C30.9531 67.3105 30.8867 66.8848 30.7539 66.4941C30.6211 66.0996 30.4297 65.7578 30.1797 65.4688C29.9258 65.1797 29.6152 64.9531 29.248 64.7891C28.8848 64.625 28.4707 64.543 28.0059 64.543C27.541 64.543 27.127 64.625 26.7637 64.7891C26.4004 64.9531 26.0938 65.1797 25.8438 65.4688C25.5898 65.7578 25.3965 66.0996 25.2637 66.4941C25.1309 66.8848 25.0645 67.3105 25.0645 67.7715ZM26.4648 67.8945V67.7715C26.4648 67.4941 26.4941 67.2285 26.5527 66.9746C26.6152 66.7207 26.709 66.498 26.834 66.3066C26.9629 66.1152 27.123 65.9629 27.3145 65.8496C27.5098 65.7363 27.7402 65.6797 28.0059 65.6797C28.2754 65.6797 28.5059 65.7363 28.6973 65.8496C28.8926 65.9629 29.0527 66.1152 29.1777 66.3066C29.3027 66.498 29.3965 66.7207 29.459 66.9746C29.5215 67.2285 29.5527 67.4941 29.5527 67.7715V67.8945C29.5527 68.1797 29.5215 68.4492 29.459 68.7031C29.4004 68.957 29.3086 69.1797 29.1836 69.3711C29.0586 69.5625 28.8984 69.7148 28.7031 69.8281C28.5078 69.9375 28.2793 69.9922 28.0176 69.9922C27.748 69.9922 27.5156 69.9375 27.3203 69.8281C27.125 69.7148 26.9629 69.5625 26.834 69.3711C26.709 69.1797 26.6152 68.957 26.5527 68.7031C26.4941 68.4492 26.4648 68.1797 26.4648 67.8945ZM32.3418 67.7832V67.9062C32.3418 68.3633 32.4004 68.7891 32.5176 69.1836C32.6348 69.5742 32.8008 69.9121 33.0156 70.1973C33.2305 70.4863 33.4922 70.7129 33.8008 70.877C34.1094 71.0371 34.457 71.1172 34.8438 71.1172C35.2109 71.1172 35.5352 71.0508 35.8164 70.918C36.0977 70.7812 36.3398 70.5879 36.543 70.3379L36.6074 71H37.8789V62H36.4785V65.252C36.2754 65.0254 36.041 64.8516 35.7754 64.7305C35.5137 64.6055 35.207 64.543 34.8555 64.543C34.4648 64.543 34.1133 64.623 33.8008 64.7832C33.4922 64.9395 33.2305 65.1602 33.0156 65.4453C32.7969 65.7305 32.6289 66.0723 32.5117 66.4707C32.3984 66.8652 32.3418 67.3027 32.3418 67.7832ZM33.7422 67.9062V67.7832C33.7422 67.498 33.7695 67.2305 33.8242 66.9805C33.8789 66.7266 33.9648 66.5039 34.082 66.3125C34.1992 66.1211 34.3496 65.9707 34.5332 65.8613C34.7207 65.752 34.9453 65.6973 35.207 65.6973C35.5195 65.6973 35.7773 65.7676 35.9805 65.9082C36.1875 66.0449 36.3535 66.2305 36.4785 66.4648V69.1895C36.3535 69.4277 36.1875 69.6172 35.9805 69.7578C35.7734 69.8945 35.5117 69.9629 35.1953 69.9629C34.9375 69.9629 34.7168 69.9102 34.5332 69.8047C34.3496 69.6953 34.1992 69.5469 34.082 69.3594C33.9648 69.1719 33.8789 68.9531 33.8242 68.7031C33.7695 68.4531 33.7422 68.1875 33.7422 67.9062ZM40.5332 73.5605C40.8418 73.5605 41.1113 73.5059 41.3418 73.3965C41.5723 73.291 41.7715 73.1582 41.9395 72.998C42.1074 72.8418 42.2461 72.6699 42.3555 72.4824C42.4688 72.2988 42.5625 72.125 42.6367 71.9609L45.8535 64.6602H44.3008L42.7715 68.5508L42.5078 69.2305L42.291 68.5332L40.7148 64.6602H39.1738L41.875 70.7188L41.4766 71.4746C41.4336 71.5605 41.3867 71.6426 41.3359 71.7207C41.2891 71.7988 41.2266 71.8887 41.1484 71.9902C41.0664 72.0918 40.9707 72.1816 40.8613 72.2598C40.752 72.3418 40.6289 72.3828 40.4922 72.3828C40.4297 72.3828 40.3477 72.3789 40.2461 72.3711C40.1484 72.3672 40.0605 72.3633 39.9824 72.3594L39.7891 73.4551C39.9023 73.4824 40.0215 73.5059 40.1465 73.5254C40.2715 73.5488 40.4004 73.5605 40.5332 73.5605ZM19.5156 97.5625V94H18.1152V103H19.5156V98.4121C19.582 98.3105 19.6582 98.2188 19.7441 98.1367C19.834 98.0547 19.9297 97.9844 20.0312 97.9258C20.1523 97.8516 20.2852 97.7949 20.4297 97.7559C20.5781 97.7168 20.7344 97.6973 20.8984 97.6973C21.1094 97.6973 21.2949 97.7266 21.4551 97.7852C21.6191 97.8398 21.7578 97.9258 21.8711 98.043C21.9805 98.1523 22.0625 98.2949 22.1172 98.4707C22.1758 98.6465 22.2051 98.8516 22.2051 99.0859V103H23.6055V99.0977C23.6055 98.6484 23.5508 98.2637 23.4414 97.9434C23.3359 97.6191 23.1855 97.3535 22.9902 97.1465C22.7949 96.9395 22.5586 96.7871 22.2812 96.6895C22.0078 96.5918 21.7051 96.543 21.373 96.543C21.1348 96.543 20.9082 96.5781 20.6934 96.6484C20.4824 96.7148 20.2891 96.8125 20.1133 96.9414C20 97.0195 19.8926 97.1113 19.791 97.2168C19.6895 97.3223 19.5977 97.4375 19.5156 97.5625ZM29.1133 103V94.4688H29.0254L25.5156 95.7695V97.0059L27.7012 96.2031V103H29.1133ZM178.07 97.5625V94H176.67V103H178.07V98.4121C178.137 98.3105 178.213 98.2188 178.299 98.1367C178.389 98.0547 178.484 97.9844 178.586 97.9258C178.707 97.8516 178.84 97.7949 178.984 97.7559C179.133 97.7168 179.289 97.6973 179.453 97.6973C179.664 97.6973 179.85 97.7266 180.01 97.7852C180.174 97.8398 180.312 97.9258 180.426 98.043C180.535 98.1523 180.617 98.2949 180.672 98.4707C180.73 98.6465 180.76 98.8516 180.76 99.0859V103H182.16V99.0977C182.16 98.6484 182.105 98.2637 181.996 97.9434C181.891 97.6191 181.74 97.3535 181.545 97.1465C181.35 96.9395 181.113 96.7871 180.836 96.6895C180.562 96.5918 180.26 96.543 179.928 96.543C179.689 96.543 179.463 96.5781 179.248 96.6484C179.037 96.7148 178.844 96.8125 178.668 96.9414C178.555 97.0195 178.447 97.1113 178.346 97.2168C178.244 97.3223 178.152 97.4375 178.07 97.5625ZM187.668 103V94.4688H187.58L184.07 95.7695V97.0059L186.256 96.2031V103H187.668ZM18.127 121.438H19.5273V118.426C19.6016 118.508 19.6816 118.584 19.7676 118.654C19.8535 118.721 19.9434 118.783 20.0371 118.842C20.1973 118.932 20.3711 119 20.5586 119.047C20.75 119.094 20.959 119.117 21.1855 119.117C21.584 119.117 21.9375 119.035 22.2461 118.871C22.5547 118.707 22.8145 118.48 23.0254 118.191C23.2363 117.906 23.3945 117.566 23.5 117.172C23.6094 116.777 23.6641 116.352 23.6641 115.895V115.771C23.6641 115.295 23.6094 114.859 23.5 114.465C23.3945 114.066 23.2363 113.725 23.0254 113.439C22.8145 113.154 22.5527 112.934 22.2402 112.777C21.9316 112.621 21.5742 112.543 21.168 112.543C20.9609 112.543 20.7656 112.566 20.582 112.613C20.3984 112.656 20.2305 112.719 20.0781 112.801C19.9609 112.863 19.8516 112.938 19.75 113.023C19.6484 113.109 19.5547 113.205 19.4688 113.311L19.416 112.66H18.127V121.438ZM22.2637 115.771V115.895C22.2637 116.176 22.2363 116.443 22.1816 116.697C22.127 116.947 22.0391 117.17 21.918 117.365C21.8008 117.557 21.6484 117.709 21.4609 117.822C21.2773 117.932 21.0547 117.986 20.793 117.986C20.6328 117.986 20.4863 117.969 20.3535 117.934C20.2207 117.895 20.1016 117.844 19.9961 117.781C19.8945 117.715 19.8047 117.637 19.7266 117.547C19.6484 117.457 19.582 117.357 19.5273 117.248V114.43C19.5898 114.312 19.6621 114.207 19.7441 114.113C19.8301 114.02 19.9297 113.941 20.043 113.879C20.1406 113.82 20.252 113.775 20.377 113.744C20.502 113.713 20.6367 113.697 20.7812 113.697C21.043 113.697 21.2676 113.752 21.4551 113.861C21.6426 113.971 21.7969 114.119 21.918 114.307C22.0352 114.494 22.1211 114.715 22.1758 114.969C22.2344 115.219 22.2637 115.486 22.2637 115.771ZM191.096 121.438H192.496V118.426C192.57 118.508 192.65 118.584 192.736 118.654C192.822 118.721 192.912 118.783 193.006 118.842C193.166 118.932 193.34 119 193.527 119.047C193.719 119.094 193.928 119.117 194.154 119.117C194.553 119.117 194.906 119.035 195.215 118.871C195.523 118.707 195.783 118.48 195.994 118.191C196.205 117.906 196.363 117.566 196.469 117.172C196.578 116.777 196.633 116.352 196.633 115.895V115.771C196.633 115.295 196.578 114.859 196.469 114.465C196.363 114.066 196.205 113.725 195.994 113.439C195.783 113.154 195.521 112.934 195.209 112.777C194.9 112.621 194.543 112.543 194.137 112.543C193.93 112.543 193.734 112.566 193.551 112.613C193.367 112.656 193.199 112.719 193.047 112.801C192.93 112.863 192.82 112.938 192.719 113.023C192.617 113.109 192.523 113.205 192.438 113.311L192.385 112.66H191.096V121.438ZM195.232 115.771V115.895C195.232 116.176 195.205 116.443 195.15 116.697C195.096 116.947 195.008 117.17 194.887 117.365C194.77 117.557 194.617 117.709 194.43 117.822C194.246 117.932 194.023 117.986 193.762 117.986C193.602 117.986 193.455 117.969 193.322 117.934C193.189 117.895 193.07 117.844 192.965 117.781C192.863 117.715 192.773 117.637 192.695 117.547C192.617 117.457 192.551 117.357 192.496 117.248V114.43C192.559 114.312 192.631 114.207 192.713 114.113C192.799 114.02 192.898 113.941 193.012 113.879C193.109 113.82 193.221 113.775 193.346 113.744C193.471 113.713 193.605 113.697 193.75 113.697C194.012 113.697 194.236 113.752 194.424 113.861C194.611 113.971 194.766 114.119 194.887 114.307C195.004 114.494 195.09 114.715 195.145 114.969C195.203 115.219 195.232 115.486 195.232 115.771ZM30.8945 147.895V147.771C30.8945 147.412 30.8613 147.072 30.7949 146.752C30.7324 146.432 30.6387 146.141 30.5137 145.879C30.4199 145.691 30.3105 145.52 30.1855 145.363C30.0645 145.203 29.9258 145.068 29.7695 144.959C29.5859 144.826 29.3789 144.725 29.1484 144.654C28.9219 144.58 28.6719 144.543 28.3984 144.543C28.1914 144.543 27.998 144.564 27.8184 144.607C27.6426 144.646 27.4805 144.707 27.332 144.789C27.2188 144.852 27.1133 144.924 27.0156 145.006C26.918 145.088 26.8281 145.18 26.7461 145.281V142H25.3457V151H26.6113L26.6758 150.309C26.7461 150.395 26.8184 150.475 26.8926 150.549C26.9707 150.619 27.0527 150.686 27.1387 150.748C27.3066 150.869 27.4961 150.961 27.707 151.023C27.918 151.086 28.1523 151.117 28.4102 151.117C28.6641 151.117 28.8984 151.084 29.1133 151.018C29.332 150.955 29.5293 150.865 29.7051 150.748C29.9238 150.604 30.1113 150.422 30.2676 150.203C30.4238 149.984 30.5488 149.74 30.6426 149.471C30.7246 149.244 30.7871 148.998 30.8301 148.732C30.873 148.467 30.8945 148.188 30.8945 147.895ZM29.4941 147.771V147.895C29.4941 148.07 29.4844 148.24 29.4648 148.404C29.4453 148.568 29.416 148.721 29.377 148.861C29.3301 149.049 29.2617 149.219 29.1719 149.371C29.0859 149.52 28.9746 149.643 28.8379 149.74C28.7363 149.811 28.6211 149.867 28.4922 149.91C28.3633 149.949 28.2188 149.969 28.0586 149.969C27.8828 149.969 27.7227 149.947 27.5781 149.904C27.4375 149.857 27.3125 149.795 27.2031 149.717C27.1055 149.643 27.0176 149.559 26.9395 149.465C26.8652 149.367 26.8008 149.26 26.7461 149.143V146.518C26.793 146.416 26.8477 146.322 26.9102 146.236C26.9766 146.146 27.0508 146.068 27.1328 146.002C27.2461 145.904 27.3789 145.83 27.5312 145.779C27.6836 145.725 27.8555 145.697 28.0469 145.697C28.2031 145.697 28.3438 145.715 28.4688 145.75C28.5938 145.785 28.7051 145.838 28.8027 145.908C28.9512 146.01 29.0684 146.135 29.1543 146.283C29.2441 146.428 29.3164 146.59 29.3711 146.77C29.4102 146.918 29.4395 147.078 29.459 147.25C29.4824 147.418 29.4941 147.592 29.4941 147.771ZM32.2715 147.771V147.895C32.2715 148.359 32.3379 148.787 32.4707 149.178C32.6035 149.568 32.7969 149.908 33.0508 150.197C33.3008 150.486 33.6094 150.713 33.9766 150.877C34.3438 151.041 34.7598 151.123 35.2246 151.123C35.6855 151.123 36.0977 151.041 36.4609 150.877C36.8281 150.713 37.1367 150.486 37.3867 150.197C37.6367 149.908 37.8281 149.568 37.9609 149.178C38.0938 148.787 38.1602 148.359 38.1602 147.895V147.771C38.1602 147.311 38.0938 146.885 37.9609 146.494C37.8281 146.1 37.6367 145.758 37.3867 145.469C37.1328 145.18 36.8223 144.953 36.4551 144.789C36.0918 144.625 35.6777 144.543 35.2129 144.543C34.748 144.543 34.334 144.625 33.9707 144.789C33.6074 144.953 33.3008 145.18 33.0508 145.469C32.7969 145.758 32.6035 146.1 32.4707 146.494C32.3379 146.885 32.2715 147.311 32.2715 147.771ZM33.6719 147.895V147.771C33.6719 147.494 33.7012 147.229 33.7598 146.975C33.8223 146.721 33.916 146.498 34.041 146.307C34.1699 146.115 34.3301 145.963 34.5215 145.85C34.7168 145.736 34.9473 145.68 35.2129 145.68C35.4824 145.68 35.7129 145.736 35.9043 145.85C36.0996 145.963 36.2598 146.115 36.3848 146.307C36.5098 146.498 36.6035 146.721 36.666 146.975C36.7285 147.229 36.7598 147.494 36.7598 147.771V147.895C36.7598 148.18 36.7285 148.449 36.666 148.703C36.6074 148.957 36.5156 149.18 36.3906 149.371C36.2656 149.562 36.1055 149.715 35.9102 149.828C35.7148 149.938 35.4863 149.992 35.2246 149.992C34.9551 149.992 34.7227 149.938 34.5273 149.828C34.332 149.715 34.1699 149.562 34.041 149.371C33.916 149.18 33.8223 148.957 33.7598 148.703C33.7012 148.449 33.6719 148.18 33.6719 147.895ZM39.5488 147.783V147.906C39.5488 148.363 39.6074 148.789 39.7246 149.184C39.8418 149.574 40.0078 149.912 40.2227 150.197C40.4375 150.486 40.6992 150.713 41.0078 150.877C41.3164 151.037 41.6641 151.117 42.0508 151.117C42.418 151.117 42.7422 151.051 43.0234 150.918C43.3047 150.781 43.5469 150.588 43.75 150.338L43.8145 151H45.0859V142H43.6855V145.252C43.4824 145.025 43.248 144.852 42.9824 144.73C42.7207 144.605 42.4141 144.543 42.0625 144.543C41.6719 144.543 41.3203 144.623 41.0078 144.783C40.6992 144.939 40.4375 145.16 40.2227 145.445C40.0039 145.73 39.8359 146.072 39.7188 146.471C39.6055 146.865 39.5488 147.303 39.5488 147.783ZM40.9492 147.906V147.783C40.9492 147.498 40.9766 147.23 41.0312 146.98C41.0859 146.727 41.1719 146.504 41.2891 146.312C41.4062 146.121 41.5566 145.971 41.7402 145.861C41.9277 145.752 42.1523 145.697 42.4141 145.697C42.7266 145.697 42.9844 145.768 43.1875 145.908C43.3945 146.045 43.5605 146.23 43.6855 146.465V149.189C43.5605 149.428 43.3945 149.617 43.1875 149.758C42.9805 149.895 42.7188 149.963 42.4023 149.963C42.1445 149.963 41.9238 149.91 41.7402 149.805C41.5566 149.695 41.4062 149.547 41.2891 149.359C41.1719 149.172 41.0859 148.953 41.0312 148.703C40.9766 148.453 40.9492 148.188 40.9492 147.906ZM47.7402 153.561C48.0488 153.561 48.3184 153.506 48.5488 153.396C48.7793 153.291 48.9785 153.158 49.1465 152.998C49.3145 152.842 49.4531 152.67 49.5625 152.482C49.6758 152.299 49.7695 152.125 49.8438 151.961L53.0605 144.66H51.5078L49.9785 148.551L49.7148 149.23L49.498 148.533L47.9219 144.66H46.3809L49.082 150.719L48.6836 151.475C48.6406 151.561 48.5938 151.643 48.543 151.721C48.4961 151.799 48.4336 151.889 48.3555 151.99C48.2734 152.092 48.1777 152.182 48.0684 152.26C47.959 152.342 47.8359 152.383 47.6992 152.383C47.6367 152.383 47.5547 152.379 47.4531 152.371C47.3555 152.367 47.2676 152.363 47.1895 152.359L46.9961 153.455C47.1094 153.482 47.2285 153.506 47.3535 153.525C47.4785 153.549 47.6074 153.561 47.7402 153.561ZM26.7227 161.562V158H25.3223V167H26.7227V162.412C26.7891 162.311 26.8652 162.219 26.9512 162.137C27.041 162.055 27.1367 161.984 27.2383 161.926C27.3594 161.852 27.4922 161.795 27.6367 161.756C27.7852 161.717 27.9414 161.697 28.1055 161.697C28.3164 161.697 28.502 161.727 28.6621 161.785C28.8262 161.84 28.9648 161.926 29.0781 162.043C29.1875 162.152 29.2695 162.295 29.3242 162.471C29.3828 162.646 29.4121 162.852 29.4121 163.086V167H30.8125V163.098C30.8125 162.648 30.7578 162.264 30.6484 161.943C30.543 161.619 30.3926 161.354 30.1973 161.146C30.002 160.939 29.7656 160.787 29.4883 160.689C29.2148 160.592 28.9121 160.543 28.5801 160.543C28.3418 160.543 28.1152 160.578 27.9004 160.648C27.6895 160.715 27.4961 160.812 27.3203 160.941C27.207 161.02 27.0996 161.111 26.998 161.217C26.8965 161.322 26.8047 161.438 26.7227 161.562ZM35.3418 159.113H33.9355V160.66H32.4004V161.709H33.9355V164.826C33.9355 165.232 33.9883 165.58 34.0938 165.869C34.2031 166.158 34.3535 166.396 34.5449 166.584C34.7363 166.768 34.9648 166.904 35.2305 166.994C35.5 167.08 35.7949 167.123 36.1152 167.123C36.291 167.123 36.4668 167.113 36.6426 167.094C36.8223 167.078 36.9941 167.055 37.1582 167.023C37.3223 166.992 37.4746 166.955 37.6152 166.912C37.7598 166.865 37.8828 166.811 37.9844 166.748L37.832 165.781C37.7617 165.797 37.6738 165.816 37.5684 165.84C37.4668 165.859 37.3555 165.877 37.2344 165.893C37.1172 165.912 36.9941 165.928 36.8652 165.939C36.7363 165.951 36.6113 165.957 36.4902 165.957C36.3223 165.957 36.168 165.938 36.0273 165.898C35.8867 165.859 35.7656 165.793 35.6641 165.699C35.5625 165.609 35.4824 165.486 35.4238 165.33C35.3691 165.17 35.3418 164.973 35.3418 164.738V161.709H37.7266V160.66H35.3418V159.113ZM40.5332 160.66H39.3145V167H40.6035V162.131C40.627 162.072 40.6523 162.02 40.6797 161.973C40.7109 161.926 40.7461 161.885 40.7852 161.85C40.8359 161.799 40.8965 161.762 40.9668 161.738C41.041 161.711 41.125 161.697 41.2188 161.697C41.3047 161.697 41.3809 161.709 41.4473 161.732C41.5176 161.756 41.5781 161.793 41.6289 161.844C41.6797 161.895 41.7168 161.965 41.7402 162.055C41.7676 162.141 41.7812 162.246 41.7812 162.371V167H43.0469V162.295C43.0469 162.256 43.0469 162.227 43.0469 162.207C43.0469 162.184 43.0469 162.164 43.0469 162.148C43.0625 162.082 43.0859 162.023 43.1172 161.973C43.1484 161.918 43.1875 161.871 43.2344 161.832C43.2852 161.789 43.3438 161.756 43.4102 161.732C43.4766 161.709 43.5566 161.697 43.6504 161.697C43.7324 161.697 43.8086 161.709 43.8789 161.732C43.9531 161.756 44.0156 161.793 44.0664 161.844C44.1172 161.898 44.1562 161.971 44.1836 162.061C44.2109 162.146 44.2246 162.252 44.2246 162.377V167H45.5137V162.389C45.5137 162.057 45.4785 161.773 45.4082 161.539C45.3418 161.301 45.2461 161.107 45.1211 160.959C44.9961 160.818 44.8477 160.715 44.6758 160.648C44.5078 160.578 44.3223 160.543 44.1191 160.543C43.9629 160.543 43.8184 160.562 43.6855 160.602C43.5566 160.641 43.4395 160.695 43.334 160.766C43.252 160.82 43.1758 160.887 43.1055 160.965C43.0352 161.043 42.9727 161.127 42.918 161.217C42.8789 161.119 42.832 161.033 42.7773 160.959C42.7227 160.881 42.6602 160.814 42.5898 160.76C42.5 160.686 42.3926 160.631 42.2676 160.596C42.1426 160.561 42.002 160.543 41.8457 160.543C41.5449 160.543 41.2871 160.615 41.0723 160.76C40.8613 160.904 40.6953 161.104 40.5742 161.357L40.5332 160.66ZM47.2129 158V159.166H49.2168V165.84H47.2129V167H52.5508V165.84H50.6289V158H47.2129Z" fill="#F78C6C"/>
<path d="M66.8359 55V46.4688H65.459V50.0371H62.5879V46.4688H61.2168V55H62.5879V51.1973H65.459V55H66.8359ZM74.582 47.6348V46.4688H67.9375V47.6348H70.5508V55H71.9512V47.6348H74.582ZM77.4062 46.4688H75.6602V55H76.9785V52.1055L76.9023 48.4375L78.0918 52.3691H78.8242L80.1367 48.2969L80.0547 52.1055V55H81.3789V46.4688H79.627L78.4609 50.1191L77.4062 46.4688ZM84.4785 53.8398V46.4688H83.0664V55H88.5508V53.8398H84.4785ZM103.41 47.6348V46.4688H96.7656V47.6348H99.3789V55H100.779V47.6348H103.41ZM108.754 55H110.025V48.6602H108.619V53.1484C108.564 53.2656 108.498 53.373 108.42 53.4707C108.342 53.5645 108.252 53.6465 108.15 53.7168C108.029 53.7949 107.889 53.8574 107.729 53.9043C107.568 53.9473 107.387 53.9688 107.184 53.9688C106.988 53.9688 106.818 53.9434 106.674 53.8926C106.529 53.8418 106.41 53.7559 106.316 53.6348C106.223 53.5176 106.154 53.3613 106.111 53.166C106.068 52.9668 106.047 52.7207 106.047 52.4277V48.6602H104.646V52.416C104.646 52.8926 104.699 53.3027 104.805 53.6465C104.91 53.9863 105.059 54.2656 105.25 54.4844C105.445 54.7031 105.678 54.8652 105.947 54.9707C106.221 55.0723 106.523 55.123 106.855 55.123C107.234 55.123 107.578 55.0352 107.887 54.8594C108.195 54.6797 108.457 54.4316 108.672 54.1152L108.754 55ZM114.619 47.1133H113.213V48.6602H111.678V49.709H113.213V52.8262C113.213 53.2324 113.266 53.5801 113.371 53.8691C113.48 54.1582 113.631 54.3965 113.822 54.584C114.014 54.7676 114.242 54.9043 114.508 54.9941C114.777 55.0801 115.072 55.123 115.393 55.123C115.568 55.123 115.744 55.1133 115.92 55.0938C116.1 55.0781 116.271 55.0547 116.436 55.0234C116.6 54.9922 116.752 54.9551 116.893 54.9121C117.037 54.8652 117.16 54.8105 117.262 54.748L117.109 53.7812C117.039 53.7969 116.951 53.8164 116.846 53.8398C116.744 53.8594 116.633 53.877 116.512 53.8926C116.395 53.9121 116.271 53.9277 116.143 53.9395C116.014 53.9512 115.889 53.957 115.768 53.957C115.6 53.957 115.445 53.9375 115.305 53.8984C115.164 53.8594 115.043 53.793 114.941 53.6992C114.84 53.6094 114.76 53.4863 114.701 53.3301C114.646 53.1699 114.619 52.9727 114.619 52.7383V49.709H117.004V48.6602H114.619V47.1133ZM118.756 51.7715V51.8945C118.756 52.3594 118.822 52.7871 118.955 53.1777C119.088 53.5684 119.281 53.9082 119.535 54.1973C119.785 54.4863 120.094 54.7129 120.461 54.877C120.828 55.041 121.244 55.123 121.709 55.123C122.17 55.123 122.582 55.041 122.945 54.877C123.312 54.7129 123.621 54.4863 123.871 54.1973C124.121 53.9082 124.312 53.5684 124.445 53.1777C124.578 52.7871 124.645 52.3594 124.645 51.8945V51.7715C124.645 51.3105 124.578 50.8848 124.445 50.4941C124.312 50.0996 124.121 49.7578 123.871 49.4688C123.617 49.1797 123.307 48.9531 122.939 48.7891C122.576 48.625 122.162 48.543 121.697 48.543C121.232 48.543 120.818 48.625 120.455 48.7891C120.092 48.9531 119.785 49.1797 119.535 49.4688C119.281 49.7578 119.088 50.0996 118.955 50.4941C118.822 50.8848 118.756 51.3105 118.756 51.7715ZM120.156 51.8945V51.7715C120.156 51.4941 120.186 51.2285 120.244 50.9746C120.307 50.7207 120.4 50.498 120.525 50.3066C120.654 50.1152 120.814 49.9629 121.006 49.8496C121.201 49.7363 121.432 49.6797 121.697 49.6797C121.967 49.6797 122.197 49.7363 122.389 49.8496C122.584 49.9629 122.744 50.1152 122.869 50.3066C122.994 50.498 123.088 50.7207 123.15 50.9746C123.213 51.2285 123.244 51.4941 123.244 51.7715V51.8945C123.244 52.1797 123.213 52.4492 123.15 52.7031C123.092 52.957 123 53.1797 122.875 53.3711C122.75 53.5625 122.59 53.7148 122.395 53.8281C122.199 53.9375 121.971 53.9922 121.709 53.9922C121.439 53.9922 121.207 53.9375 121.012 53.8281C120.816 53.7148 120.654 53.5625 120.525 53.3711C120.4 53.1797 120.307 52.957 120.244 52.7031C120.186 52.4492 120.156 52.1797 120.156 51.8945ZM130.604 48.543C130.166 48.543 129.766 48.6445 129.402 48.8477C129.043 49.0508 128.734 49.3301 128.477 49.6855L128.471 49.5391L128.412 48.6602H127.1V55H128.5V51.0859C128.574 50.8984 128.666 50.7324 128.775 50.5879C128.885 50.4434 129.018 50.3242 129.174 50.2305C129.318 50.1328 129.484 50.0605 129.672 50.0137C129.859 49.9668 130.07 49.9434 130.305 49.9434C130.512 49.9434 130.719 49.9551 130.926 49.9785C131.137 50.002 131.35 50.0371 131.564 50.084L131.764 48.7012C131.643 48.6582 131.475 48.6211 131.26 48.5898C131.049 48.5586 130.83 48.543 130.604 48.543ZM133.75 48.6602V49.8262H135.701V53.8398H133.75V55H138.977V53.8398H137.113V48.6602H133.75ZM135.572 47.0195C135.572 47.168 135.607 47.2988 135.678 47.4121C135.752 47.5215 135.859 47.5977 136 47.6406C136.137 47.6836 136.262 47.6934 136.375 47.6699C136.488 47.6465 136.586 47.5977 136.668 47.5234C136.832 47.4805 136.957 47.3965 137.043 47.2715C137.129 47.1426 137.158 46.9922 137.131 46.8203C137.111 46.6523 137.035 46.5156 136.902 46.4102C136.773 46.3008 136.604 46.2461 136.393 46.2461C136.268 46.2461 136.154 46.2656 136.053 46.3047C135.955 46.3398 135.871 46.3906 135.801 46.457C135.727 46.5273 135.67 46.6113 135.631 46.709C135.592 46.8027 135.572 46.9062 135.572 47.0195ZM144.684 55H146.113V54.9004C146.035 54.7363 145.975 54.541 145.932 54.3145C145.893 54.084 145.873 53.8262 145.873 53.541V50.7227C145.873 50.3633 145.807 50.0469 145.674 49.7734C145.541 49.4961 145.357 49.2676 145.123 49.0879C144.889 48.9082 144.609 48.7734 144.285 48.6836C143.965 48.5898 143.619 48.543 143.248 48.543C142.834 48.543 142.465 48.5977 142.141 48.707C141.82 48.8125 141.549 48.957 141.326 49.1406C141.104 49.3203 140.934 49.5273 140.816 49.7617C140.699 49.9961 140.639 50.2402 140.635 50.4941H142.041C142.041 50.373 142.062 50.2598 142.105 50.1543C142.152 50.0449 142.223 49.9531 142.316 49.8789C142.41 49.7969 142.527 49.7324 142.668 49.6855C142.812 49.6387 142.98 49.6152 143.172 49.6152C143.383 49.6152 143.568 49.6426 143.729 49.6973C143.893 49.748 144.031 49.8223 144.145 49.9199C144.25 50.0176 144.33 50.1328 144.385 50.2656C144.443 50.3984 144.473 50.5469 144.473 50.7109V51.1387H143.453C142.996 51.1387 142.586 51.1816 142.223 51.2676C141.863 51.3535 141.561 51.4785 141.314 51.6426C141.049 51.8184 140.846 52.041 140.705 52.3105C140.568 52.5762 140.5 52.8828 140.5 53.2305C140.5 53.5 140.553 53.752 140.658 53.9863C140.768 54.2168 140.918 54.4141 141.109 54.5781C141.305 54.7461 141.537 54.8789 141.807 54.9766C142.08 55.0703 142.381 55.1172 142.709 55.1172C142.912 55.1172 143.102 55.0977 143.277 55.0586C143.453 55.0195 143.617 54.9648 143.77 54.8945C143.922 54.8281 144.059 54.75 144.18 54.6602C144.305 54.5664 144.416 54.4688 144.514 54.3672C144.533 54.4883 144.555 54.6055 144.578 54.7188C144.605 54.8281 144.641 54.9219 144.684 55ZM142.979 53.9922C142.799 53.9922 142.643 53.9707 142.51 53.9277C142.377 53.8809 142.266 53.8184 142.176 53.7402C142.086 53.6621 142.018 53.5684 141.971 53.459C141.924 53.3457 141.9 53.2246 141.9 53.0957C141.9 52.9395 141.928 52.7988 141.982 52.6738C142.041 52.5488 142.129 52.4414 142.246 52.3516C142.379 52.2461 142.557 52.166 142.779 52.1113C143.002 52.0527 143.266 52.0234 143.57 52.0234H144.473V53.1953C144.422 53.2969 144.35 53.3945 144.256 53.4883C144.162 53.582 144.051 53.666 143.922 53.7402C143.793 53.8145 143.648 53.875 143.488 53.9219C143.332 53.9688 143.162 53.9922 142.979 53.9922ZM148.111 46V47.166H150.115V53.8398H148.111V55H153.449V53.8398H151.527V46H148.111ZM45.7539 95.6348V94.4688H39.1094V95.6348H41.7227V103H43.123V95.6348H45.7539ZM48.3438 97.5625V94H46.9434V103H48.3438V98.4121C48.4102 98.3105 48.4863 98.2188 48.5723 98.1367C48.6621 98.0547 48.7578 97.9844 48.8594 97.9258C48.9805 97.8516 49.1133 97.7949 49.2578 97.7559C49.4062 97.7168 49.5625 97.6973 49.7266 97.6973C49.9375 97.6973 50.123 97.7266 50.2832 97.7852C50.4473 97.8398 50.5859 97.9258 50.6992 98.043C50.8086 98.1523 50.8906 98.2949 50.9453 98.4707C51.0039 98.6465 51.0332 98.8516 51.0332 99.0859V103H52.4336V99.0977C52.4336 98.6484 52.3789 98.2637 52.2695 97.9434C52.1641 97.6191 52.0137 97.3535 51.8184 97.1465C51.623 96.9395 51.3867 96.7871 51.1094 96.6895C50.8359 96.5918 50.5332 96.543 50.2012 96.543C49.9629 96.543 49.7363 96.5781 49.5215 96.6484C49.3105 96.7148 49.1172 96.8125 48.9414 96.9414C48.8281 97.0195 48.7207 97.1113 48.6191 97.2168C48.5176 97.3223 48.4258 97.4375 48.3438 97.5625ZM54.4727 96.6602V97.8262H56.4238V101.84H54.4727V103H59.6992V101.84H57.8359V96.6602H54.4727ZM56.2949 95.0195C56.2949 95.168 56.3301 95.2988 56.4004 95.4121C56.4746 95.5215 56.582 95.5977 56.7227 95.6406C56.8594 95.6836 56.9844 95.6934 57.0977 95.6699C57.2109 95.6465 57.3086 95.5977 57.3906 95.5234C57.5547 95.4805 57.6797 95.3965 57.7656 95.2715C57.8516 95.1426 57.8809 94.9922 57.8535 94.8203C57.834 94.6523 57.7578 94.5156 57.625 94.4102C57.4961 94.3008 57.3262 94.2461 57.1152 94.2461C56.9902 94.2461 56.877 94.2656 56.7754 94.3047C56.6777 94.3398 56.5938 94.3906 56.5234 94.457C56.4492 94.5273 56.3926 94.6113 56.3535 94.709C56.3145 94.8027 56.2949 94.9062 56.2949 95.0195ZM65.5 101.283C65.5 101.385 65.4766 101.479 65.4297 101.564C65.3867 101.646 65.3203 101.723 65.2305 101.793C65.1211 101.879 64.9746 101.947 64.791 101.998C64.6113 102.049 64.4004 102.074 64.1582 102.074C63.9785 102.074 63.8008 102.057 63.625 102.021C63.4492 101.982 63.293 101.92 63.1562 101.834C63.0156 101.752 62.8984 101.645 62.8047 101.512C62.7148 101.375 62.6641 101.209 62.6523 101.014H61.293C61.293 101.275 61.3555 101.533 61.4805 101.787C61.6055 102.041 61.7891 102.266 62.0312 102.461C62.2695 102.66 62.5645 102.82 62.916 102.941C63.2715 103.062 63.6777 103.123 64.1348 103.123C64.5449 103.123 64.918 103.076 65.2539 102.982C65.5898 102.889 65.8789 102.758 66.1211 102.59C66.3594 102.422 66.543 102.221 66.6719 101.986C66.8047 101.752 66.8711 101.494 66.8711 101.213C66.8711 100.924 66.8086 100.674 66.6836 100.463C66.5586 100.252 66.3828 100.068 66.1562 99.9121C65.9297 99.7637 65.6562 99.6387 65.3359 99.5371C65.0156 99.4355 64.6621 99.3496 64.2754 99.2793C63.998 99.2324 63.7676 99.1797 63.584 99.1211C63.4043 99.0625 63.2637 98.998 63.1621 98.9277C63.0527 98.8613 62.9766 98.7852 62.9336 98.6992C62.8906 98.6094 62.8691 98.5098 62.8691 98.4004C62.8691 98.2949 62.8945 98.1953 62.9453 98.1016C62.9961 98.0039 63.0723 97.9199 63.1738 97.8496C63.2754 97.7715 63.4043 97.7109 63.5605 97.668C63.7207 97.6211 63.9062 97.5977 64.1172 97.5977C64.3477 97.5977 64.5488 97.6289 64.7207 97.6914C64.8926 97.75 65.0332 97.8301 65.1426 97.9316C65.2363 98.0176 65.3066 98.1152 65.3535 98.2246C65.4043 98.3301 65.4297 98.4414 65.4297 98.5586H66.8301C66.8301 98.2734 66.7676 98.0078 66.6426 97.7617C66.5176 97.5156 66.3398 97.3027 66.1094 97.123C65.875 96.9434 65.5898 96.8027 65.2539 96.7012C64.918 96.5957 64.5391 96.543 64.1172 96.543C63.7227 96.543 63.3633 96.5938 63.0391 96.6953C62.7188 96.7969 62.4453 96.9355 62.2188 97.1113C61.9883 97.2871 61.8105 97.4922 61.6855 97.7266C61.5645 97.957 61.5039 98.2012 61.5039 98.459C61.5039 98.7285 61.5645 98.9648 61.6855 99.168C61.8066 99.3672 61.9746 99.543 62.1895 99.6953C62.4082 99.8516 62.668 99.9844 62.9688 100.094C63.2734 100.203 63.6094 100.295 63.9766 100.369C64.2695 100.424 64.5137 100.482 64.709 100.545C64.9043 100.607 65.0625 100.674 65.1836 100.744C65.2969 100.822 65.377 100.904 65.4238 100.99C65.4746 101.076 65.5 101.174 65.5 101.283ZM76.0938 96.6602V97.8262H78.0449V101.84H76.0938V103H81.3203V101.84H79.457V96.6602H76.0938ZM77.916 95.0195C77.916 95.168 77.9512 95.2988 78.0215 95.4121C78.0957 95.5215 78.2031 95.5977 78.3438 95.6406C78.4805 95.6836 78.6055 95.6934 78.7188 95.6699C78.832 95.6465 78.9297 95.5977 79.0117 95.5234C79.1758 95.4805 79.3008 95.3965 79.3867 95.2715C79.4727 95.1426 79.502 94.9922 79.4746 94.8203C79.4551 94.6523 79.3789 94.5156 79.2461 94.4102C79.1172 94.3008 78.9473 94.2461 78.7363 94.2461C78.6113 94.2461 78.498 94.2656 78.3965 94.3047C78.2988 94.3398 78.2148 94.3906 78.1445 94.457C78.0703 94.5273 78.0137 94.6113 77.9746 94.709C77.9355 94.8027 77.916 94.9062 77.916 95.0195ZM87.1211 101.283C87.1211 101.385 87.0977 101.479 87.0508 101.564C87.0078 101.646 86.9414 101.723 86.8516 101.793C86.7422 101.879 86.5957 101.947 86.4121 101.998C86.2324 102.049 86.0215 102.074 85.7793 102.074C85.5996 102.074 85.4219 102.057 85.2461 102.021C85.0703 101.982 84.9141 101.92 84.7773 101.834C84.6367 101.752 84.5195 101.645 84.4258 101.512C84.3359 101.375 84.2852 101.209 84.2734 101.014H82.9141C82.9141 101.275 82.9766 101.533 83.1016 101.787C83.2266 102.041 83.4102 102.266 83.6523 102.461C83.8906 102.66 84.1855 102.82 84.5371 102.941C84.8926 103.062 85.2988 103.123 85.7559 103.123C86.166 103.123 86.5391 103.076 86.875 102.982C87.2109 102.889 87.5 102.758 87.7422 102.59C87.9805 102.422 88.1641 102.221 88.293 101.986C88.4258 101.752 88.4922 101.494 88.4922 101.213C88.4922 100.924 88.4297 100.674 88.3047 100.463C88.1797 100.252 88.0039 100.068 87.7773 99.9121C87.5508 99.7637 87.2773 99.6387 86.957 99.5371C86.6367 99.4355 86.2832 99.3496 85.8965 99.2793C85.6191 99.2324 85.3887 99.1797 85.2051 99.1211C85.0254 99.0625 84.8848 98.998 84.7832 98.9277C84.6738 98.8613 84.5977 98.7852 84.5547 98.6992C84.5117 98.6094 84.4902 98.5098 84.4902 98.4004C84.4902 98.2949 84.5156 98.1953 84.5664 98.1016C84.6172 98.0039 84.6934 97.9199 84.7949 97.8496C84.8965 97.7715 85.0254 97.7109 85.1816 97.668C85.3418 97.6211 85.5273 97.5977 85.7383 97.5977C85.9688 97.5977 86.1699 97.6289 86.3418 97.6914C86.5137 97.75 86.6543 97.8301 86.7637 97.9316C86.8574 98.0176 86.9277 98.1152 86.9746 98.2246C87.0254 98.3301 87.0508 98.4414 87.0508 98.5586H88.4512C88.4512 98.2734 88.3887 98.0078 88.2637 97.7617C88.1387 97.5156 87.9609 97.3027 87.7305 97.123C87.4961 96.9434 87.2109 96.8027 86.875 96.7012C86.5391 96.5957 86.1602 96.543 85.7383 96.543C85.3438 96.543 84.9844 96.5938 84.6602 96.6953C84.3398 96.7969 84.0664 96.9355 83.8398 97.1113C83.6094 97.2871 83.4316 97.4922 83.3066 97.7266C83.1855 97.957 83.125 98.2012 83.125 98.459C83.125 98.7285 83.1855 98.9648 83.3066 99.168C83.4277 99.3672 83.5957 99.543 83.8105 99.6953C84.0293 99.8516 84.2891 99.9844 84.5898 100.094C84.8945 100.203 85.2305 100.295 85.5977 100.369C85.8906 100.424 86.1348 100.482 86.3301 100.545C86.5254 100.607 86.6836 100.674 86.8047 100.744C86.918 100.822 86.998 100.904 87.0449 100.99C87.0957 101.076 87.1211 101.174 87.1211 101.283ZM101.441 103H102.871V102.9C102.793 102.736 102.732 102.541 102.689 102.314C102.65 102.084 102.631 101.826 102.631 101.541V98.7227C102.631 98.3633 102.564 98.0469 102.432 97.7734C102.299 97.4961 102.115 97.2676 101.881 97.0879C101.646 96.9082 101.367 96.7734 101.043 96.6836C100.723 96.5898 100.377 96.543 100.006 96.543C99.5918 96.543 99.2227 96.5977 98.8984 96.707C98.5781 96.8125 98.3066 96.957 98.084 97.1406C97.8613 97.3203 97.6914 97.5273 97.5742 97.7617C97.457 97.9961 97.3965 98.2402 97.3926 98.4941H98.7988C98.7988 98.373 98.8203 98.2598 98.8633 98.1543C98.9102 98.0449 98.9805 97.9531 99.0742 97.8789C99.168 97.7969 99.2852 97.7324 99.4258 97.6855C99.5703 97.6387 99.7383 97.6152 99.9297 97.6152C100.141 97.6152 100.326 97.6426 100.486 97.6973C100.65 97.748 100.789 97.8223 100.902 97.9199C101.008 98.0176 101.088 98.1328 101.143 98.2656C101.201 98.3984 101.23 98.5469 101.23 98.7109V99.1387H100.211C99.7539 99.1387 99.3438 99.1816 98.9805 99.2676C98.6211 99.3535 98.3184 99.4785 98.0723 99.6426C97.8066 99.8184 97.6035 100.041 97.4629 100.311C97.3262 100.576 97.2578 100.883 97.2578 101.23C97.2578 101.5 97.3105 101.752 97.416 101.986C97.5254 102.217 97.6758 102.414 97.8672 102.578C98.0625 102.746 98.2949 102.879 98.5645 102.977C98.8379 103.07 99.1387 103.117 99.4668 103.117C99.6699 103.117 99.8594 103.098 100.035 103.059C100.211 103.02 100.375 102.965 100.527 102.895C100.68 102.828 100.816 102.75 100.938 102.66C101.062 102.566 101.174 102.469 101.271 102.367C101.291 102.488 101.312 102.605 101.336 102.719C101.363 102.828 101.398 102.922 101.441 103ZM99.7363 101.992C99.5566 101.992 99.4004 101.971 99.2676 101.928C99.1348 101.881 99.0234 101.818 98.9336 101.74C98.8438 101.662 98.7754 101.568 98.7285 101.459C98.6816 101.346 98.6582 101.225 98.6582 101.096C98.6582 100.939 98.6855 100.799 98.7402 100.674C98.7988 100.549 98.8867 100.441 99.0039 100.352C99.1367 100.246 99.3145 100.166 99.5371 100.111C99.7598 100.053 100.023 100.023 100.328 100.023H101.23V101.195C101.18 101.297 101.107 101.395 101.014 101.488C100.92 101.582 100.809 101.666 100.68 101.74C100.551 101.814 100.406 101.875 100.246 101.922C100.09 101.969 99.9199 101.992 99.7363 101.992ZM113.207 97.5625V94H111.807V103H113.207V98.4121C113.273 98.3105 113.35 98.2188 113.436 98.1367C113.525 98.0547 113.621 97.9844 113.723 97.9258C113.844 97.8516 113.977 97.7949 114.121 97.7559C114.27 97.7168 114.426 97.6973 114.59 97.6973C114.801 97.6973 114.986 97.7266 115.146 97.7852C115.311 97.8398 115.449 97.9258 115.562 98.043C115.672 98.1523 115.754 98.2949 115.809 98.4707C115.867 98.6465 115.896 98.8516 115.896 99.0859V103H117.297V99.0977C117.297 98.6484 117.242 98.2637 117.133 97.9434C117.027 97.6191 116.877 97.3535 116.682 97.1465C116.486 96.9395 116.25 96.7871 115.973 96.6895C115.699 96.5918 115.396 96.543 115.064 96.543C114.826 96.543 114.6 96.5781 114.385 96.6484C114.174 96.7148 113.98 96.8125 113.805 96.9414C113.691 97.0195 113.584 97.1113 113.482 97.2168C113.381 97.3223 113.289 97.4375 113.207 97.5625ZM121.973 103.117C122.59 103.117 123.115 102.996 123.549 102.754C123.986 102.512 124.311 102.238 124.521 101.934L123.771 101.207C123.576 101.457 123.328 101.65 123.027 101.787C122.727 101.92 122.402 101.986 122.055 101.986C121.801 101.986 121.566 101.943 121.352 101.857C121.141 101.771 120.957 101.65 120.801 101.494C120.645 101.346 120.521 101.178 120.432 100.99C120.342 100.803 120.275 100.57 120.232 100.293V100.264H124.627V99.6602C124.627 99.207 124.566 98.7891 124.445 98.4062C124.324 98.0234 124.145 97.6934 123.906 97.416C123.668 97.1426 123.373 96.9297 123.021 96.7773C122.67 96.6211 122.266 96.543 121.809 96.543C121.398 96.543 121.012 96.6211 120.648 96.7773C120.289 96.9297 119.973 97.1484 119.699 97.4336C119.426 97.7188 119.211 98.0625 119.055 98.4648C118.898 98.8672 118.82 99.3164 118.82 99.8125V100.053C118.82 100.486 118.895 100.891 119.043 101.266C119.195 101.637 119.41 101.959 119.688 102.232C119.965 102.51 120.297 102.727 120.684 102.883C121.074 103.039 121.504 103.117 121.973 103.117ZM121.803 97.6797C122.037 97.6797 122.242 97.7207 122.418 97.8027C122.598 97.8809 122.746 97.9863 122.863 98.1191C122.984 98.2559 123.078 98.416 123.145 98.5996C123.211 98.7793 123.244 98.9609 123.244 99.1445V99.2383H120.262C120.305 98.9961 120.371 98.7793 120.461 98.5879C120.551 98.3965 120.662 98.2324 120.795 98.0957C120.928 97.9629 121.078 97.8613 121.246 97.791C121.418 97.7168 121.604 97.6797 121.803 97.6797ZM130.27 103H131.699V102.9C131.621 102.736 131.561 102.541 131.518 102.314C131.479 102.084 131.459 101.826 131.459 101.541V98.7227C131.459 98.3633 131.393 98.0469 131.26 97.7734C131.127 97.4961 130.943 97.2676 130.709 97.0879C130.475 96.9082 130.195 96.7734 129.871 96.6836C129.551 96.5898 129.205 96.543 128.834 96.543C128.42 96.543 128.051 96.5977 127.727 96.707C127.406 96.8125 127.135 96.957 126.912 97.1406C126.689 97.3203 126.52 97.5273 126.402 97.7617C126.285 97.9961 126.225 98.2402 126.221 98.4941H127.627C127.627 98.373 127.648 98.2598 127.691 98.1543C127.738 98.0449 127.809 97.9531 127.902 97.8789C127.996 97.7969 128.113 97.7324 128.254 97.6855C128.398 97.6387 128.566 97.6152 128.758 97.6152C128.969 97.6152 129.154 97.6426 129.314 97.6973C129.479 97.748 129.617 97.8223 129.73 97.9199C129.836 98.0176 129.916 98.1328 129.971 98.2656C130.029 98.3984 130.059 98.5469 130.059 98.7109V99.1387H129.039C128.582 99.1387 128.172 99.1816 127.809 99.2676C127.449 99.3535 127.146 99.4785 126.9 99.6426C126.635 99.8184 126.432 100.041 126.291 100.311C126.154 100.576 126.086 100.883 126.086 101.23C126.086 101.5 126.139 101.752 126.244 101.986C126.354 102.217 126.504 102.414 126.695 102.578C126.891 102.746 127.123 102.879 127.393 102.977C127.666 103.07 127.967 103.117 128.295 103.117C128.498 103.117 128.688 103.098 128.863 103.059C129.039 103.02 129.203 102.965 129.355 102.895C129.508 102.828 129.645 102.75 129.766 102.66C129.891 102.566 130.002 102.469 130.1 102.367C130.119 102.488 130.141 102.605 130.164 102.719C130.191 102.828 130.227 102.922 130.27 103ZM128.564 101.992C128.385 101.992 128.229 101.971 128.096 101.928C127.963 101.881 127.852 101.818 127.762 101.74C127.672 101.662 127.604 101.568 127.557 101.459C127.51 101.346 127.486 101.225 127.486 101.096C127.486 100.939 127.514 100.799 127.568 100.674C127.627 100.549 127.715 100.441 127.832 100.352C127.965 100.246 128.143 100.166 128.365 100.111C128.588 100.053 128.852 100.023 129.156 100.023H130.059V101.195C130.008 101.297 129.936 101.395 129.842 101.488C129.748 101.582 129.637 101.666 129.508 101.74C129.379 101.814 129.234 101.875 129.074 101.922C128.918 101.969 128.748 101.992 128.564 101.992ZM133.24 99.7832V99.9062C133.24 100.363 133.299 100.789 133.416 101.184C133.533 101.574 133.699 101.912 133.914 102.197C134.129 102.486 134.391 102.713 134.699 102.877C135.008 103.037 135.355 103.117 135.742 103.117C136.109 103.117 136.434 103.051 136.715 102.918C136.996 102.781 137.238 102.588 137.441 102.338L137.506 103H138.777V94H137.377V97.252C137.174 97.0254 136.939 96.8516 136.674 96.7305C136.412 96.6055 136.105 96.543 135.754 96.543C135.363 96.543 135.012 96.623 134.699 96.7832C134.391 96.9395 134.129 97.1602 133.914 97.4453C133.695 97.7305 133.527 98.0723 133.41 98.4707C133.297 98.8652 133.24 99.3027 133.24 99.7832ZM134.641 99.9062V99.7832C134.641 99.498 134.668 99.2305 134.723 98.9805C134.777 98.7266 134.863 98.5039 134.98 98.3125C135.098 98.1211 135.248 97.9707 135.432 97.8613C135.619 97.752 135.844 97.6973 136.105 97.6973C136.418 97.6973 136.676 97.7676 136.879 97.9082C137.086 98.0449 137.252 98.2305 137.377 98.4648V101.189C137.252 101.428 137.086 101.617 136.879 101.758C136.672 101.895 136.41 101.963 136.094 101.963C135.836 101.963 135.615 101.91 135.432 101.805C135.248 101.695 135.098 101.547 134.98 101.359C134.863 101.172 134.777 100.953 134.723 100.703C134.668 100.453 134.641 100.188 134.641 99.9062ZM140.957 96.6602V97.8262H142.908V101.84H140.957V103H146.184V101.84H144.32V96.6602H140.957ZM142.779 95.0195C142.779 95.168 142.814 95.2988 142.885 95.4121C142.959 95.5215 143.066 95.5977 143.207 95.6406C143.344 95.6836 143.469 95.6934 143.582 95.6699C143.695 95.6465 143.793 95.5977 143.875 95.5234C144.039 95.4805 144.164 95.3965 144.25 95.2715C144.336 95.1426 144.365 94.9922 144.338 94.8203C144.318 94.6523 144.242 94.5156 144.109 94.4102C143.98 94.3008 143.811 94.2461 143.6 94.2461C143.475 94.2461 143.361 94.2656 143.26 94.3047C143.162 94.3398 143.078 94.3906 143.008 94.457C142.934 94.5273 142.877 94.6113 142.838 94.709C142.799 94.8027 142.779 94.9062 142.779 95.0195ZM147.842 103H149.242V98.4766C149.305 98.3711 149.377 98.2734 149.459 98.1836C149.541 98.0938 149.629 98.0176 149.723 97.9551C149.844 97.873 149.979 97.8105 150.127 97.7676C150.275 97.7207 150.436 97.6973 150.607 97.6973C150.814 97.6973 150.998 97.7207 151.158 97.7676C151.318 97.8105 151.455 97.8848 151.568 97.9902C151.682 98.0957 151.768 98.2363 151.826 98.4121C151.885 98.5879 151.914 98.8066 151.914 99.0684V103H153.314V99.0449C153.314 98.5996 153.262 98.2207 153.156 97.9082C153.051 97.5918 152.902 97.332 152.711 97.1289C152.52 96.9258 152.289 96.7773 152.02 96.6836C151.75 96.5898 151.453 96.543 151.129 96.543C150.883 96.543 150.648 96.5781 150.426 96.6484C150.203 96.7188 149.998 96.8184 149.811 96.9473C149.693 97.0293 149.582 97.123 149.477 97.2285C149.375 97.3301 149.281 97.4414 149.195 97.5625L149.107 96.6602H147.842V103ZM154.867 99.7832V99.9062C154.867 100.363 154.926 100.789 155.043 101.184C155.164 101.574 155.336 101.912 155.559 102.197C155.777 102.486 156.043 102.713 156.355 102.877C156.668 103.037 157.02 103.117 157.41 103.117C157.625 103.117 157.824 103.094 158.008 103.047C158.191 103.004 158.359 102.939 158.512 102.854C158.613 102.799 158.707 102.734 158.793 102.66C158.883 102.586 158.969 102.506 159.051 102.42V102.859C159.051 103.098 159.016 103.311 158.945 103.498C158.879 103.686 158.783 103.844 158.658 103.973C158.521 104.105 158.355 104.207 158.16 104.277C157.969 104.348 157.748 104.383 157.498 104.383C157.354 104.383 157.211 104.367 157.07 104.336C156.93 104.309 156.791 104.264 156.654 104.201C156.518 104.139 156.383 104.057 156.25 103.955C156.121 103.857 156 103.74 155.887 103.604L155.225 104.453C155.365 104.641 155.533 104.801 155.729 104.934C155.924 105.066 156.129 105.174 156.344 105.256C156.559 105.338 156.773 105.398 156.988 105.438C157.203 105.477 157.4 105.496 157.58 105.496C158.006 105.496 158.395 105.436 158.746 105.314C159.102 105.197 159.406 105.025 159.66 104.799C159.91 104.568 160.104 104.287 160.24 103.955C160.381 103.627 160.451 103.25 160.451 102.824V96.6602H159.18L159.121 97.2988C159.043 97.2051 158.959 97.1191 158.869 97.041C158.779 96.959 158.684 96.8887 158.582 96.8301C158.426 96.7363 158.252 96.666 158.061 96.6191C157.869 96.5684 157.656 96.543 157.422 96.543C157.027 96.543 156.672 96.623 156.355 96.7832C156.043 96.9395 155.775 97.1602 155.553 97.4453C155.334 97.7305 155.164 98.0723 155.043 98.4707C154.926 98.8652 154.867 99.3027 154.867 99.7832ZM156.273 99.9062V99.7832C156.273 99.498 156.303 99.2305 156.361 98.9805C156.42 98.7266 156.512 98.5039 156.637 98.3125C156.758 98.1211 156.912 97.9707 157.1 97.8613C157.287 97.752 157.512 97.6973 157.773 97.6973C157.922 97.6973 158.059 97.7148 158.184 97.75C158.309 97.7812 158.422 97.8262 158.523 97.8848C158.637 97.9473 158.736 98.0254 158.822 98.1191C158.912 98.2129 158.988 98.3184 159.051 98.4355V101.213C158.988 101.326 158.916 101.43 158.834 101.523C158.752 101.617 158.658 101.697 158.553 101.764C158.447 101.826 158.328 101.875 158.195 101.91C158.066 101.945 157.922 101.963 157.762 101.963C157.504 101.963 157.281 101.91 157.094 101.805C156.906 101.695 156.752 101.545 156.631 101.354C156.506 101.17 156.414 100.953 156.355 100.703C156.301 100.453 156.273 100.188 156.273 99.9062ZM38.5469 111.635V110.469H31.9023V111.635H34.5156V119H35.916V111.635H38.5469ZM41.1367 113.562V110H39.7363V119H41.1367V114.412C41.2031 114.311 41.2793 114.219 41.3652 114.137C41.4551 114.055 41.5508 113.984 41.6523 113.926C41.7734 113.852 41.9062 113.795 42.0508 113.756C42.1992 113.717 42.3555 113.697 42.5195 113.697C42.7305 113.697 42.916 113.727 43.0762 113.785C43.2402 113.84 43.3789 113.926 43.4922 114.043C43.6016 114.152 43.6836 114.295 43.7383 114.471C43.7969 114.646 43.8262 114.852 43.8262 115.086V119H45.2266V115.098C45.2266 114.648 45.1719 114.264 45.0625 113.943C44.957 113.619 44.8066 113.354 44.6113 113.146C44.416 112.939 44.1797 112.787 43.9023 112.689C43.6289 112.592 43.3262 112.543 42.9941 112.543C42.7559 112.543 42.5293 112.578 42.3145 112.648C42.1035 112.715 41.9102 112.812 41.7344 112.941C41.6211 113.02 41.5137 113.111 41.4121 113.217C41.3105 113.322 41.2188 113.438 41.1367 113.562ZM47.2656 112.66V113.826H49.2168V117.84H47.2656V119H52.4922V117.84H50.6289V112.66H47.2656ZM49.0879 111.02C49.0879 111.168 49.123 111.299 49.1934 111.412C49.2676 111.521 49.375 111.598 49.5156 111.641C49.6523 111.684 49.7773 111.693 49.8906 111.67C50.0039 111.646 50.1016 111.598 50.1836 111.523C50.3477 111.48 50.4727 111.396 50.5586 111.271C50.6445 111.143 50.6738 110.992 50.6465 110.82C50.627 110.652 50.5508 110.516 50.418 110.41C50.2891 110.301 50.1191 110.246 49.9082 110.246C49.7832 110.246 49.6699 110.266 49.5684 110.305C49.4707 110.34 49.3867 110.391 49.3164 110.457C49.2422 110.527 49.1855 110.611 49.1465 110.709C49.1074 110.803 49.0879 110.906 49.0879 111.02ZM58.293 117.283C58.293 117.385 58.2695 117.479 58.2227 117.564C58.1797 117.646 58.1133 117.723 58.0234 117.793C57.9141 117.879 57.7676 117.947 57.584 117.998C57.4043 118.049 57.1934 118.074 56.9512 118.074C56.7715 118.074 56.5938 118.057 56.418 118.021C56.2422 117.982 56.0859 117.92 55.9492 117.834C55.8086 117.752 55.6914 117.645 55.5977 117.512C55.5078 117.375 55.457 117.209 55.4453 117.014H54.0859C54.0859 117.275 54.1484 117.533 54.2734 117.787C54.3984 118.041 54.582 118.266 54.8242 118.461C55.0625 118.66 55.3574 118.82 55.709 118.941C56.0645 119.062 56.4707 119.123 56.9277 119.123C57.3379 119.123 57.7109 119.076 58.0469 118.982C58.3828 118.889 58.6719 118.758 58.9141 118.59C59.1523 118.422 59.3359 118.221 59.4648 117.986C59.5977 117.752 59.6641 117.494 59.6641 117.213C59.6641 116.924 59.6016 116.674 59.4766 116.463C59.3516 116.252 59.1758 116.068 58.9492 115.912C58.7227 115.764 58.4492 115.639 58.1289 115.537C57.8086 115.436 57.4551 115.35 57.0684 115.279C56.791 115.232 56.5605 115.18 56.377 115.121C56.1973 115.062 56.0566 114.998 55.9551 114.928C55.8457 114.861 55.7695 114.785 55.7266 114.699C55.6836 114.609 55.6621 114.51 55.6621 114.4C55.6621 114.295 55.6875 114.195 55.7383 114.102C55.7891 114.004 55.8652 113.92 55.9668 113.85C56.0684 113.771 56.1973 113.711 56.3535 113.668C56.5137 113.621 56.6992 113.598 56.9102 113.598C57.1406 113.598 57.3418 113.629 57.5137 113.691C57.6855 113.75 57.8262 113.83 57.9355 113.932C58.0293 114.018 58.0996 114.115 58.1465 114.225C58.1973 114.33 58.2227 114.441 58.2227 114.559H59.623C59.623 114.273 59.5605 114.008 59.4355 113.762C59.3105 113.516 59.1328 113.303 58.9023 113.123C58.668 112.943 58.3828 112.803 58.0469 112.701C57.7109 112.596 57.332 112.543 56.9102 112.543C56.5156 112.543 56.1562 112.594 55.832 112.695C55.5117 112.797 55.2383 112.936 55.0117 113.111C54.7812 113.287 54.6035 113.492 54.4785 113.727C54.3574 113.957 54.2969 114.201 54.2969 114.459C54.2969 114.729 54.3574 114.965 54.4785 115.168C54.5996 115.367 54.7676 115.543 54.9824 115.695C55.2012 115.852 55.4609 115.984 55.7617 116.094C56.0664 116.203 56.4023 116.295 56.7695 116.369C57.0625 116.424 57.3066 116.482 57.502 116.545C57.6973 116.607 57.8555 116.674 57.9766 116.744C58.0898 116.822 58.1699 116.904 58.2168 116.99C58.2676 117.076 58.293 117.174 58.293 117.283ZM68.8867 112.66V113.826H70.8379V117.84H68.8867V119H74.1133V117.84H72.25V112.66H68.8867ZM70.709 111.02C70.709 111.168 70.7441 111.299 70.8145 111.412C70.8887 111.521 70.9961 111.598 71.1367 111.641C71.2734 111.684 71.3984 111.693 71.5117 111.67C71.625 111.646 71.7227 111.598 71.8047 111.523C71.9688 111.48 72.0938 111.396 72.1797 111.271C72.2656 111.143 72.2949 110.992 72.2676 110.82C72.248 110.652 72.1719 110.516 72.0391 110.41C71.9102 110.301 71.7402 110.246 71.5293 110.246C71.4043 110.246 71.291 110.266 71.1895 110.305C71.0918 110.34 71.0078 110.391 70.9375 110.457C70.8633 110.527 70.8066 110.611 70.7676 110.709C70.7285 110.803 70.709 110.906 70.709 111.02ZM79.9141 117.283C79.9141 117.385 79.8906 117.479 79.8438 117.564C79.8008 117.646 79.7344 117.723 79.6445 117.793C79.5352 117.879 79.3887 117.947 79.2051 117.998C79.0254 118.049 78.8145 118.074 78.5723 118.074C78.3926 118.074 78.2148 118.057 78.0391 118.021C77.8633 117.982 77.707 117.92 77.5703 117.834C77.4297 117.752 77.3125 117.645 77.2188 117.512C77.1289 117.375 77.0781 117.209 77.0664 117.014H75.707C75.707 117.275 75.7695 117.533 75.8945 117.787C76.0195 118.041 76.2031 118.266 76.4453 118.461C76.6836 118.66 76.9785 118.82 77.3301 118.941C77.6855 119.062 78.0918 119.123 78.5488 119.123C78.959 119.123 79.332 119.076 79.668 118.982C80.0039 118.889 80.293 118.758 80.5352 118.59C80.7734 118.422 80.957 118.221 81.0859 117.986C81.2188 117.752 81.2852 117.494 81.2852 117.213C81.2852 116.924 81.2227 116.674 81.0977 116.463C80.9727 116.252 80.7969 116.068 80.5703 115.912C80.3438 115.764 80.0703 115.639 79.75 115.537C79.4297 115.436 79.0762 115.35 78.6895 115.279C78.4121 115.232 78.1816 115.18 77.998 115.121C77.8184 115.062 77.6777 114.998 77.5762 114.928C77.4668 114.861 77.3906 114.785 77.3477 114.699C77.3047 114.609 77.2832 114.51 77.2832 114.4C77.2832 114.295 77.3086 114.195 77.3594 114.102C77.4102 114.004 77.4863 113.92 77.5879 113.85C77.6895 113.771 77.8184 113.711 77.9746 113.668C78.1348 113.621 78.3203 113.598 78.5312 113.598C78.7617 113.598 78.9629 113.629 79.1348 113.691C79.3066 113.75 79.4473 113.83 79.5566 113.932C79.6504 114.018 79.7207 114.115 79.7676 114.225C79.8184 114.33 79.8438 114.441 79.8438 114.559H81.2441C81.2441 114.273 81.1816 114.008 81.0566 113.762C80.9316 113.516 80.7539 113.303 80.5234 113.123C80.2891 112.943 80.0039 112.803 79.668 112.701C79.332 112.596 78.9531 112.543 78.5312 112.543C78.1367 112.543 77.7773 112.594 77.4531 112.695C77.1328 112.797 76.8594 112.936 76.6328 113.111C76.4023 113.287 76.2246 113.492 76.0996 113.727C75.9785 113.957 75.918 114.201 75.918 114.459C75.918 114.729 75.9785 114.965 76.0996 115.168C76.2207 115.367 76.3887 115.543 76.6035 115.695C76.8223 115.852 77.082 115.984 77.3828 116.094C77.6875 116.203 78.0234 116.295 78.3906 116.369C78.6836 116.424 78.9277 116.482 79.123 116.545C79.3184 116.607 79.4766 116.674 79.5977 116.744C79.7109 116.822 79.791 116.904 79.8379 116.99C79.8887 117.076 79.9141 117.174 79.9141 117.283ZM94.2344 119H95.6641V118.9C95.5859 118.736 95.5254 118.541 95.4824 118.314C95.4434 118.084 95.4238 117.826 95.4238 117.541V114.723C95.4238 114.363 95.3574 114.047 95.2246 113.773C95.0918 113.496 94.9082 113.268 94.6738 113.088C94.4395 112.908 94.1602 112.773 93.8359 112.684C93.5156 112.59 93.1699 112.543 92.7988 112.543C92.3848 112.543 92.0156 112.598 91.6914 112.707C91.3711 112.812 91.0996 112.957 90.877 113.141C90.6543 113.32 90.4844 113.527 90.3672 113.762C90.25 113.996 90.1895 114.24 90.1855 114.494H91.5918C91.5918 114.373 91.6133 114.26 91.6562 114.154C91.7031 114.045 91.7734 113.953 91.8672 113.879C91.9609 113.797 92.0781 113.732 92.2188 113.686C92.3633 113.639 92.5312 113.615 92.7227 113.615C92.9336 113.615 93.1191 113.643 93.2793 113.697C93.4434 113.748 93.582 113.822 93.6953 113.92C93.8008 114.018 93.8809 114.133 93.9355 114.266C93.9941 114.398 94.0234 114.547 94.0234 114.711V115.139H93.0039C92.5469 115.139 92.1367 115.182 91.7734 115.268C91.4141 115.354 91.1113 115.479 90.8652 115.643C90.5996 115.818 90.3965 116.041 90.2559 116.311C90.1191 116.576 90.0508 116.883 90.0508 117.23C90.0508 117.5 90.1035 117.752 90.209 117.986C90.3184 118.217 90.4688 118.414 90.6602 118.578C90.8555 118.746 91.0879 118.879 91.3574 118.977C91.6309 119.07 91.9316 119.117 92.2598 119.117C92.4629 119.117 92.6523 119.098 92.8281 119.059C93.0039 119.02 93.168 118.965 93.3203 118.895C93.4727 118.828 93.6094 118.75 93.7305 118.66C93.8555 118.566 93.9668 118.469 94.0645 118.367C94.084 118.488 94.1055 118.605 94.1289 118.719C94.1562 118.828 94.1914 118.922 94.2344 119ZM92.5293 117.992C92.3496 117.992 92.1934 117.971 92.0605 117.928C91.9277 117.881 91.8164 117.818 91.7266 117.74C91.6367 117.662 91.5684 117.568 91.5215 117.459C91.4746 117.346 91.4512 117.225 91.4512 117.096C91.4512 116.939 91.4785 116.799 91.5332 116.674C91.5918 116.549 91.6797 116.441 91.7969 116.352C91.9297 116.246 92.1074 116.166 92.3301 116.111C92.5527 116.053 92.8164 116.023 93.1211 116.023H94.0234V117.195C93.9727 117.297 93.9004 117.395 93.8066 117.488C93.7129 117.582 93.6016 117.666 93.4727 117.74C93.3438 117.814 93.1992 117.875 93.0391 117.922C92.8828 117.969 92.7129 117.992 92.5293 117.992ZM104.611 121.438H106.012V118.426C106.086 118.508 106.166 118.584 106.252 118.654C106.338 118.721 106.428 118.783 106.521 118.842C106.682 118.932 106.855 119 107.043 119.047C107.234 119.094 107.443 119.117 107.67 119.117C108.068 119.117 108.422 119.035 108.73 118.871C109.039 118.707 109.299 118.48 109.51 118.191C109.721 117.906 109.879 117.566 109.984 117.172C110.094 116.777 110.148 116.352 110.148 115.895V115.771C110.148 115.295 110.094 114.859 109.984 114.465C109.879 114.066 109.721 113.725 109.51 113.439C109.299 113.154 109.037 112.934 108.725 112.777C108.416 112.621 108.059 112.543 107.652 112.543C107.445 112.543 107.25 112.566 107.066 112.613C106.883 112.656 106.715 112.719 106.562 112.801C106.445 112.863 106.336 112.938 106.234 113.023C106.133 113.109 106.039 113.205 105.953 113.311L105.9 112.66H104.611V121.438ZM108.748 115.771V115.895C108.748 116.176 108.721 116.443 108.666 116.697C108.611 116.947 108.523 117.17 108.402 117.365C108.285 117.557 108.133 117.709 107.945 117.822C107.762 117.932 107.539 117.986 107.277 117.986C107.117 117.986 106.971 117.969 106.838 117.934C106.705 117.895 106.586 117.844 106.48 117.781C106.379 117.715 106.289 117.637 106.211 117.547C106.133 117.457 106.066 117.357 106.012 117.248V114.43C106.074 114.312 106.146 114.207 106.229 114.113C106.314 114.02 106.414 113.941 106.527 113.879C106.625 113.82 106.736 113.775 106.861 113.744C106.986 113.713 107.121 113.697 107.266 113.697C107.527 113.697 107.752 113.752 107.939 113.861C108.127 113.971 108.281 114.119 108.402 114.307C108.52 114.494 108.605 114.715 108.66 114.969C108.719 115.219 108.748 115.486 108.748 115.771ZM115.855 119H117.285V118.9C117.207 118.736 117.146 118.541 117.104 118.314C117.064 118.084 117.045 117.826 117.045 117.541V114.723C117.045 114.363 116.979 114.047 116.846 113.773C116.713 113.496 116.529 113.268 116.295 113.088C116.061 112.908 115.781 112.773 115.457 112.684C115.137 112.59 114.791 112.543 114.42 112.543C114.006 112.543 113.637 112.598 113.312 112.707C112.992 112.812 112.721 112.957 112.498 113.141C112.275 113.32 112.105 113.527 111.988 113.762C111.871 113.996 111.811 114.24 111.807 114.494H113.213C113.213 114.373 113.234 114.26 113.277 114.154C113.324 114.045 113.395 113.953 113.488 113.879C113.582 113.797 113.699 113.732 113.84 113.686C113.984 113.639 114.152 113.615 114.344 113.615C114.555 113.615 114.74 113.643 114.9 113.697C115.064 113.748 115.203 113.822 115.316 113.92C115.422 114.018 115.502 114.133 115.557 114.266C115.615 114.398 115.645 114.547 115.645 114.711V115.139H114.625C114.168 115.139 113.758 115.182 113.395 115.268C113.035 115.354 112.732 115.479 112.486 115.643C112.221 115.818 112.018 116.041 111.877 116.311C111.74 116.576 111.672 116.883 111.672 117.23C111.672 117.5 111.725 117.752 111.83 117.986C111.939 118.217 112.09 118.414 112.281 118.578C112.477 118.746 112.709 118.879 112.979 118.977C113.252 119.07 113.553 119.117 113.881 119.117C114.084 119.117 114.273 119.098 114.449 119.059C114.625 119.02 114.789 118.965 114.941 118.895C115.094 118.828 115.23 118.75 115.352 118.66C115.477 118.566 115.588 118.469 115.686 118.367C115.705 118.488 115.727 118.605 115.75 118.719C115.777 118.828 115.812 118.922 115.855 119ZM114.15 117.992C113.971 117.992 113.814 117.971 113.682 117.928C113.549 117.881 113.438 117.818 113.348 117.74C113.258 117.662 113.189 117.568 113.143 117.459C113.096 117.346 113.072 117.225 113.072 117.096C113.072 116.939 113.1 116.799 113.154 116.674C113.213 116.549 113.301 116.441 113.418 116.352C113.551 116.246 113.729 116.166 113.951 116.111C114.174 116.053 114.438 116.023 114.742 116.023H115.645V117.195C115.594 117.297 115.521 117.395 115.428 117.488C115.334 117.582 115.223 117.666 115.094 117.74C114.965 117.814 114.82 117.875 114.66 117.922C114.504 117.969 114.334 117.992 114.15 117.992ZM123.396 112.543C122.959 112.543 122.559 112.645 122.195 112.848C121.836 113.051 121.527 113.33 121.27 113.686L121.264 113.539L121.205 112.66H119.893V119H121.293V115.086C121.367 114.898 121.459 114.732 121.568 114.588C121.678 114.443 121.811 114.324 121.967 114.23C122.111 114.133 122.277 114.061 122.465 114.014C122.652 113.967 122.863 113.943 123.098 113.943C123.305 113.943 123.512 113.955 123.719 113.979C123.93 114.002 124.143 114.037 124.357 114.084L124.557 112.701C124.436 112.658 124.268 112.621 124.053 112.59C123.842 112.559 123.623 112.543 123.396 112.543ZM130.27 119H131.699V118.9C131.621 118.736 131.561 118.541 131.518 118.314C131.479 118.084 131.459 117.826 131.459 117.541V114.723C131.459 114.363 131.393 114.047 131.26 113.773C131.127 113.496 130.943 113.268 130.709 113.088C130.475 112.908 130.195 112.773 129.871 112.684C129.551 112.59 129.205 112.543 128.834 112.543C128.42 112.543 128.051 112.598 127.727 112.707C127.406 112.812 127.135 112.957 126.912 113.141C126.689 113.32 126.52 113.527 126.402 113.762C126.285 113.996 126.225 114.24 126.221 114.494H127.627C127.627 114.373 127.648 114.26 127.691 114.154C127.738 114.045 127.809 113.953 127.902 113.879C127.996 113.797 128.113 113.732 128.254 113.686C128.398 113.639 128.566 113.615 128.758 113.615C128.969 113.615 129.154 113.643 129.314 113.697C129.479 113.748 129.617 113.822 129.73 113.92C129.836 114.018 129.916 114.133 129.971 114.266C130.029 114.398 130.059 114.547 130.059 114.711V115.139H129.039C128.582 115.139 128.172 115.182 127.809 115.268C127.449 115.354 127.146 115.479 126.9 115.643C126.635 115.818 126.432 116.041 126.291 116.311C126.154 116.576 126.086 116.883 126.086 117.23C126.086 117.5 126.139 117.752 126.244 117.986C126.354 118.217 126.504 118.414 126.695 118.578C126.891 118.746 127.123 118.879 127.393 118.977C127.666 119.07 127.967 119.117 128.295 119.117C128.498 119.117 128.688 119.098 128.863 119.059C129.039 119.02 129.203 118.965 129.355 118.895C129.508 118.828 129.645 118.75 129.766 118.66C129.891 118.566 130.002 118.469 130.1 118.367C130.119 118.488 130.141 118.605 130.164 118.719C130.191 118.828 130.227 118.922 130.27 119ZM128.564 117.992C128.385 117.992 128.229 117.971 128.096 117.928C127.963 117.881 127.852 117.818 127.762 117.74C127.672 117.662 127.604 117.568 127.557 117.459C127.51 117.346 127.486 117.225 127.486 117.096C127.486 116.939 127.514 116.799 127.568 116.674C127.627 116.549 127.715 116.441 127.832 116.352C127.965 116.246 128.143 116.166 128.365 116.111C128.588 116.053 128.852 116.023 129.156 116.023H130.059V117.195C130.008 117.297 129.936 117.395 129.842 117.488C129.748 117.582 129.637 117.666 129.508 117.74C129.379 117.814 129.234 117.875 129.074 117.922C128.918 117.969 128.748 117.992 128.564 117.992ZM133.246 115.783V115.906C133.246 116.363 133.305 116.789 133.422 117.184C133.543 117.574 133.715 117.912 133.938 118.197C134.156 118.486 134.422 118.713 134.734 118.877C135.047 119.037 135.398 119.117 135.789 119.117C136.004 119.117 136.203 119.094 136.387 119.047C136.57 119.004 136.738 118.939 136.891 118.854C136.992 118.799 137.086 118.734 137.172 118.66C137.262 118.586 137.348 118.506 137.43 118.42V118.859C137.43 119.098 137.395 119.311 137.324 119.498C137.258 119.686 137.162 119.844 137.037 119.973C136.9 120.105 136.734 120.207 136.539 120.277C136.348 120.348 136.127 120.383 135.877 120.383C135.732 120.383 135.59 120.367 135.449 120.336C135.309 120.309 135.17 120.264 135.033 120.201C134.896 120.139 134.762 120.057 134.629 119.955C134.5 119.857 134.379 119.74 134.266 119.604L133.604 120.453C133.744 120.641 133.912 120.801 134.107 120.934C134.303 121.066 134.508 121.174 134.723 121.256C134.938 121.338 135.152 121.398 135.367 121.438C135.582 121.477 135.779 121.496 135.959 121.496C136.385 121.496 136.773 121.436 137.125 121.314C137.48 121.197 137.785 121.025 138.039 120.799C138.289 120.568 138.482 120.287 138.619 119.955C138.76 119.627 138.83 119.25 138.83 118.824V112.66H137.559L137.5 113.299C137.422 113.205 137.338 113.119 137.248 113.041C137.158 112.959 137.062 112.889 136.961 112.83C136.805 112.736 136.631 112.666 136.439 112.619C136.248 112.568 136.035 112.543 135.801 112.543C135.406 112.543 135.051 112.623 134.734 112.783C134.422 112.939 134.154 113.16 133.932 113.445C133.713 113.73 133.543 114.072 133.422 114.471C133.305 114.865 133.246 115.303 133.246 115.783ZM134.652 115.906V115.783C134.652 115.498 134.682 115.23 134.74 114.98C134.799 114.727 134.891 114.504 135.016 114.312C135.137 114.121 135.291 113.971 135.479 113.861C135.666 113.752 135.891 113.697 136.152 113.697C136.301 113.697 136.438 113.715 136.562 113.75C136.688 113.781 136.801 113.826 136.902 113.885C137.016 113.947 137.115 114.025 137.201 114.119C137.291 114.213 137.367 114.318 137.43 114.436V117.213C137.367 117.326 137.295 117.43 137.213 117.523C137.131 117.617 137.037 117.697 136.932 117.764C136.826 117.826 136.707 117.875 136.574 117.91C136.445 117.945 136.301 117.963 136.141 117.963C135.883 117.963 135.66 117.91 135.473 117.805C135.285 117.695 135.131 117.545 135.01 117.354C134.885 117.17 134.793 116.953 134.734 116.703C134.68 116.453 134.652 116.188 134.652 115.906ZM145.018 112.543C144.58 112.543 144.18 112.645 143.816 112.848C143.457 113.051 143.148 113.33 142.891 113.686L142.885 113.539L142.826 112.66H141.514V119H142.914V115.086C142.988 114.898 143.08 114.732 143.189 114.588C143.299 114.443 143.432 114.324 143.588 114.23C143.732 114.133 143.898 114.061 144.086 114.014C144.273 113.967 144.484 113.943 144.719 113.943C144.926 113.943 145.133 113.955 145.34 113.979C145.551 114.002 145.764 114.037 145.979 114.084L146.178 112.701C146.057 112.658 145.889 112.621 145.674 112.59C145.463 112.559 145.244 112.543 145.018 112.543ZM151.891 119H153.32V118.9C153.242 118.736 153.182 118.541 153.139 118.314C153.1 118.084 153.08 117.826 153.08 117.541V114.723C153.08 114.363 153.014 114.047 152.881 113.773C152.748 113.496 152.564 113.268 152.33 113.088C152.096 112.908 151.816 112.773 151.492 112.684C151.172 112.59 150.826 112.543 150.455 112.543C150.041 112.543 149.672 112.598 149.348 112.707C149.027 112.812 148.756 112.957 148.533 113.141C148.311 113.32 148.141 113.527 148.023 113.762C147.906 113.996 147.846 114.24 147.842 114.494H149.248C149.248 114.373 149.27 114.26 149.312 114.154C149.359 114.045 149.43 113.953 149.523 113.879C149.617 113.797 149.734 113.732 149.875 113.686C150.02 113.639 150.188 113.615 150.379 113.615C150.59 113.615 150.775 113.643 150.936 113.697C151.1 113.748 151.238 113.822 151.352 113.92C151.457 114.018 151.537 114.133 151.592 114.266C151.65 114.398 151.68 114.547 151.68 114.711V115.139H150.66C150.203 115.139 149.793 115.182 149.43 115.268C149.07 115.354 148.768 115.479 148.521 115.643C148.256 115.818 148.053 116.041 147.912 116.311C147.775 116.576 147.707 116.883 147.707 117.23C147.707 117.5 147.76 117.752 147.865 117.986C147.975 118.217 148.125 118.414 148.316 118.578C148.512 118.746 148.744 118.879 149.014 118.977C149.287 119.07 149.588 119.117 149.916 119.117C150.119 119.117 150.309 119.098 150.484 119.059C150.66 119.02 150.824 118.965 150.977 118.895C151.129 118.828 151.266 118.75 151.387 118.66C151.512 118.566 151.623 118.469 151.721 118.367C151.74 118.488 151.762 118.605 151.785 118.719C151.812 118.828 151.848 118.922 151.891 119ZM150.186 117.992C150.006 117.992 149.85 117.971 149.717 117.928C149.584 117.881 149.473 117.818 149.383 117.74C149.293 117.662 149.225 117.568 149.178 117.459C149.131 117.346 149.107 117.225 149.107 117.096C149.107 116.939 149.135 116.799 149.189 116.674C149.248 116.549 149.336 116.441 149.453 116.352C149.586 116.246 149.764 116.166 149.986 116.111C150.209 116.053 150.473 116.023 150.777 116.023H151.68V117.195C151.629 117.297 151.557 117.395 151.463 117.488C151.369 117.582 151.258 117.666 151.129 117.74C151 117.814 150.855 117.875 150.695 117.922C150.539 117.969 150.369 117.992 150.186 117.992ZM155.061 121.438H156.461V118.426C156.535 118.508 156.615 118.584 156.701 118.654C156.787 118.721 156.877 118.783 156.971 118.842C157.131 118.932 157.305 119 157.492 119.047C157.684 119.094 157.893 119.117 158.119 119.117C158.518 119.117 158.871 119.035 159.18 118.871C159.488 118.707 159.748 118.48 159.959 118.191C160.17 117.906 160.328 117.566 160.434 117.172C160.543 116.777 160.598 116.352 160.598 115.895V115.771C160.598 115.295 160.543 114.859 160.434 114.465C160.328 114.066 160.17 113.725 159.959 113.439C159.748 113.154 159.486 112.934 159.174 112.777C158.865 112.621 158.508 112.543 158.102 112.543C157.895 112.543 157.699 112.566 157.516 112.613C157.332 112.656 157.164 112.719 157.012 112.801C156.895 112.863 156.785 112.938 156.684 113.023C156.582 113.109 156.488 113.205 156.402 113.311L156.35 112.66H155.061V121.438ZM159.197 115.771V115.895C159.197 116.176 159.17 116.443 159.115 116.697C159.061 116.947 158.973 117.17 158.852 117.365C158.734 117.557 158.582 117.709 158.395 117.822C158.211 117.932 157.988 117.986 157.727 117.986C157.566 117.986 157.42 117.969 157.287 117.934C157.154 117.895 157.035 117.844 156.93 117.781C156.828 117.715 156.738 117.637 156.66 117.547C156.582 117.457 156.516 117.357 156.461 117.248V114.43C156.523 114.312 156.596 114.207 156.678 114.113C156.764 114.02 156.863 113.941 156.977 113.879C157.074 113.82 157.186 113.775 157.311 113.744C157.436 113.713 157.57 113.697 157.715 113.697C157.977 113.697 158.201 113.752 158.389 113.861C158.576 113.971 158.73 114.119 158.852 114.307C158.969 114.494 159.055 114.715 159.109 114.969C159.168 115.219 159.197 115.486 159.197 115.771ZM163.656 113.562V110H162.256V119H163.656V114.412C163.723 114.311 163.799 114.219 163.885 114.137C163.975 114.055 164.07 113.984 164.172 113.926C164.293 113.852 164.426 113.795 164.57 113.756C164.719 113.717 164.875 113.697 165.039 113.697C165.25 113.697 165.436 113.727 165.596 113.785C165.76 113.84 165.898 113.926 166.012 114.043C166.121 114.152 166.203 114.295 166.258 114.471C166.316 114.646 166.346 114.852 166.346 115.086V119H167.746V115.098C167.746 114.648 167.691 114.264 167.582 113.943C167.477 113.619 167.326 113.354 167.131 113.146C166.936 112.939 166.699 112.787 166.422 112.689C166.148 112.592 165.846 112.543 165.514 112.543C165.275 112.543 165.049 112.578 164.834 112.648C164.623 112.715 164.43 112.812 164.254 112.941C164.141 113.02 164.033 113.111 163.932 113.217C163.83 113.322 163.738 113.438 163.656 113.562ZM171.209 118.156C171.209 118.426 171.297 118.654 171.473 118.842C171.652 119.025 171.902 119.117 172.223 119.117C172.539 119.117 172.787 119.025 172.967 118.842C173.15 118.658 173.242 118.43 173.242 118.156C173.242 117.883 173.152 117.652 172.973 117.465C172.793 117.273 172.543 117.178 172.223 117.178C171.898 117.178 171.648 117.273 171.473 117.465C171.297 117.656 171.209 117.887 171.209 118.156Z" fill="white"/>
</svg>
